M48
; DRILL file {KiCad 9.0.4} date 2025-08-26T19:34:44+0200
; FORMAT={-:-/ absolute / metric / decimal}
; #@! TF.CreationDate,2025-08-26T19:34:44+02:00
; #@! TF.GenerationSoftware,Kicad,Pcbnew,9.0.4
; #@! TF.FileFunction,Plated,1,2,PTH
FMAT,2
METRIC
; #@! TA.AperFunction,Plated,PTH,ViaDrill
T1C0.400
; #@! TA.AperFunction,Plated,PTH,ComponentDrill
T2C0.800
; #@! TA.AperFunction,Plated,PTH,ComponentDrill
T3C0.950
; #@! TA.AperFunction,Plated,PTH,ComponentDrill
T4C1.000
; #@! TA.AperFunction,Plated,PTH,ComponentDrill
T5C1.100
; #@! TA.AperFunction,Plated,PTH,ComponentDrill
T6C1.500
%
G90
G05
T1
X87.833Y-144.374
X88.595Y-59.461
X95.555Y-69.139
X99.441Y-130.48
X101.625Y-43.485
X108.28Y-78.842
X108.407Y-58.649
X114.021Y-58.649
X114.63Y-69.952
X116.205Y-147.523
X118.364Y-87.782
X118.516Y-56.921
X120.65Y-111.836
X123.215Y-63.5
X124.003Y-55.067
X125.222Y-65.507
X126.695Y-79.146
X126.848Y-58.268
X127.051Y-41.402
X127.203Y-60.579
X127.37Y-52.375
X129.0Y-39.0
X129.54Y-55.093
X129.896Y-62.916
X132.537Y-52.73
X132.969Y-42.951
X132.994Y-59.055
X137.719Y-86.716
X138.252Y-79.273
X139.04Y-56.109
X139.04Y-65.837
X139.065Y-74.27
X139.802Y-45.415
X140.792Y-52.172
X144.932Y-39.853
X145.263Y-104.115
X146.101Y-79.426
X147.676Y-98.476
X149.733Y-135.052
X152.425Y-102.387
X155.55Y-135.509
X156.693Y-45.441
T2
X85.437Y-48.275
X85.437Y-51.075
X85.437Y-54.775
X96.837Y-48.275
X96.837Y-51.075
X96.837Y-54.775
X135.509Y-41.529
X135.509Y-44.069
X135.509Y-46.609
X135.509Y-49.149
X135.509Y-51.689
X135.509Y-54.229
X135.509Y-56.769
X135.509Y-59.309
X135.509Y-61.849
X135.509Y-64.389
X135.509Y-66.929
X135.509Y-69.469
X150.749Y-41.529
X150.749Y-44.069
X150.749Y-46.609
X150.749Y-49.149
X150.749Y-51.689
X150.749Y-54.229
X150.749Y-56.769
X150.749Y-59.309
X150.749Y-61.849
X150.749Y-64.389
X150.749Y-66.929
X150.749Y-69.469
T3
X122.37Y-46.863
X124.87Y-46.863
X127.37Y-46.863
X129.87Y-46.863
T4
X83.987Y-67.339
X83.987Y-72.339
X98.487Y-67.339
X98.487Y-69.839
X98.487Y-72.339
X103.047Y-67.339
X103.047Y-72.339
X117.547Y-67.339
X117.547Y-69.839
X117.547Y-72.339
T5
X110.467Y-45.487
X110.467Y-49.987
X116.967Y-45.487
X116.967Y-49.987
T6
X87.427Y-86.779
X87.427Y-105.829
X87.427Y-124.879
X93.777Y-84.239
X93.777Y-103.289
X93.777Y-122.339
X98.232Y-151.549
X104.582Y-149.009
X106.487Y-86.779
X106.487Y-105.829
X106.487Y-124.879
X112.837Y-84.239
X112.837Y-103.289
X112.837Y-122.339
X125.537Y-86.779
X125.537Y-105.829
X125.537Y-124.879
X125.537Y-143.929
X131.887Y-84.239
X131.887Y-103.289
X131.887Y-122.339
X131.887Y-141.389
X144.587Y-86.779
X144.587Y-143.929
X150.937Y-84.239
X150.937Y-114.084
X150.937Y-141.389
X153.477Y-120.434
T6
X91.637Y-64.239G85X90.337Y-64.239
G05
X91.637Y-75.439G85X90.337Y-75.439
G05
X110.697Y-64.239G85X109.397Y-64.239
G05
X110.697Y-75.439G85X109.397Y-75.439
G05
M30
