%TF.GenerationSoftware,KiCad,Pcbnew,9.0.4*%
%TF.CreationDate,2025-08-26T19:34:46+02:00*%
%TF.ProjectId,shaghayeghs-keyboard,73686167-6861-4796-9567-68732d6b6579,rev?*%
%TF.SameCoordinates,Original*%
%TF.FileFunction,Paste,Top*%
%TF.FilePolarity,Positive*%
%FSLAX46Y46*%
G04 Gerber Fmt 4.6, Leading zero omitted, Abs format (unit mm)*
G04 Created by KiCad (PCBNEW 9.0.4) date 2025-08-26 19:34:46*
%MOMM*%
%LPD*%
G01*
G04 APERTURE LIST*
G04 Aperture macros list*
%AMRoundRect*
0 Rectangle with rounded corners*
0 $1 Rounding radius*
0 $2 $3 $4 $5 $6 $7 $8 $9 X,Y pos of 4 corners*
0 Add a 4 corners polygon primitive as box body*
4,1,4,$2,$3,$4,$5,$6,$7,$8,$9,$2,$3,0*
0 Add four circle primitives for the rounded corners*
1,1,$1+$1,$2,$3*
1,1,$1+$1,$4,$5*
1,1,$1+$1,$6,$7*
1,1,$1+$1,$8,$9*
0 Add four rect primitives between the rounded corners*
20,1,$1+$1,$2,$3,$4,$5,0*
20,1,$1+$1,$4,$5,$6,$7,0*
20,1,$1+$1,$6,$7,$8,$9,0*
20,1,$1+$1,$8,$9,$2,$3,0*%
G04 Aperture macros list end*
%ADD10RoundRect,0.075000X-0.910000X-0.225000X0.910000X-0.225000X0.910000X0.225000X-0.910000X0.225000X0*%
%ADD11RoundRect,0.150000X-0.150000X-0.200000X0.150000X-0.200000X0.150000X0.200000X-0.150000X0.200000X0*%
%ADD12RoundRect,0.250000X-0.625000X0.312500X-0.625000X-0.312500X0.625000X-0.312500X0.625000X0.312500X0*%
%ADD13RoundRect,0.150000X0.150000X0.200000X-0.150000X0.200000X-0.150000X-0.200000X0.150000X-0.200000X0*%
%ADD14RoundRect,0.250000X0.312500X0.625000X-0.312500X0.625000X-0.312500X-0.625000X0.312500X-0.625000X0*%
%ADD15RoundRect,0.250000X-0.312500X-0.625000X0.312500X-0.625000X0.312500X0.625000X-0.312500X0.625000X0*%
G04 APERTURE END LIST*
D10*
%TO.C,U3*%
X128433800Y-64795400D03*
X128433800Y-66065400D03*
X128433800Y-67335400D03*
X128433800Y-68605400D03*
X128433800Y-69875400D03*
X128433800Y-71145400D03*
X128433800Y-72415400D03*
X128433800Y-73685400D03*
X123483800Y-73685400D03*
X123483800Y-72415400D03*
X123483800Y-71145400D03*
X123483800Y-69875400D03*
X123483800Y-68605400D03*
X123483800Y-67335400D03*
X123483800Y-66065400D03*
X123483800Y-64795400D03*
%TD*%
D11*
%TO.C,D1*%
X99785400Y-81280000D03*
X98385400Y-81280000D03*
%TD*%
D12*
%TO.C,R4*%
X155778200Y-66203100D03*
X155778200Y-69128100D03*
%TD*%
D13*
%TO.C,D10*%
X117206800Y-119176800D03*
X118606800Y-119176800D03*
%TD*%
D14*
%TO.C,R10*%
X105805700Y-46837600D03*
X102880700Y-46837600D03*
%TD*%
D13*
%TO.C,D13*%
X135875800Y-138201400D03*
X137275800Y-138201400D03*
%TD*%
D12*
%TO.C,R1*%
X155778200Y-49718500D03*
X155778200Y-52643500D03*
%TD*%
D11*
%TO.C,D12*%
X119140200Y-138277600D03*
X117740200Y-138277600D03*
%TD*%
%TO.C,D9*%
X99571000Y-119176800D03*
X98171000Y-119176800D03*
%TD*%
D14*
%TO.C,R6*%
X105805700Y-59867800D03*
X102880700Y-59867800D03*
%TD*%
D13*
%TO.C,D4*%
X154621000Y-81280000D03*
X156021000Y-81280000D03*
%TD*%
%TO.C,D8*%
X151928600Y-100279200D03*
X153328600Y-100279200D03*
%TD*%
D14*
%TO.C,R8*%
X105805700Y-55524400D03*
X102880700Y-55524400D03*
%TD*%
D12*
%TO.C,R3*%
X155778200Y-60708233D03*
X155778200Y-63633233D03*
%TD*%
D13*
%TO.C,D6*%
X116851200Y-100152200D03*
X118251200Y-100152200D03*
%TD*%
%TO.C,D11*%
X135799600Y-119151400D03*
X137199600Y-119151400D03*
%TD*%
D15*
%TO.C,R5*%
X108925900Y-55473600D03*
X111850900Y-55473600D03*
%TD*%
D13*
%TO.C,D2*%
X113168200Y-81280000D03*
X114568200Y-81280000D03*
%TD*%
%TO.C,D3*%
X141159000Y-81280000D03*
X142559000Y-81280000D03*
%TD*%
D12*
%TO.C,R2*%
X155778200Y-55213367D03*
X155778200Y-58138367D03*
%TD*%
D14*
%TO.C,R7*%
X99277900Y-59867800D03*
X96352900Y-59867800D03*
%TD*%
D13*
%TO.C,D14*%
X155560800Y-138201400D03*
X156960800Y-138201400D03*
%TD*%
D11*
%TO.C,D5*%
X99328200Y-100177600D03*
X97928200Y-100177600D03*
%TD*%
D14*
%TO.C,R9*%
X105805700Y-51409600D03*
X102880700Y-51409600D03*
%TD*%
D13*
%TO.C,D7*%
X136104400Y-100203000D03*
X137504400Y-100203000D03*
%TD*%
M02*
