M48
; DRILL file {KiCad 9.0.4} date 2025-08-26T19:34:44+0200
; FORMAT={-:-/ absolute / metric / decimal}
; #@! TF.CreationDate,2025-08-26T19:34:44+02:00
; #@! TF.GenerationSoftware,Kicad,Pcbnew,9.0.4
; #@! TF.FileFunction,NonPlated,1,2,NPTH
FMAT,2
METRIC
; #@! TA.AperFunction,NonPlated,NPTH,ComponentDrill
T1C1.200
; #@! TA.AperFunction,NonPlated,NPTH,ComponentDrill
T2C1.700
; #@! TA.AperFunction,NonPlated,NPTH,ComponentDrill
T3C2.200
; #@! TA.AperFunction,NonPlated,NPTH,ComponentDrill
T4C3.050
; #@! TA.AperFunction,NonPlated,NPTH,ComponentDrill
T5C4.000
%
G90
G05
T1
X120.77Y-48.863
T2
X86.157Y-89.319
X86.157Y-108.369
X86.157Y-127.419
X95.692Y-146.469
X96.317Y-89.319
X96.317Y-108.369
X96.317Y-127.419
X105.217Y-89.319
X105.217Y-108.369
X105.217Y-127.419
X105.852Y-146.469
X115.377Y-89.319
X115.377Y-108.369
X115.377Y-127.419
X124.267Y-89.319
X124.267Y-108.369
X124.267Y-127.419
X124.267Y-146.469
X134.427Y-89.319
X134.427Y-108.369
X134.427Y-127.419
X134.427Y-146.469
X143.317Y-89.319
X143.317Y-146.469
X148.397Y-112.814
X148.397Y-122.974
X153.477Y-89.319
X153.477Y-146.469
T3
X84.0Y-41.0
X84.0Y-154.0
X158.0Y-41.0
X158.0Y-154.0
T4
X88.872Y-153.469
X112.672Y-153.469
X155.397Y-105.994
X155.397Y-129.794
T5
X88.872Y-138.229
X91.237Y-89.319
X91.237Y-108.369
X91.237Y-127.419
X100.772Y-146.469
X110.297Y-89.319
X110.297Y-108.369
X110.297Y-127.419
X112.672Y-138.229
X129.347Y-89.319
X129.347Y-108.369
X129.347Y-127.419
X129.347Y-146.469
X140.157Y-105.994
X140.157Y-129.794
X148.397Y-89.319
X148.397Y-117.894
X148.397Y-146.469
M30
