%TF.GenerationSoftware,KiCad,Pcbnew,9.0.4*%
%TF.CreationDate,2025-08-26T19:34:46+02:00*%
%TF.ProjectId,shaghayeghs-keyboard,73686167-6861-4796-9567-68732d6b6579,rev?*%
%TF.SameCoordinates,Original*%
%TF.FileFunction,Legend,Top*%
%TF.FilePolarity,Positive*%
%FSLAX46Y46*%
G04 Gerber Fmt 4.6, Leading zero omitted, Abs format (unit mm)*
G04 Created by KiCad (PCBNEW 9.0.4) date 2025-08-26 19:34:46*
%MOMM*%
%LPD*%
G01*
G04 APERTURE LIST*
%ADD10C,0.150000*%
%ADD11C,0.260000*%
%ADD12C,0.127000*%
%ADD13C,0.200000*%
%ADD14C,0.100000*%
%ADD15C,0.120000*%
%ADD16C,0.000000*%
G04 APERTURE END LIST*
D10*
X92873076Y-41987000D02*
X93015933Y-42034619D01*
X93015933Y-42034619D02*
X93254028Y-42034619D01*
X93254028Y-42034619D02*
X93349266Y-41987000D01*
X93349266Y-41987000D02*
X93396885Y-41939380D01*
X93396885Y-41939380D02*
X93444504Y-41844142D01*
X93444504Y-41844142D02*
X93444504Y-41748904D01*
X93444504Y-41748904D02*
X93396885Y-41653666D01*
X93396885Y-41653666D02*
X93349266Y-41606047D01*
X93349266Y-41606047D02*
X93254028Y-41558428D01*
X93254028Y-41558428D02*
X93063552Y-41510809D01*
X93063552Y-41510809D02*
X92968314Y-41463190D01*
X92968314Y-41463190D02*
X92920695Y-41415571D01*
X92920695Y-41415571D02*
X92873076Y-41320333D01*
X92873076Y-41320333D02*
X92873076Y-41225095D01*
X92873076Y-41225095D02*
X92920695Y-41129857D01*
X92920695Y-41129857D02*
X92968314Y-41082238D01*
X92968314Y-41082238D02*
X93063552Y-41034619D01*
X93063552Y-41034619D02*
X93301647Y-41034619D01*
X93301647Y-41034619D02*
X93444504Y-41082238D01*
X93873076Y-41367952D02*
X93873076Y-42367952D01*
X93873076Y-41415571D02*
X93968314Y-41367952D01*
X93968314Y-41367952D02*
X94158790Y-41367952D01*
X94158790Y-41367952D02*
X94254028Y-41415571D01*
X94254028Y-41415571D02*
X94301647Y-41463190D01*
X94301647Y-41463190D02*
X94349266Y-41558428D01*
X94349266Y-41558428D02*
X94349266Y-41844142D01*
X94349266Y-41844142D02*
X94301647Y-41939380D01*
X94301647Y-41939380D02*
X94254028Y-41987000D01*
X94254028Y-41987000D02*
X94158790Y-42034619D01*
X94158790Y-42034619D02*
X93968314Y-42034619D01*
X93968314Y-42034619D02*
X93873076Y-41987000D01*
X95158790Y-41987000D02*
X95063552Y-42034619D01*
X95063552Y-42034619D02*
X94873076Y-42034619D01*
X94873076Y-42034619D02*
X94777838Y-41987000D01*
X94777838Y-41987000D02*
X94730219Y-41891761D01*
X94730219Y-41891761D02*
X94730219Y-41510809D01*
X94730219Y-41510809D02*
X94777838Y-41415571D01*
X94777838Y-41415571D02*
X94873076Y-41367952D01*
X94873076Y-41367952D02*
X95063552Y-41367952D01*
X95063552Y-41367952D02*
X95158790Y-41415571D01*
X95158790Y-41415571D02*
X95206409Y-41510809D01*
X95206409Y-41510809D02*
X95206409Y-41606047D01*
X95206409Y-41606047D02*
X94730219Y-41701285D01*
X96063552Y-41987000D02*
X95968314Y-42034619D01*
X95968314Y-42034619D02*
X95777838Y-42034619D01*
X95777838Y-42034619D02*
X95682600Y-41987000D01*
X95682600Y-41987000D02*
X95634981Y-41939380D01*
X95634981Y-41939380D02*
X95587362Y-41844142D01*
X95587362Y-41844142D02*
X95587362Y-41558428D01*
X95587362Y-41558428D02*
X95634981Y-41463190D01*
X95634981Y-41463190D02*
X95682600Y-41415571D01*
X95682600Y-41415571D02*
X95777838Y-41367952D01*
X95777838Y-41367952D02*
X95968314Y-41367952D01*
X95968314Y-41367952D02*
X96063552Y-41415571D01*
X96920695Y-42034619D02*
X96920695Y-41510809D01*
X96920695Y-41510809D02*
X96873076Y-41415571D01*
X96873076Y-41415571D02*
X96777838Y-41367952D01*
X96777838Y-41367952D02*
X96587362Y-41367952D01*
X96587362Y-41367952D02*
X96492124Y-41415571D01*
X96920695Y-41987000D02*
X96825457Y-42034619D01*
X96825457Y-42034619D02*
X96587362Y-42034619D01*
X96587362Y-42034619D02*
X96492124Y-41987000D01*
X96492124Y-41987000D02*
X96444505Y-41891761D01*
X96444505Y-41891761D02*
X96444505Y-41796523D01*
X96444505Y-41796523D02*
X96492124Y-41701285D01*
X96492124Y-41701285D02*
X96587362Y-41653666D01*
X96587362Y-41653666D02*
X96825457Y-41653666D01*
X96825457Y-41653666D02*
X96920695Y-41606047D01*
X97396886Y-42034619D02*
X97396886Y-41367952D01*
X97396886Y-41034619D02*
X97349267Y-41082238D01*
X97349267Y-41082238D02*
X97396886Y-41129857D01*
X97396886Y-41129857D02*
X97444505Y-41082238D01*
X97444505Y-41082238D02*
X97396886Y-41034619D01*
X97396886Y-41034619D02*
X97396886Y-41129857D01*
X98015933Y-42034619D02*
X97920695Y-41987000D01*
X97920695Y-41987000D02*
X97873076Y-41891761D01*
X97873076Y-41891761D02*
X97873076Y-41034619D01*
X98539743Y-42034619D02*
X98444505Y-41987000D01*
X98444505Y-41987000D02*
X98396886Y-41891761D01*
X98396886Y-41891761D02*
X98396886Y-41034619D01*
X98825458Y-41367952D02*
X99063553Y-42034619D01*
X99301648Y-41367952D02*
X99063553Y-42034619D01*
X99063553Y-42034619D02*
X98968315Y-42272714D01*
X98968315Y-42272714D02*
X98920696Y-42320333D01*
X98920696Y-42320333D02*
X98825458Y-42367952D01*
X100873077Y-42034619D02*
X100873077Y-41034619D01*
X100873077Y-41987000D02*
X100777839Y-42034619D01*
X100777839Y-42034619D02*
X100587363Y-42034619D01*
X100587363Y-42034619D02*
X100492125Y-41987000D01*
X100492125Y-41987000D02*
X100444506Y-41939380D01*
X100444506Y-41939380D02*
X100396887Y-41844142D01*
X100396887Y-41844142D02*
X100396887Y-41558428D01*
X100396887Y-41558428D02*
X100444506Y-41463190D01*
X100444506Y-41463190D02*
X100492125Y-41415571D01*
X100492125Y-41415571D02*
X100587363Y-41367952D01*
X100587363Y-41367952D02*
X100777839Y-41367952D01*
X100777839Y-41367952D02*
X100873077Y-41415571D01*
X101730220Y-41987000D02*
X101634982Y-42034619D01*
X101634982Y-42034619D02*
X101444506Y-42034619D01*
X101444506Y-42034619D02*
X101349268Y-41987000D01*
X101349268Y-41987000D02*
X101301649Y-41891761D01*
X101301649Y-41891761D02*
X101301649Y-41510809D01*
X101301649Y-41510809D02*
X101349268Y-41415571D01*
X101349268Y-41415571D02*
X101444506Y-41367952D01*
X101444506Y-41367952D02*
X101634982Y-41367952D01*
X101634982Y-41367952D02*
X101730220Y-41415571D01*
X101730220Y-41415571D02*
X101777839Y-41510809D01*
X101777839Y-41510809D02*
X101777839Y-41606047D01*
X101777839Y-41606047D02*
X101301649Y-41701285D01*
X102158792Y-41987000D02*
X102254030Y-42034619D01*
X102254030Y-42034619D02*
X102444506Y-42034619D01*
X102444506Y-42034619D02*
X102539744Y-41987000D01*
X102539744Y-41987000D02*
X102587363Y-41891761D01*
X102587363Y-41891761D02*
X102587363Y-41844142D01*
X102587363Y-41844142D02*
X102539744Y-41748904D01*
X102539744Y-41748904D02*
X102444506Y-41701285D01*
X102444506Y-41701285D02*
X102301649Y-41701285D01*
X102301649Y-41701285D02*
X102206411Y-41653666D01*
X102206411Y-41653666D02*
X102158792Y-41558428D01*
X102158792Y-41558428D02*
X102158792Y-41510809D01*
X102158792Y-41510809D02*
X102206411Y-41415571D01*
X102206411Y-41415571D02*
X102301649Y-41367952D01*
X102301649Y-41367952D02*
X102444506Y-41367952D01*
X102444506Y-41367952D02*
X102539744Y-41415571D01*
X103015935Y-42034619D02*
X103015935Y-41367952D01*
X103015935Y-41034619D02*
X102968316Y-41082238D01*
X102968316Y-41082238D02*
X103015935Y-41129857D01*
X103015935Y-41129857D02*
X103063554Y-41082238D01*
X103063554Y-41082238D02*
X103015935Y-41034619D01*
X103015935Y-41034619D02*
X103015935Y-41129857D01*
X103920696Y-41367952D02*
X103920696Y-42177476D01*
X103920696Y-42177476D02*
X103873077Y-42272714D01*
X103873077Y-42272714D02*
X103825458Y-42320333D01*
X103825458Y-42320333D02*
X103730220Y-42367952D01*
X103730220Y-42367952D02*
X103587363Y-42367952D01*
X103587363Y-42367952D02*
X103492125Y-42320333D01*
X103920696Y-41987000D02*
X103825458Y-42034619D01*
X103825458Y-42034619D02*
X103634982Y-42034619D01*
X103634982Y-42034619D02*
X103539744Y-41987000D01*
X103539744Y-41987000D02*
X103492125Y-41939380D01*
X103492125Y-41939380D02*
X103444506Y-41844142D01*
X103444506Y-41844142D02*
X103444506Y-41558428D01*
X103444506Y-41558428D02*
X103492125Y-41463190D01*
X103492125Y-41463190D02*
X103539744Y-41415571D01*
X103539744Y-41415571D02*
X103634982Y-41367952D01*
X103634982Y-41367952D02*
X103825458Y-41367952D01*
X103825458Y-41367952D02*
X103920696Y-41415571D01*
X104396887Y-41367952D02*
X104396887Y-42034619D01*
X104396887Y-41463190D02*
X104444506Y-41415571D01*
X104444506Y-41415571D02*
X104539744Y-41367952D01*
X104539744Y-41367952D02*
X104682601Y-41367952D01*
X104682601Y-41367952D02*
X104777839Y-41415571D01*
X104777839Y-41415571D02*
X104825458Y-41510809D01*
X104825458Y-41510809D02*
X104825458Y-42034619D01*
X105682601Y-41987000D02*
X105587363Y-42034619D01*
X105587363Y-42034619D02*
X105396887Y-42034619D01*
X105396887Y-42034619D02*
X105301649Y-41987000D01*
X105301649Y-41987000D02*
X105254030Y-41891761D01*
X105254030Y-41891761D02*
X105254030Y-41510809D01*
X105254030Y-41510809D02*
X105301649Y-41415571D01*
X105301649Y-41415571D02*
X105396887Y-41367952D01*
X105396887Y-41367952D02*
X105587363Y-41367952D01*
X105587363Y-41367952D02*
X105682601Y-41415571D01*
X105682601Y-41415571D02*
X105730220Y-41510809D01*
X105730220Y-41510809D02*
X105730220Y-41606047D01*
X105730220Y-41606047D02*
X105254030Y-41701285D01*
X106587363Y-42034619D02*
X106587363Y-41034619D01*
X106587363Y-41987000D02*
X106492125Y-42034619D01*
X106492125Y-42034619D02*
X106301649Y-42034619D01*
X106301649Y-42034619D02*
X106206411Y-41987000D01*
X106206411Y-41987000D02*
X106158792Y-41939380D01*
X106158792Y-41939380D02*
X106111173Y-41844142D01*
X106111173Y-41844142D02*
X106111173Y-41558428D01*
X106111173Y-41558428D02*
X106158792Y-41463190D01*
X106158792Y-41463190D02*
X106206411Y-41415571D01*
X106206411Y-41415571D02*
X106301649Y-41367952D01*
X106301649Y-41367952D02*
X106492125Y-41367952D01*
X106492125Y-41367952D02*
X106587363Y-41415571D01*
X107682602Y-41367952D02*
X108063554Y-41367952D01*
X107825459Y-42034619D02*
X107825459Y-41177476D01*
X107825459Y-41177476D02*
X107873078Y-41082238D01*
X107873078Y-41082238D02*
X107968316Y-41034619D01*
X107968316Y-41034619D02*
X108063554Y-41034619D01*
X108539745Y-42034619D02*
X108444507Y-41987000D01*
X108444507Y-41987000D02*
X108396888Y-41939380D01*
X108396888Y-41939380D02*
X108349269Y-41844142D01*
X108349269Y-41844142D02*
X108349269Y-41558428D01*
X108349269Y-41558428D02*
X108396888Y-41463190D01*
X108396888Y-41463190D02*
X108444507Y-41415571D01*
X108444507Y-41415571D02*
X108539745Y-41367952D01*
X108539745Y-41367952D02*
X108682602Y-41367952D01*
X108682602Y-41367952D02*
X108777840Y-41415571D01*
X108777840Y-41415571D02*
X108825459Y-41463190D01*
X108825459Y-41463190D02*
X108873078Y-41558428D01*
X108873078Y-41558428D02*
X108873078Y-41844142D01*
X108873078Y-41844142D02*
X108825459Y-41939380D01*
X108825459Y-41939380D02*
X108777840Y-41987000D01*
X108777840Y-41987000D02*
X108682602Y-42034619D01*
X108682602Y-42034619D02*
X108539745Y-42034619D01*
X109301650Y-42034619D02*
X109301650Y-41367952D01*
X109301650Y-41558428D02*
X109349269Y-41463190D01*
X109349269Y-41463190D02*
X109396888Y-41415571D01*
X109396888Y-41415571D02*
X109492126Y-41367952D01*
X109492126Y-41367952D02*
X109587364Y-41367952D01*
X110634984Y-41987000D02*
X110777841Y-42034619D01*
X110777841Y-42034619D02*
X111015936Y-42034619D01*
X111015936Y-42034619D02*
X111111174Y-41987000D01*
X111111174Y-41987000D02*
X111158793Y-41939380D01*
X111158793Y-41939380D02*
X111206412Y-41844142D01*
X111206412Y-41844142D02*
X111206412Y-41748904D01*
X111206412Y-41748904D02*
X111158793Y-41653666D01*
X111158793Y-41653666D02*
X111111174Y-41606047D01*
X111111174Y-41606047D02*
X111015936Y-41558428D01*
X111015936Y-41558428D02*
X110825460Y-41510809D01*
X110825460Y-41510809D02*
X110730222Y-41463190D01*
X110730222Y-41463190D02*
X110682603Y-41415571D01*
X110682603Y-41415571D02*
X110634984Y-41320333D01*
X110634984Y-41320333D02*
X110634984Y-41225095D01*
X110634984Y-41225095D02*
X110682603Y-41129857D01*
X110682603Y-41129857D02*
X110730222Y-41082238D01*
X110730222Y-41082238D02*
X110825460Y-41034619D01*
X110825460Y-41034619D02*
X111063555Y-41034619D01*
X111063555Y-41034619D02*
X111206412Y-41082238D01*
X111634984Y-42034619D02*
X111634984Y-41034619D01*
X112063555Y-42034619D02*
X112063555Y-41510809D01*
X112063555Y-41510809D02*
X112015936Y-41415571D01*
X112015936Y-41415571D02*
X111920698Y-41367952D01*
X111920698Y-41367952D02*
X111777841Y-41367952D01*
X111777841Y-41367952D02*
X111682603Y-41415571D01*
X111682603Y-41415571D02*
X111634984Y-41463190D01*
X112968317Y-42034619D02*
X112968317Y-41510809D01*
X112968317Y-41510809D02*
X112920698Y-41415571D01*
X112920698Y-41415571D02*
X112825460Y-41367952D01*
X112825460Y-41367952D02*
X112634984Y-41367952D01*
X112634984Y-41367952D02*
X112539746Y-41415571D01*
X112968317Y-41987000D02*
X112873079Y-42034619D01*
X112873079Y-42034619D02*
X112634984Y-42034619D01*
X112634984Y-42034619D02*
X112539746Y-41987000D01*
X112539746Y-41987000D02*
X112492127Y-41891761D01*
X112492127Y-41891761D02*
X112492127Y-41796523D01*
X112492127Y-41796523D02*
X112539746Y-41701285D01*
X112539746Y-41701285D02*
X112634984Y-41653666D01*
X112634984Y-41653666D02*
X112873079Y-41653666D01*
X112873079Y-41653666D02*
X112968317Y-41606047D01*
X113873079Y-41367952D02*
X113873079Y-42177476D01*
X113873079Y-42177476D02*
X113825460Y-42272714D01*
X113825460Y-42272714D02*
X113777841Y-42320333D01*
X113777841Y-42320333D02*
X113682603Y-42367952D01*
X113682603Y-42367952D02*
X113539746Y-42367952D01*
X113539746Y-42367952D02*
X113444508Y-42320333D01*
X113873079Y-41987000D02*
X113777841Y-42034619D01*
X113777841Y-42034619D02*
X113587365Y-42034619D01*
X113587365Y-42034619D02*
X113492127Y-41987000D01*
X113492127Y-41987000D02*
X113444508Y-41939380D01*
X113444508Y-41939380D02*
X113396889Y-41844142D01*
X113396889Y-41844142D02*
X113396889Y-41558428D01*
X113396889Y-41558428D02*
X113444508Y-41463190D01*
X113444508Y-41463190D02*
X113492127Y-41415571D01*
X113492127Y-41415571D02*
X113587365Y-41367952D01*
X113587365Y-41367952D02*
X113777841Y-41367952D01*
X113777841Y-41367952D02*
X113873079Y-41415571D01*
X114349270Y-42034619D02*
X114349270Y-41034619D01*
X114777841Y-42034619D02*
X114777841Y-41510809D01*
X114777841Y-41510809D02*
X114730222Y-41415571D01*
X114730222Y-41415571D02*
X114634984Y-41367952D01*
X114634984Y-41367952D02*
X114492127Y-41367952D01*
X114492127Y-41367952D02*
X114396889Y-41415571D01*
X114396889Y-41415571D02*
X114349270Y-41463190D01*
X115682603Y-42034619D02*
X115682603Y-41510809D01*
X115682603Y-41510809D02*
X115634984Y-41415571D01*
X115634984Y-41415571D02*
X115539746Y-41367952D01*
X115539746Y-41367952D02*
X115349270Y-41367952D01*
X115349270Y-41367952D02*
X115254032Y-41415571D01*
X115682603Y-41987000D02*
X115587365Y-42034619D01*
X115587365Y-42034619D02*
X115349270Y-42034619D01*
X115349270Y-42034619D02*
X115254032Y-41987000D01*
X115254032Y-41987000D02*
X115206413Y-41891761D01*
X115206413Y-41891761D02*
X115206413Y-41796523D01*
X115206413Y-41796523D02*
X115254032Y-41701285D01*
X115254032Y-41701285D02*
X115349270Y-41653666D01*
X115349270Y-41653666D02*
X115587365Y-41653666D01*
X115587365Y-41653666D02*
X115682603Y-41606047D01*
X116063556Y-41367952D02*
X116301651Y-42034619D01*
X116539746Y-41367952D02*
X116301651Y-42034619D01*
X116301651Y-42034619D02*
X116206413Y-42272714D01*
X116206413Y-42272714D02*
X116158794Y-42320333D01*
X116158794Y-42320333D02*
X116063556Y-42367952D01*
X117301651Y-41987000D02*
X117206413Y-42034619D01*
X117206413Y-42034619D02*
X117015937Y-42034619D01*
X117015937Y-42034619D02*
X116920699Y-41987000D01*
X116920699Y-41987000D02*
X116873080Y-41891761D01*
X116873080Y-41891761D02*
X116873080Y-41510809D01*
X116873080Y-41510809D02*
X116920699Y-41415571D01*
X116920699Y-41415571D02*
X117015937Y-41367952D01*
X117015937Y-41367952D02*
X117206413Y-41367952D01*
X117206413Y-41367952D02*
X117301651Y-41415571D01*
X117301651Y-41415571D02*
X117349270Y-41510809D01*
X117349270Y-41510809D02*
X117349270Y-41606047D01*
X117349270Y-41606047D02*
X116873080Y-41701285D01*
X118206413Y-41367952D02*
X118206413Y-42177476D01*
X118206413Y-42177476D02*
X118158794Y-42272714D01*
X118158794Y-42272714D02*
X118111175Y-42320333D01*
X118111175Y-42320333D02*
X118015937Y-42367952D01*
X118015937Y-42367952D02*
X117873080Y-42367952D01*
X117873080Y-42367952D02*
X117777842Y-42320333D01*
X118206413Y-41987000D02*
X118111175Y-42034619D01*
X118111175Y-42034619D02*
X117920699Y-42034619D01*
X117920699Y-42034619D02*
X117825461Y-41987000D01*
X117825461Y-41987000D02*
X117777842Y-41939380D01*
X117777842Y-41939380D02*
X117730223Y-41844142D01*
X117730223Y-41844142D02*
X117730223Y-41558428D01*
X117730223Y-41558428D02*
X117777842Y-41463190D01*
X117777842Y-41463190D02*
X117825461Y-41415571D01*
X117825461Y-41415571D02*
X117920699Y-41367952D01*
X117920699Y-41367952D02*
X118111175Y-41367952D01*
X118111175Y-41367952D02*
X118206413Y-41415571D01*
X118682604Y-42034619D02*
X118682604Y-41034619D01*
X119111175Y-42034619D02*
X119111175Y-41510809D01*
X119111175Y-41510809D02*
X119063556Y-41415571D01*
X119063556Y-41415571D02*
X118968318Y-41367952D01*
X118968318Y-41367952D02*
X118825461Y-41367952D01*
X118825461Y-41367952D02*
X118730223Y-41415571D01*
X118730223Y-41415571D02*
X118682604Y-41463190D01*
X120349271Y-42034619D02*
X120349271Y-41034619D01*
X120349271Y-41415571D02*
X120444509Y-41367952D01*
X120444509Y-41367952D02*
X120634985Y-41367952D01*
X120634985Y-41367952D02*
X120730223Y-41415571D01*
X120730223Y-41415571D02*
X120777842Y-41463190D01*
X120777842Y-41463190D02*
X120825461Y-41558428D01*
X120825461Y-41558428D02*
X120825461Y-41844142D01*
X120825461Y-41844142D02*
X120777842Y-41939380D01*
X120777842Y-41939380D02*
X120730223Y-41987000D01*
X120730223Y-41987000D02*
X120634985Y-42034619D01*
X120634985Y-42034619D02*
X120444509Y-42034619D01*
X120444509Y-42034619D02*
X120349271Y-41987000D01*
X121158795Y-41367952D02*
X121396890Y-42034619D01*
X121634985Y-41367952D02*
X121396890Y-42034619D01*
X121396890Y-42034619D02*
X121301652Y-42272714D01*
X121301652Y-42272714D02*
X121254033Y-42320333D01*
X121254033Y-42320333D02*
X121158795Y-42367952D01*
X122777843Y-42034619D02*
X122777843Y-41034619D01*
X123254033Y-42034619D02*
X123254033Y-41367952D01*
X123254033Y-41463190D02*
X123301652Y-41415571D01*
X123301652Y-41415571D02*
X123396890Y-41367952D01*
X123396890Y-41367952D02*
X123539747Y-41367952D01*
X123539747Y-41367952D02*
X123634985Y-41415571D01*
X123634985Y-41415571D02*
X123682604Y-41510809D01*
X123682604Y-41510809D02*
X123682604Y-42034619D01*
X123682604Y-41510809D02*
X123730223Y-41415571D01*
X123730223Y-41415571D02*
X123825461Y-41367952D01*
X123825461Y-41367952D02*
X123968318Y-41367952D01*
X123968318Y-41367952D02*
X124063557Y-41415571D01*
X124063557Y-41415571D02*
X124111176Y-41510809D01*
X124111176Y-41510809D02*
X124111176Y-42034619D01*
X125015937Y-42034619D02*
X125015937Y-41510809D01*
X125015937Y-41510809D02*
X124968318Y-41415571D01*
X124968318Y-41415571D02*
X124873080Y-41367952D01*
X124873080Y-41367952D02*
X124682604Y-41367952D01*
X124682604Y-41367952D02*
X124587366Y-41415571D01*
X125015937Y-41987000D02*
X124920699Y-42034619D01*
X124920699Y-42034619D02*
X124682604Y-42034619D01*
X124682604Y-42034619D02*
X124587366Y-41987000D01*
X124587366Y-41987000D02*
X124539747Y-41891761D01*
X124539747Y-41891761D02*
X124539747Y-41796523D01*
X124539747Y-41796523D02*
X124587366Y-41701285D01*
X124587366Y-41701285D02*
X124682604Y-41653666D01*
X124682604Y-41653666D02*
X124920699Y-41653666D01*
X124920699Y-41653666D02*
X125015937Y-41606047D01*
X125492128Y-41367952D02*
X125492128Y-42034619D01*
X125492128Y-41463190D02*
X125539747Y-41415571D01*
X125539747Y-41415571D02*
X125634985Y-41367952D01*
X125634985Y-41367952D02*
X125777842Y-41367952D01*
X125777842Y-41367952D02*
X125873080Y-41415571D01*
X125873080Y-41415571D02*
X125920699Y-41510809D01*
X125920699Y-41510809D02*
X125920699Y-42034619D01*
X137950676Y-39180419D02*
X138284009Y-40180419D01*
X138284009Y-40180419D02*
X138617342Y-39180419D01*
X139474485Y-40180419D02*
X138903057Y-40180419D01*
X139188771Y-40180419D02*
X139188771Y-39180419D01*
X139188771Y-39180419D02*
X139093533Y-39323276D01*
X139093533Y-39323276D02*
X138998295Y-39418514D01*
X138998295Y-39418514D02*
X138903057Y-39466133D01*
X124401895Y-62660219D02*
X124401895Y-63469742D01*
X124401895Y-63469742D02*
X124449514Y-63564980D01*
X124449514Y-63564980D02*
X124497133Y-63612600D01*
X124497133Y-63612600D02*
X124592371Y-63660219D01*
X124592371Y-63660219D02*
X124782847Y-63660219D01*
X124782847Y-63660219D02*
X124878085Y-63612600D01*
X124878085Y-63612600D02*
X124925704Y-63564980D01*
X124925704Y-63564980D02*
X124973323Y-63469742D01*
X124973323Y-63469742D02*
X124973323Y-62660219D01*
X125354276Y-62660219D02*
X125973323Y-62660219D01*
X125973323Y-62660219D02*
X125639990Y-63041171D01*
X125639990Y-63041171D02*
X125782847Y-63041171D01*
X125782847Y-63041171D02*
X125878085Y-63088790D01*
X125878085Y-63088790D02*
X125925704Y-63136409D01*
X125925704Y-63136409D02*
X125973323Y-63231647D01*
X125973323Y-63231647D02*
X125973323Y-63469742D01*
X125973323Y-63469742D02*
X125925704Y-63564980D01*
X125925704Y-63564980D02*
X125878085Y-63612600D01*
X125878085Y-63612600D02*
X125782847Y-63660219D01*
X125782847Y-63660219D02*
X125497133Y-63660219D01*
X125497133Y-63660219D02*
X125401895Y-63612600D01*
X125401895Y-63612600D02*
X125354276Y-63564980D01*
X90245895Y-45606800D02*
X90388752Y-45654419D01*
X90388752Y-45654419D02*
X90626847Y-45654419D01*
X90626847Y-45654419D02*
X90722085Y-45606800D01*
X90722085Y-45606800D02*
X90769704Y-45559180D01*
X90769704Y-45559180D02*
X90817323Y-45463942D01*
X90817323Y-45463942D02*
X90817323Y-45368704D01*
X90817323Y-45368704D02*
X90769704Y-45273466D01*
X90769704Y-45273466D02*
X90722085Y-45225847D01*
X90722085Y-45225847D02*
X90626847Y-45178228D01*
X90626847Y-45178228D02*
X90436371Y-45130609D01*
X90436371Y-45130609D02*
X90341133Y-45082990D01*
X90341133Y-45082990D02*
X90293514Y-45035371D01*
X90293514Y-45035371D02*
X90245895Y-44940133D01*
X90245895Y-44940133D02*
X90245895Y-44844895D01*
X90245895Y-44844895D02*
X90293514Y-44749657D01*
X90293514Y-44749657D02*
X90341133Y-44702038D01*
X90341133Y-44702038D02*
X90436371Y-44654419D01*
X90436371Y-44654419D02*
X90674466Y-44654419D01*
X90674466Y-44654419D02*
X90817323Y-44702038D01*
X91769704Y-45654419D02*
X91198276Y-45654419D01*
X91483990Y-45654419D02*
X91483990Y-44654419D01*
X91483990Y-44654419D02*
X91388752Y-44797276D01*
X91388752Y-44797276D02*
X91293514Y-44892514D01*
X91293514Y-44892514D02*
X91198276Y-44940133D01*
X157190476Y-151304819D02*
X157190476Y-150304819D01*
X157190476Y-150304819D02*
X157523809Y-151019104D01*
X157523809Y-151019104D02*
X157857142Y-150304819D01*
X157857142Y-150304819D02*
X157857142Y-151304819D01*
X158285714Y-150400057D02*
X158333333Y-150352438D01*
X158333333Y-150352438D02*
X158428571Y-150304819D01*
X158428571Y-150304819D02*
X158666666Y-150304819D01*
X158666666Y-150304819D02*
X158761904Y-150352438D01*
X158761904Y-150352438D02*
X158809523Y-150400057D01*
X158809523Y-150400057D02*
X158857142Y-150495295D01*
X158857142Y-150495295D02*
X158857142Y-150590533D01*
X158857142Y-150590533D02*
X158809523Y-150733390D01*
X158809523Y-150733390D02*
X158238095Y-151304819D01*
X158238095Y-151304819D02*
X158857142Y-151304819D01*
X83190476Y-151304819D02*
X83190476Y-150304819D01*
X83190476Y-150304819D02*
X83523809Y-151019104D01*
X83523809Y-151019104D02*
X83857142Y-150304819D01*
X83857142Y-150304819D02*
X83857142Y-151304819D01*
X84285714Y-150400057D02*
X84333333Y-150352438D01*
X84333333Y-150352438D02*
X84428571Y-150304819D01*
X84428571Y-150304819D02*
X84666666Y-150304819D01*
X84666666Y-150304819D02*
X84761904Y-150352438D01*
X84761904Y-150352438D02*
X84809523Y-150400057D01*
X84809523Y-150400057D02*
X84857142Y-150495295D01*
X84857142Y-150495295D02*
X84857142Y-150590533D01*
X84857142Y-150590533D02*
X84809523Y-150733390D01*
X84809523Y-150733390D02*
X84238095Y-151304819D01*
X84238095Y-151304819D02*
X84857142Y-151304819D01*
X158063019Y-67832266D02*
X157586828Y-68165599D01*
X158063019Y-68403694D02*
X157063019Y-68403694D01*
X157063019Y-68403694D02*
X157063019Y-68022742D01*
X157063019Y-68022742D02*
X157110638Y-67927504D01*
X157110638Y-67927504D02*
X157158257Y-67879885D01*
X157158257Y-67879885D02*
X157253495Y-67832266D01*
X157253495Y-67832266D02*
X157396352Y-67832266D01*
X157396352Y-67832266D02*
X157491590Y-67879885D01*
X157491590Y-67879885D02*
X157539209Y-67927504D01*
X157539209Y-67927504D02*
X157586828Y-68022742D01*
X157586828Y-68022742D02*
X157586828Y-68403694D01*
X157396352Y-66975123D02*
X158063019Y-66975123D01*
X157015400Y-67213218D02*
X157729685Y-67451313D01*
X157729685Y-67451313D02*
X157729685Y-66832266D01*
X116692514Y-118331619D02*
X116692514Y-117331619D01*
X116692514Y-117331619D02*
X116930609Y-117331619D01*
X116930609Y-117331619D02*
X117073466Y-117379238D01*
X117073466Y-117379238D02*
X117168704Y-117474476D01*
X117168704Y-117474476D02*
X117216323Y-117569714D01*
X117216323Y-117569714D02*
X117263942Y-117760190D01*
X117263942Y-117760190D02*
X117263942Y-117903047D01*
X117263942Y-117903047D02*
X117216323Y-118093523D01*
X117216323Y-118093523D02*
X117168704Y-118188761D01*
X117168704Y-118188761D02*
X117073466Y-118284000D01*
X117073466Y-118284000D02*
X116930609Y-118331619D01*
X116930609Y-118331619D02*
X116692514Y-118331619D01*
X118216323Y-118331619D02*
X117644895Y-118331619D01*
X117930609Y-118331619D02*
X117930609Y-117331619D01*
X117930609Y-117331619D02*
X117835371Y-117474476D01*
X117835371Y-117474476D02*
X117740133Y-117569714D01*
X117740133Y-117569714D02*
X117644895Y-117617333D01*
X118835371Y-117331619D02*
X118930609Y-117331619D01*
X118930609Y-117331619D02*
X119025847Y-117379238D01*
X119025847Y-117379238D02*
X119073466Y-117426857D01*
X119073466Y-117426857D02*
X119121085Y-117522095D01*
X119121085Y-117522095D02*
X119168704Y-117712571D01*
X119168704Y-117712571D02*
X119168704Y-117950666D01*
X119168704Y-117950666D02*
X119121085Y-118141142D01*
X119121085Y-118141142D02*
X119073466Y-118236380D01*
X119073466Y-118236380D02*
X119025847Y-118284000D01*
X119025847Y-118284000D02*
X118930609Y-118331619D01*
X118930609Y-118331619D02*
X118835371Y-118331619D01*
X118835371Y-118331619D02*
X118740133Y-118284000D01*
X118740133Y-118284000D02*
X118692514Y-118236380D01*
X118692514Y-118236380D02*
X118644895Y-118141142D01*
X118644895Y-118141142D02*
X118597276Y-117950666D01*
X118597276Y-117950666D02*
X118597276Y-117712571D01*
X118597276Y-117712571D02*
X118644895Y-117522095D01*
X118644895Y-117522095D02*
X118692514Y-117426857D01*
X118692514Y-117426857D02*
X118740133Y-117379238D01*
X118740133Y-117379238D02*
X118835371Y-117331619D01*
X103700342Y-49122419D02*
X103367009Y-48646228D01*
X103128914Y-49122419D02*
X103128914Y-48122419D01*
X103128914Y-48122419D02*
X103509866Y-48122419D01*
X103509866Y-48122419D02*
X103605104Y-48170038D01*
X103605104Y-48170038D02*
X103652723Y-48217657D01*
X103652723Y-48217657D02*
X103700342Y-48312895D01*
X103700342Y-48312895D02*
X103700342Y-48455752D01*
X103700342Y-48455752D02*
X103652723Y-48550990D01*
X103652723Y-48550990D02*
X103605104Y-48598609D01*
X103605104Y-48598609D02*
X103509866Y-48646228D01*
X103509866Y-48646228D02*
X103128914Y-48646228D01*
X104652723Y-49122419D02*
X104081295Y-49122419D01*
X104367009Y-49122419D02*
X104367009Y-48122419D01*
X104367009Y-48122419D02*
X104271771Y-48265276D01*
X104271771Y-48265276D02*
X104176533Y-48360514D01*
X104176533Y-48360514D02*
X104081295Y-48408133D01*
X105271771Y-48122419D02*
X105367009Y-48122419D01*
X105367009Y-48122419D02*
X105462247Y-48170038D01*
X105462247Y-48170038D02*
X105509866Y-48217657D01*
X105509866Y-48217657D02*
X105557485Y-48312895D01*
X105557485Y-48312895D02*
X105605104Y-48503371D01*
X105605104Y-48503371D02*
X105605104Y-48741466D01*
X105605104Y-48741466D02*
X105557485Y-48931942D01*
X105557485Y-48931942D02*
X105509866Y-49027180D01*
X105509866Y-49027180D02*
X105462247Y-49074800D01*
X105462247Y-49074800D02*
X105367009Y-49122419D01*
X105367009Y-49122419D02*
X105271771Y-49122419D01*
X105271771Y-49122419D02*
X105176533Y-49074800D01*
X105176533Y-49074800D02*
X105128914Y-49027180D01*
X105128914Y-49027180D02*
X105081295Y-48931942D01*
X105081295Y-48931942D02*
X105033676Y-48741466D01*
X105033676Y-48741466D02*
X105033676Y-48503371D01*
X105033676Y-48503371D02*
X105081295Y-48312895D01*
X105081295Y-48312895D02*
X105128914Y-48217657D01*
X105128914Y-48217657D02*
X105176533Y-48170038D01*
X105176533Y-48170038D02*
X105271771Y-48122419D01*
X135361514Y-137356219D02*
X135361514Y-136356219D01*
X135361514Y-136356219D02*
X135599609Y-136356219D01*
X135599609Y-136356219D02*
X135742466Y-136403838D01*
X135742466Y-136403838D02*
X135837704Y-136499076D01*
X135837704Y-136499076D02*
X135885323Y-136594314D01*
X135885323Y-136594314D02*
X135932942Y-136784790D01*
X135932942Y-136784790D02*
X135932942Y-136927647D01*
X135932942Y-136927647D02*
X135885323Y-137118123D01*
X135885323Y-137118123D02*
X135837704Y-137213361D01*
X135837704Y-137213361D02*
X135742466Y-137308600D01*
X135742466Y-137308600D02*
X135599609Y-137356219D01*
X135599609Y-137356219D02*
X135361514Y-137356219D01*
X136885323Y-137356219D02*
X136313895Y-137356219D01*
X136599609Y-137356219D02*
X136599609Y-136356219D01*
X136599609Y-136356219D02*
X136504371Y-136499076D01*
X136504371Y-136499076D02*
X136409133Y-136594314D01*
X136409133Y-136594314D02*
X136313895Y-136641933D01*
X137218657Y-136356219D02*
X137837704Y-136356219D01*
X137837704Y-136356219D02*
X137504371Y-136737171D01*
X137504371Y-136737171D02*
X137647228Y-136737171D01*
X137647228Y-136737171D02*
X137742466Y-136784790D01*
X137742466Y-136784790D02*
X137790085Y-136832409D01*
X137790085Y-136832409D02*
X137837704Y-136927647D01*
X137837704Y-136927647D02*
X137837704Y-137165742D01*
X137837704Y-137165742D02*
X137790085Y-137260980D01*
X137790085Y-137260980D02*
X137742466Y-137308600D01*
X137742466Y-137308600D02*
X137647228Y-137356219D01*
X137647228Y-137356219D02*
X137361514Y-137356219D01*
X137361514Y-137356219D02*
X137266276Y-137308600D01*
X137266276Y-137308600D02*
X137218657Y-137260980D01*
X127537676Y-139002400D02*
X127680533Y-139050019D01*
X127680533Y-139050019D02*
X127918628Y-139050019D01*
X127918628Y-139050019D02*
X128013866Y-139002400D01*
X128013866Y-139002400D02*
X128061485Y-138954780D01*
X128061485Y-138954780D02*
X128109104Y-138859542D01*
X128109104Y-138859542D02*
X128109104Y-138764304D01*
X128109104Y-138764304D02*
X128061485Y-138669066D01*
X128061485Y-138669066D02*
X128013866Y-138621447D01*
X128013866Y-138621447D02*
X127918628Y-138573828D01*
X127918628Y-138573828D02*
X127728152Y-138526209D01*
X127728152Y-138526209D02*
X127632914Y-138478590D01*
X127632914Y-138478590D02*
X127585295Y-138430971D01*
X127585295Y-138430971D02*
X127537676Y-138335733D01*
X127537676Y-138335733D02*
X127537676Y-138240495D01*
X127537676Y-138240495D02*
X127585295Y-138145257D01*
X127585295Y-138145257D02*
X127632914Y-138097638D01*
X127632914Y-138097638D02*
X127728152Y-138050019D01*
X127728152Y-138050019D02*
X127966247Y-138050019D01*
X127966247Y-138050019D02*
X128109104Y-138097638D01*
X128442438Y-138050019D02*
X128680533Y-139050019D01*
X128680533Y-139050019D02*
X128871009Y-138335733D01*
X128871009Y-138335733D02*
X129061485Y-139050019D01*
X129061485Y-139050019D02*
X129299581Y-138050019D01*
X130204342Y-139050019D02*
X129632914Y-139050019D01*
X129918628Y-139050019D02*
X129918628Y-138050019D01*
X129918628Y-138050019D02*
X129823390Y-138192876D01*
X129823390Y-138192876D02*
X129728152Y-138288114D01*
X129728152Y-138288114D02*
X129632914Y-138335733D01*
X130537676Y-138050019D02*
X131156723Y-138050019D01*
X131156723Y-138050019D02*
X130823390Y-138430971D01*
X130823390Y-138430971D02*
X130966247Y-138430971D01*
X130966247Y-138430971D02*
X131061485Y-138478590D01*
X131061485Y-138478590D02*
X131109104Y-138526209D01*
X131109104Y-138526209D02*
X131156723Y-138621447D01*
X131156723Y-138621447D02*
X131156723Y-138859542D01*
X131156723Y-138859542D02*
X131109104Y-138954780D01*
X131109104Y-138954780D02*
X131061485Y-139002400D01*
X131061485Y-139002400D02*
X130966247Y-139050019D01*
X130966247Y-139050019D02*
X130680533Y-139050019D01*
X130680533Y-139050019D02*
X130585295Y-139002400D01*
X130585295Y-139002400D02*
X130537676Y-138954780D01*
X110645571Y-43894400D02*
X110788428Y-43942019D01*
X110788428Y-43942019D02*
X111026523Y-43942019D01*
X111026523Y-43942019D02*
X111121761Y-43894400D01*
X111121761Y-43894400D02*
X111169380Y-43846780D01*
X111169380Y-43846780D02*
X111216999Y-43751542D01*
X111216999Y-43751542D02*
X111216999Y-43656304D01*
X111216999Y-43656304D02*
X111169380Y-43561066D01*
X111169380Y-43561066D02*
X111121761Y-43513447D01*
X111121761Y-43513447D02*
X111026523Y-43465828D01*
X111026523Y-43465828D02*
X110836047Y-43418209D01*
X110836047Y-43418209D02*
X110740809Y-43370590D01*
X110740809Y-43370590D02*
X110693190Y-43322971D01*
X110693190Y-43322971D02*
X110645571Y-43227733D01*
X110645571Y-43227733D02*
X110645571Y-43132495D01*
X110645571Y-43132495D02*
X110693190Y-43037257D01*
X110693190Y-43037257D02*
X110740809Y-42989638D01*
X110740809Y-42989638D02*
X110836047Y-42942019D01*
X110836047Y-42942019D02*
X111074142Y-42942019D01*
X111074142Y-42942019D02*
X111216999Y-42989638D01*
X111550333Y-42942019D02*
X111788428Y-43942019D01*
X111788428Y-43942019D02*
X111978904Y-43227733D01*
X111978904Y-43227733D02*
X112169380Y-43942019D01*
X112169380Y-43942019D02*
X112407476Y-42942019D01*
X112550333Y-44037257D02*
X113312237Y-44037257D01*
X114121761Y-43942019D02*
X113788428Y-43465828D01*
X113550333Y-43942019D02*
X113550333Y-42942019D01*
X113550333Y-42942019D02*
X113931285Y-42942019D01*
X113931285Y-42942019D02*
X114026523Y-42989638D01*
X114026523Y-42989638D02*
X114074142Y-43037257D01*
X114074142Y-43037257D02*
X114121761Y-43132495D01*
X114121761Y-43132495D02*
X114121761Y-43275352D01*
X114121761Y-43275352D02*
X114074142Y-43370590D01*
X114074142Y-43370590D02*
X114026523Y-43418209D01*
X114026523Y-43418209D02*
X113931285Y-43465828D01*
X113931285Y-43465828D02*
X113550333Y-43465828D01*
X114502714Y-43894400D02*
X114645571Y-43942019D01*
X114645571Y-43942019D02*
X114883666Y-43942019D01*
X114883666Y-43942019D02*
X114978904Y-43894400D01*
X114978904Y-43894400D02*
X115026523Y-43846780D01*
X115026523Y-43846780D02*
X115074142Y-43751542D01*
X115074142Y-43751542D02*
X115074142Y-43656304D01*
X115074142Y-43656304D02*
X115026523Y-43561066D01*
X115026523Y-43561066D02*
X114978904Y-43513447D01*
X114978904Y-43513447D02*
X114883666Y-43465828D01*
X114883666Y-43465828D02*
X114693190Y-43418209D01*
X114693190Y-43418209D02*
X114597952Y-43370590D01*
X114597952Y-43370590D02*
X114550333Y-43322971D01*
X114550333Y-43322971D02*
X114502714Y-43227733D01*
X114502714Y-43227733D02*
X114502714Y-43132495D01*
X114502714Y-43132495D02*
X114550333Y-43037257D01*
X114550333Y-43037257D02*
X114597952Y-42989638D01*
X114597952Y-42989638D02*
X114693190Y-42942019D01*
X114693190Y-42942019D02*
X114931285Y-42942019D01*
X114931285Y-42942019D02*
X115074142Y-42989638D01*
X115359857Y-42942019D02*
X115931285Y-42942019D01*
X115645571Y-43942019D02*
X115645571Y-42942019D01*
X116788428Y-43942019D02*
X116217000Y-43942019D01*
X116502714Y-43942019D02*
X116502714Y-42942019D01*
X116502714Y-42942019D02*
X116407476Y-43084876D01*
X116407476Y-43084876D02*
X116312238Y-43180114D01*
X116312238Y-43180114D02*
X116217000Y-43227733D01*
X158063019Y-51347666D02*
X157586828Y-51680999D01*
X158063019Y-51919094D02*
X157063019Y-51919094D01*
X157063019Y-51919094D02*
X157063019Y-51538142D01*
X157063019Y-51538142D02*
X157110638Y-51442904D01*
X157110638Y-51442904D02*
X157158257Y-51395285D01*
X157158257Y-51395285D02*
X157253495Y-51347666D01*
X157253495Y-51347666D02*
X157396352Y-51347666D01*
X157396352Y-51347666D02*
X157491590Y-51395285D01*
X157491590Y-51395285D02*
X157539209Y-51442904D01*
X157539209Y-51442904D02*
X157586828Y-51538142D01*
X157586828Y-51538142D02*
X157586828Y-51919094D01*
X158063019Y-50395285D02*
X158063019Y-50966713D01*
X158063019Y-50680999D02*
X157063019Y-50680999D01*
X157063019Y-50680999D02*
X157205876Y-50776237D01*
X157205876Y-50776237D02*
X157301114Y-50871475D01*
X157301114Y-50871475D02*
X157348733Y-50966713D01*
X117225914Y-140032419D02*
X117225914Y-139032419D01*
X117225914Y-139032419D02*
X117464009Y-139032419D01*
X117464009Y-139032419D02*
X117606866Y-139080038D01*
X117606866Y-139080038D02*
X117702104Y-139175276D01*
X117702104Y-139175276D02*
X117749723Y-139270514D01*
X117749723Y-139270514D02*
X117797342Y-139460990D01*
X117797342Y-139460990D02*
X117797342Y-139603847D01*
X117797342Y-139603847D02*
X117749723Y-139794323D01*
X117749723Y-139794323D02*
X117702104Y-139889561D01*
X117702104Y-139889561D02*
X117606866Y-139984800D01*
X117606866Y-139984800D02*
X117464009Y-140032419D01*
X117464009Y-140032419D02*
X117225914Y-140032419D01*
X118749723Y-140032419D02*
X118178295Y-140032419D01*
X118464009Y-140032419D02*
X118464009Y-139032419D01*
X118464009Y-139032419D02*
X118368771Y-139175276D01*
X118368771Y-139175276D02*
X118273533Y-139270514D01*
X118273533Y-139270514D02*
X118178295Y-139318133D01*
X119130676Y-139127657D02*
X119178295Y-139080038D01*
X119178295Y-139080038D02*
X119273533Y-139032419D01*
X119273533Y-139032419D02*
X119511628Y-139032419D01*
X119511628Y-139032419D02*
X119606866Y-139080038D01*
X119606866Y-139080038D02*
X119654485Y-139127657D01*
X119654485Y-139127657D02*
X119702104Y-139222895D01*
X119702104Y-139222895D02*
X119702104Y-139318133D01*
X119702104Y-139318133D02*
X119654485Y-139460990D01*
X119654485Y-139460990D02*
X119083057Y-140032419D01*
X119083057Y-140032419D02*
X119702104Y-140032419D01*
X141173295Y-69203219D02*
X141173295Y-70012742D01*
X141173295Y-70012742D02*
X141220914Y-70107980D01*
X141220914Y-70107980D02*
X141268533Y-70155600D01*
X141268533Y-70155600D02*
X141363771Y-70203219D01*
X141363771Y-70203219D02*
X141554247Y-70203219D01*
X141554247Y-70203219D02*
X141649485Y-70155600D01*
X141649485Y-70155600D02*
X141697104Y-70107980D01*
X141697104Y-70107980D02*
X141744723Y-70012742D01*
X141744723Y-70012742D02*
X141744723Y-69203219D01*
X142744723Y-70203219D02*
X142173295Y-70203219D01*
X142459009Y-70203219D02*
X142459009Y-69203219D01*
X142459009Y-69203219D02*
X142363771Y-69346076D01*
X142363771Y-69346076D02*
X142268533Y-69441314D01*
X142268533Y-69441314D02*
X142173295Y-69488933D01*
X98412905Y-118133019D02*
X98412905Y-117133019D01*
X98412905Y-117133019D02*
X98651000Y-117133019D01*
X98651000Y-117133019D02*
X98793857Y-117180638D01*
X98793857Y-117180638D02*
X98889095Y-117275876D01*
X98889095Y-117275876D02*
X98936714Y-117371114D01*
X98936714Y-117371114D02*
X98984333Y-117561590D01*
X98984333Y-117561590D02*
X98984333Y-117704447D01*
X98984333Y-117704447D02*
X98936714Y-117894923D01*
X98936714Y-117894923D02*
X98889095Y-117990161D01*
X98889095Y-117990161D02*
X98793857Y-118085400D01*
X98793857Y-118085400D02*
X98651000Y-118133019D01*
X98651000Y-118133019D02*
X98412905Y-118133019D01*
X99460524Y-118133019D02*
X99651000Y-118133019D01*
X99651000Y-118133019D02*
X99746238Y-118085400D01*
X99746238Y-118085400D02*
X99793857Y-118037780D01*
X99793857Y-118037780D02*
X99889095Y-117894923D01*
X99889095Y-117894923D02*
X99936714Y-117704447D01*
X99936714Y-117704447D02*
X99936714Y-117323495D01*
X99936714Y-117323495D02*
X99889095Y-117228257D01*
X99889095Y-117228257D02*
X99841476Y-117180638D01*
X99841476Y-117180638D02*
X99746238Y-117133019D01*
X99746238Y-117133019D02*
X99555762Y-117133019D01*
X99555762Y-117133019D02*
X99460524Y-117180638D01*
X99460524Y-117180638D02*
X99412905Y-117228257D01*
X99412905Y-117228257D02*
X99365286Y-117323495D01*
X99365286Y-117323495D02*
X99365286Y-117561590D01*
X99365286Y-117561590D02*
X99412905Y-117656828D01*
X99412905Y-117656828D02*
X99460524Y-117704447D01*
X99460524Y-117704447D02*
X99555762Y-117752066D01*
X99555762Y-117752066D02*
X99746238Y-117752066D01*
X99746238Y-117752066D02*
X99841476Y-117704447D01*
X99841476Y-117704447D02*
X99889095Y-117656828D01*
X99889095Y-117656828D02*
X99936714Y-117561590D01*
X127537676Y-119952400D02*
X127680533Y-120000019D01*
X127680533Y-120000019D02*
X127918628Y-120000019D01*
X127918628Y-120000019D02*
X128013866Y-119952400D01*
X128013866Y-119952400D02*
X128061485Y-119904780D01*
X128061485Y-119904780D02*
X128109104Y-119809542D01*
X128109104Y-119809542D02*
X128109104Y-119714304D01*
X128109104Y-119714304D02*
X128061485Y-119619066D01*
X128061485Y-119619066D02*
X128013866Y-119571447D01*
X128013866Y-119571447D02*
X127918628Y-119523828D01*
X127918628Y-119523828D02*
X127728152Y-119476209D01*
X127728152Y-119476209D02*
X127632914Y-119428590D01*
X127632914Y-119428590D02*
X127585295Y-119380971D01*
X127585295Y-119380971D02*
X127537676Y-119285733D01*
X127537676Y-119285733D02*
X127537676Y-119190495D01*
X127537676Y-119190495D02*
X127585295Y-119095257D01*
X127585295Y-119095257D02*
X127632914Y-119047638D01*
X127632914Y-119047638D02*
X127728152Y-119000019D01*
X127728152Y-119000019D02*
X127966247Y-119000019D01*
X127966247Y-119000019D02*
X128109104Y-119047638D01*
X128442438Y-119000019D02*
X128680533Y-120000019D01*
X128680533Y-120000019D02*
X128871009Y-119285733D01*
X128871009Y-119285733D02*
X129061485Y-120000019D01*
X129061485Y-120000019D02*
X129299581Y-119000019D01*
X130204342Y-120000019D02*
X129632914Y-120000019D01*
X129918628Y-120000019D02*
X129918628Y-119000019D01*
X129918628Y-119000019D02*
X129823390Y-119142876D01*
X129823390Y-119142876D02*
X129728152Y-119238114D01*
X129728152Y-119238114D02*
X129632914Y-119285733D01*
X131156723Y-120000019D02*
X130585295Y-120000019D01*
X130871009Y-120000019D02*
X130871009Y-119000019D01*
X130871009Y-119000019D02*
X130775771Y-119142876D01*
X130775771Y-119142876D02*
X130680533Y-119238114D01*
X130680533Y-119238114D02*
X130585295Y-119285733D01*
X147063867Y-81852400D02*
X147206724Y-81900019D01*
X147206724Y-81900019D02*
X147444819Y-81900019D01*
X147444819Y-81900019D02*
X147540057Y-81852400D01*
X147540057Y-81852400D02*
X147587676Y-81804780D01*
X147587676Y-81804780D02*
X147635295Y-81709542D01*
X147635295Y-81709542D02*
X147635295Y-81614304D01*
X147635295Y-81614304D02*
X147587676Y-81519066D01*
X147587676Y-81519066D02*
X147540057Y-81471447D01*
X147540057Y-81471447D02*
X147444819Y-81423828D01*
X147444819Y-81423828D02*
X147254343Y-81376209D01*
X147254343Y-81376209D02*
X147159105Y-81328590D01*
X147159105Y-81328590D02*
X147111486Y-81280971D01*
X147111486Y-81280971D02*
X147063867Y-81185733D01*
X147063867Y-81185733D02*
X147063867Y-81090495D01*
X147063867Y-81090495D02*
X147111486Y-80995257D01*
X147111486Y-80995257D02*
X147159105Y-80947638D01*
X147159105Y-80947638D02*
X147254343Y-80900019D01*
X147254343Y-80900019D02*
X147492438Y-80900019D01*
X147492438Y-80900019D02*
X147635295Y-80947638D01*
X147968629Y-80900019D02*
X148206724Y-81900019D01*
X148206724Y-81900019D02*
X148397200Y-81185733D01*
X148397200Y-81185733D02*
X148587676Y-81900019D01*
X148587676Y-81900019D02*
X148825772Y-80900019D01*
X149635295Y-81233352D02*
X149635295Y-81900019D01*
X149397200Y-80852400D02*
X149159105Y-81566685D01*
X149159105Y-81566685D02*
X149778152Y-81566685D01*
X104176533Y-62152619D02*
X103843200Y-61676428D01*
X103605105Y-62152619D02*
X103605105Y-61152619D01*
X103605105Y-61152619D02*
X103986057Y-61152619D01*
X103986057Y-61152619D02*
X104081295Y-61200238D01*
X104081295Y-61200238D02*
X104128914Y-61247857D01*
X104128914Y-61247857D02*
X104176533Y-61343095D01*
X104176533Y-61343095D02*
X104176533Y-61485952D01*
X104176533Y-61485952D02*
X104128914Y-61581190D01*
X104128914Y-61581190D02*
X104081295Y-61628809D01*
X104081295Y-61628809D02*
X103986057Y-61676428D01*
X103986057Y-61676428D02*
X103605105Y-61676428D01*
X105033676Y-61152619D02*
X104843200Y-61152619D01*
X104843200Y-61152619D02*
X104747962Y-61200238D01*
X104747962Y-61200238D02*
X104700343Y-61247857D01*
X104700343Y-61247857D02*
X104605105Y-61390714D01*
X104605105Y-61390714D02*
X104557486Y-61581190D01*
X104557486Y-61581190D02*
X104557486Y-61962142D01*
X104557486Y-61962142D02*
X104605105Y-62057380D01*
X104605105Y-62057380D02*
X104652724Y-62105000D01*
X104652724Y-62105000D02*
X104747962Y-62152619D01*
X104747962Y-62152619D02*
X104938438Y-62152619D01*
X104938438Y-62152619D02*
X105033676Y-62105000D01*
X105033676Y-62105000D02*
X105081295Y-62057380D01*
X105081295Y-62057380D02*
X105128914Y-61962142D01*
X105128914Y-61962142D02*
X105128914Y-61724047D01*
X105128914Y-61724047D02*
X105081295Y-61628809D01*
X105081295Y-61628809D02*
X105033676Y-61581190D01*
X105033676Y-61581190D02*
X104938438Y-61533571D01*
X104938438Y-61533571D02*
X104747962Y-61533571D01*
X104747962Y-61533571D02*
X104652724Y-61581190D01*
X104652724Y-61581190D02*
X104605105Y-61628809D01*
X104605105Y-61628809D02*
X104557486Y-61724047D01*
X154582905Y-80434819D02*
X154582905Y-79434819D01*
X154582905Y-79434819D02*
X154821000Y-79434819D01*
X154821000Y-79434819D02*
X154963857Y-79482438D01*
X154963857Y-79482438D02*
X155059095Y-79577676D01*
X155059095Y-79577676D02*
X155106714Y-79672914D01*
X155106714Y-79672914D02*
X155154333Y-79863390D01*
X155154333Y-79863390D02*
X155154333Y-80006247D01*
X155154333Y-80006247D02*
X155106714Y-80196723D01*
X155106714Y-80196723D02*
X155059095Y-80291961D01*
X155059095Y-80291961D02*
X154963857Y-80387200D01*
X154963857Y-80387200D02*
X154821000Y-80434819D01*
X154821000Y-80434819D02*
X154582905Y-80434819D01*
X156011476Y-79768152D02*
X156011476Y-80434819D01*
X155773381Y-79387200D02*
X155535286Y-80101485D01*
X155535286Y-80101485D02*
X156154333Y-80101485D01*
X151890505Y-99434019D02*
X151890505Y-98434019D01*
X151890505Y-98434019D02*
X152128600Y-98434019D01*
X152128600Y-98434019D02*
X152271457Y-98481638D01*
X152271457Y-98481638D02*
X152366695Y-98576876D01*
X152366695Y-98576876D02*
X152414314Y-98672114D01*
X152414314Y-98672114D02*
X152461933Y-98862590D01*
X152461933Y-98862590D02*
X152461933Y-99005447D01*
X152461933Y-99005447D02*
X152414314Y-99195923D01*
X152414314Y-99195923D02*
X152366695Y-99291161D01*
X152366695Y-99291161D02*
X152271457Y-99386400D01*
X152271457Y-99386400D02*
X152128600Y-99434019D01*
X152128600Y-99434019D02*
X151890505Y-99434019D01*
X153033362Y-98862590D02*
X152938124Y-98814971D01*
X152938124Y-98814971D02*
X152890505Y-98767352D01*
X152890505Y-98767352D02*
X152842886Y-98672114D01*
X152842886Y-98672114D02*
X152842886Y-98624495D01*
X152842886Y-98624495D02*
X152890505Y-98529257D01*
X152890505Y-98529257D02*
X152938124Y-98481638D01*
X152938124Y-98481638D02*
X153033362Y-98434019D01*
X153033362Y-98434019D02*
X153223838Y-98434019D01*
X153223838Y-98434019D02*
X153319076Y-98481638D01*
X153319076Y-98481638D02*
X153366695Y-98529257D01*
X153366695Y-98529257D02*
X153414314Y-98624495D01*
X153414314Y-98624495D02*
X153414314Y-98672114D01*
X153414314Y-98672114D02*
X153366695Y-98767352D01*
X153366695Y-98767352D02*
X153319076Y-98814971D01*
X153319076Y-98814971D02*
X153223838Y-98862590D01*
X153223838Y-98862590D02*
X153033362Y-98862590D01*
X153033362Y-98862590D02*
X152938124Y-98910209D01*
X152938124Y-98910209D02*
X152890505Y-98957828D01*
X152890505Y-98957828D02*
X152842886Y-99053066D01*
X152842886Y-99053066D02*
X152842886Y-99243542D01*
X152842886Y-99243542D02*
X152890505Y-99338780D01*
X152890505Y-99338780D02*
X152938124Y-99386400D01*
X152938124Y-99386400D02*
X153033362Y-99434019D01*
X153033362Y-99434019D02*
X153223838Y-99434019D01*
X153223838Y-99434019D02*
X153319076Y-99386400D01*
X153319076Y-99386400D02*
X153366695Y-99338780D01*
X153366695Y-99338780D02*
X153414314Y-99243542D01*
X153414314Y-99243542D02*
X153414314Y-99053066D01*
X153414314Y-99053066D02*
X153366695Y-98957828D01*
X153366695Y-98957828D02*
X153319076Y-98910209D01*
X153319076Y-98910209D02*
X153223838Y-98862590D01*
X104176533Y-57809219D02*
X103843200Y-57333028D01*
X103605105Y-57809219D02*
X103605105Y-56809219D01*
X103605105Y-56809219D02*
X103986057Y-56809219D01*
X103986057Y-56809219D02*
X104081295Y-56856838D01*
X104081295Y-56856838D02*
X104128914Y-56904457D01*
X104128914Y-56904457D02*
X104176533Y-56999695D01*
X104176533Y-56999695D02*
X104176533Y-57142552D01*
X104176533Y-57142552D02*
X104128914Y-57237790D01*
X104128914Y-57237790D02*
X104081295Y-57285409D01*
X104081295Y-57285409D02*
X103986057Y-57333028D01*
X103986057Y-57333028D02*
X103605105Y-57333028D01*
X104747962Y-57237790D02*
X104652724Y-57190171D01*
X104652724Y-57190171D02*
X104605105Y-57142552D01*
X104605105Y-57142552D02*
X104557486Y-57047314D01*
X104557486Y-57047314D02*
X104557486Y-56999695D01*
X104557486Y-56999695D02*
X104605105Y-56904457D01*
X104605105Y-56904457D02*
X104652724Y-56856838D01*
X104652724Y-56856838D02*
X104747962Y-56809219D01*
X104747962Y-56809219D02*
X104938438Y-56809219D01*
X104938438Y-56809219D02*
X105033676Y-56856838D01*
X105033676Y-56856838D02*
X105081295Y-56904457D01*
X105081295Y-56904457D02*
X105128914Y-56999695D01*
X105128914Y-56999695D02*
X105128914Y-57047314D01*
X105128914Y-57047314D02*
X105081295Y-57142552D01*
X105081295Y-57142552D02*
X105033676Y-57190171D01*
X105033676Y-57190171D02*
X104938438Y-57237790D01*
X104938438Y-57237790D02*
X104747962Y-57237790D01*
X104747962Y-57237790D02*
X104652724Y-57285409D01*
X104652724Y-57285409D02*
X104605105Y-57333028D01*
X104605105Y-57333028D02*
X104557486Y-57428266D01*
X104557486Y-57428266D02*
X104557486Y-57618742D01*
X104557486Y-57618742D02*
X104605105Y-57713980D01*
X104605105Y-57713980D02*
X104652724Y-57761600D01*
X104652724Y-57761600D02*
X104747962Y-57809219D01*
X104747962Y-57809219D02*
X104938438Y-57809219D01*
X104938438Y-57809219D02*
X105033676Y-57761600D01*
X105033676Y-57761600D02*
X105081295Y-57713980D01*
X105081295Y-57713980D02*
X105128914Y-57618742D01*
X105128914Y-57618742D02*
X105128914Y-57428266D01*
X105128914Y-57428266D02*
X105081295Y-57333028D01*
X105081295Y-57333028D02*
X105033676Y-57285409D01*
X105033676Y-57285409D02*
X104938438Y-57237790D01*
X158063019Y-62337399D02*
X157586828Y-62670732D01*
X158063019Y-62908827D02*
X157063019Y-62908827D01*
X157063019Y-62908827D02*
X157063019Y-62527875D01*
X157063019Y-62527875D02*
X157110638Y-62432637D01*
X157110638Y-62432637D02*
X157158257Y-62385018D01*
X157158257Y-62385018D02*
X157253495Y-62337399D01*
X157253495Y-62337399D02*
X157396352Y-62337399D01*
X157396352Y-62337399D02*
X157491590Y-62385018D01*
X157491590Y-62385018D02*
X157539209Y-62432637D01*
X157539209Y-62432637D02*
X157586828Y-62527875D01*
X157586828Y-62527875D02*
X157586828Y-62908827D01*
X157063019Y-62004065D02*
X157063019Y-61385018D01*
X157063019Y-61385018D02*
X157443971Y-61718351D01*
X157443971Y-61718351D02*
X157443971Y-61575494D01*
X157443971Y-61575494D02*
X157491590Y-61480256D01*
X157491590Y-61480256D02*
X157539209Y-61432637D01*
X157539209Y-61432637D02*
X157634447Y-61385018D01*
X157634447Y-61385018D02*
X157872542Y-61385018D01*
X157872542Y-61385018D02*
X157967780Y-61432637D01*
X157967780Y-61432637D02*
X158015400Y-61480256D01*
X158015400Y-61480256D02*
X158063019Y-61575494D01*
X158063019Y-61575494D02*
X158063019Y-61861208D01*
X158063019Y-61861208D02*
X158015400Y-61956446D01*
X158015400Y-61956446D02*
X157967780Y-62004065D01*
X112937676Y-77446400D02*
X113080533Y-77494019D01*
X113080533Y-77494019D02*
X113318628Y-77494019D01*
X113318628Y-77494019D02*
X113413866Y-77446400D01*
X113413866Y-77446400D02*
X113461485Y-77398780D01*
X113461485Y-77398780D02*
X113509104Y-77303542D01*
X113509104Y-77303542D02*
X113509104Y-77208304D01*
X113509104Y-77208304D02*
X113461485Y-77113066D01*
X113461485Y-77113066D02*
X113413866Y-77065447D01*
X113413866Y-77065447D02*
X113318628Y-77017828D01*
X113318628Y-77017828D02*
X113128152Y-76970209D01*
X113128152Y-76970209D02*
X113032914Y-76922590D01*
X113032914Y-76922590D02*
X112985295Y-76874971D01*
X112985295Y-76874971D02*
X112937676Y-76779733D01*
X112937676Y-76779733D02*
X112937676Y-76684495D01*
X112937676Y-76684495D02*
X112985295Y-76589257D01*
X112985295Y-76589257D02*
X113032914Y-76541638D01*
X113032914Y-76541638D02*
X113128152Y-76494019D01*
X113128152Y-76494019D02*
X113366247Y-76494019D01*
X113366247Y-76494019D02*
X113509104Y-76541638D01*
X113842438Y-76494019D02*
X114080533Y-77494019D01*
X114080533Y-77494019D02*
X114271009Y-76779733D01*
X114271009Y-76779733D02*
X114461485Y-77494019D01*
X114461485Y-77494019D02*
X114699581Y-76494019D01*
X115604342Y-77494019D02*
X115032914Y-77494019D01*
X115318628Y-77494019D02*
X115318628Y-76494019D01*
X115318628Y-76494019D02*
X115223390Y-76636876D01*
X115223390Y-76636876D02*
X115128152Y-76732114D01*
X115128152Y-76732114D02*
X115032914Y-76779733D01*
X116509104Y-76494019D02*
X116032914Y-76494019D01*
X116032914Y-76494019D02*
X115985295Y-76970209D01*
X115985295Y-76970209D02*
X116032914Y-76922590D01*
X116032914Y-76922590D02*
X116128152Y-76874971D01*
X116128152Y-76874971D02*
X116366247Y-76874971D01*
X116366247Y-76874971D02*
X116461485Y-76922590D01*
X116461485Y-76922590D02*
X116509104Y-76970209D01*
X116509104Y-76970209D02*
X116556723Y-77065447D01*
X116556723Y-77065447D02*
X116556723Y-77303542D01*
X116556723Y-77303542D02*
X116509104Y-77398780D01*
X116509104Y-77398780D02*
X116461485Y-77446400D01*
X116461485Y-77446400D02*
X116366247Y-77494019D01*
X116366247Y-77494019D02*
X116128152Y-77494019D01*
X116128152Y-77494019D02*
X116032914Y-77446400D01*
X116032914Y-77446400D02*
X115985295Y-77398780D01*
X116722705Y-99210019D02*
X116722705Y-98210019D01*
X116722705Y-98210019D02*
X116960800Y-98210019D01*
X116960800Y-98210019D02*
X117103657Y-98257638D01*
X117103657Y-98257638D02*
X117198895Y-98352876D01*
X117198895Y-98352876D02*
X117246514Y-98448114D01*
X117246514Y-98448114D02*
X117294133Y-98638590D01*
X117294133Y-98638590D02*
X117294133Y-98781447D01*
X117294133Y-98781447D02*
X117246514Y-98971923D01*
X117246514Y-98971923D02*
X117198895Y-99067161D01*
X117198895Y-99067161D02*
X117103657Y-99162400D01*
X117103657Y-99162400D02*
X116960800Y-99210019D01*
X116960800Y-99210019D02*
X116722705Y-99210019D01*
X118151276Y-98210019D02*
X117960800Y-98210019D01*
X117960800Y-98210019D02*
X117865562Y-98257638D01*
X117865562Y-98257638D02*
X117817943Y-98305257D01*
X117817943Y-98305257D02*
X117722705Y-98448114D01*
X117722705Y-98448114D02*
X117675086Y-98638590D01*
X117675086Y-98638590D02*
X117675086Y-99019542D01*
X117675086Y-99019542D02*
X117722705Y-99114780D01*
X117722705Y-99114780D02*
X117770324Y-99162400D01*
X117770324Y-99162400D02*
X117865562Y-99210019D01*
X117865562Y-99210019D02*
X118056038Y-99210019D01*
X118056038Y-99210019D02*
X118151276Y-99162400D01*
X118151276Y-99162400D02*
X118198895Y-99114780D01*
X118198895Y-99114780D02*
X118246514Y-99019542D01*
X118246514Y-99019542D02*
X118246514Y-98781447D01*
X118246514Y-98781447D02*
X118198895Y-98686209D01*
X118198895Y-98686209D02*
X118151276Y-98638590D01*
X118151276Y-98638590D02*
X118056038Y-98590971D01*
X118056038Y-98590971D02*
X117865562Y-98590971D01*
X117865562Y-98590971D02*
X117770324Y-98638590D01*
X117770324Y-98638590D02*
X117722705Y-98686209D01*
X117722705Y-98686209D02*
X117675086Y-98781447D01*
X125803066Y-43244419D02*
X125803066Y-43958704D01*
X125803066Y-43958704D02*
X125755447Y-44101561D01*
X125755447Y-44101561D02*
X125660209Y-44196800D01*
X125660209Y-44196800D02*
X125517352Y-44244419D01*
X125517352Y-44244419D02*
X125422114Y-44244419D01*
X126803066Y-44244419D02*
X126231638Y-44244419D01*
X126517352Y-44244419D02*
X126517352Y-43244419D01*
X126517352Y-43244419D02*
X126422114Y-43387276D01*
X126422114Y-43387276D02*
X126326876Y-43482514D01*
X126326876Y-43482514D02*
X126231638Y-43530133D01*
X108963867Y-100902400D02*
X109106724Y-100950019D01*
X109106724Y-100950019D02*
X109344819Y-100950019D01*
X109344819Y-100950019D02*
X109440057Y-100902400D01*
X109440057Y-100902400D02*
X109487676Y-100854780D01*
X109487676Y-100854780D02*
X109535295Y-100759542D01*
X109535295Y-100759542D02*
X109535295Y-100664304D01*
X109535295Y-100664304D02*
X109487676Y-100569066D01*
X109487676Y-100569066D02*
X109440057Y-100521447D01*
X109440057Y-100521447D02*
X109344819Y-100473828D01*
X109344819Y-100473828D02*
X109154343Y-100426209D01*
X109154343Y-100426209D02*
X109059105Y-100378590D01*
X109059105Y-100378590D02*
X109011486Y-100330971D01*
X109011486Y-100330971D02*
X108963867Y-100235733D01*
X108963867Y-100235733D02*
X108963867Y-100140495D01*
X108963867Y-100140495D02*
X109011486Y-100045257D01*
X109011486Y-100045257D02*
X109059105Y-99997638D01*
X109059105Y-99997638D02*
X109154343Y-99950019D01*
X109154343Y-99950019D02*
X109392438Y-99950019D01*
X109392438Y-99950019D02*
X109535295Y-99997638D01*
X109868629Y-99950019D02*
X110106724Y-100950019D01*
X110106724Y-100950019D02*
X110297200Y-100235733D01*
X110297200Y-100235733D02*
X110487676Y-100950019D01*
X110487676Y-100950019D02*
X110725772Y-99950019D01*
X111535295Y-99950019D02*
X111344819Y-99950019D01*
X111344819Y-99950019D02*
X111249581Y-99997638D01*
X111249581Y-99997638D02*
X111201962Y-100045257D01*
X111201962Y-100045257D02*
X111106724Y-100188114D01*
X111106724Y-100188114D02*
X111059105Y-100378590D01*
X111059105Y-100378590D02*
X111059105Y-100759542D01*
X111059105Y-100759542D02*
X111106724Y-100854780D01*
X111106724Y-100854780D02*
X111154343Y-100902400D01*
X111154343Y-100902400D02*
X111249581Y-100950019D01*
X111249581Y-100950019D02*
X111440057Y-100950019D01*
X111440057Y-100950019D02*
X111535295Y-100902400D01*
X111535295Y-100902400D02*
X111582914Y-100854780D01*
X111582914Y-100854780D02*
X111630533Y-100759542D01*
X111630533Y-100759542D02*
X111630533Y-100521447D01*
X111630533Y-100521447D02*
X111582914Y-100426209D01*
X111582914Y-100426209D02*
X111535295Y-100378590D01*
X111535295Y-100378590D02*
X111440057Y-100330971D01*
X111440057Y-100330971D02*
X111249581Y-100330971D01*
X111249581Y-100330971D02*
X111154343Y-100378590D01*
X111154343Y-100378590D02*
X111106724Y-100426209D01*
X111106724Y-100426209D02*
X111059105Y-100521447D01*
X89903867Y-119952400D02*
X90046724Y-120000019D01*
X90046724Y-120000019D02*
X90284819Y-120000019D01*
X90284819Y-120000019D02*
X90380057Y-119952400D01*
X90380057Y-119952400D02*
X90427676Y-119904780D01*
X90427676Y-119904780D02*
X90475295Y-119809542D01*
X90475295Y-119809542D02*
X90475295Y-119714304D01*
X90475295Y-119714304D02*
X90427676Y-119619066D01*
X90427676Y-119619066D02*
X90380057Y-119571447D01*
X90380057Y-119571447D02*
X90284819Y-119523828D01*
X90284819Y-119523828D02*
X90094343Y-119476209D01*
X90094343Y-119476209D02*
X89999105Y-119428590D01*
X89999105Y-119428590D02*
X89951486Y-119380971D01*
X89951486Y-119380971D02*
X89903867Y-119285733D01*
X89903867Y-119285733D02*
X89903867Y-119190495D01*
X89903867Y-119190495D02*
X89951486Y-119095257D01*
X89951486Y-119095257D02*
X89999105Y-119047638D01*
X89999105Y-119047638D02*
X90094343Y-119000019D01*
X90094343Y-119000019D02*
X90332438Y-119000019D01*
X90332438Y-119000019D02*
X90475295Y-119047638D01*
X90808629Y-119000019D02*
X91046724Y-120000019D01*
X91046724Y-120000019D02*
X91237200Y-119285733D01*
X91237200Y-119285733D02*
X91427676Y-120000019D01*
X91427676Y-120000019D02*
X91665772Y-119000019D01*
X92094343Y-120000019D02*
X92284819Y-120000019D01*
X92284819Y-120000019D02*
X92380057Y-119952400D01*
X92380057Y-119952400D02*
X92427676Y-119904780D01*
X92427676Y-119904780D02*
X92522914Y-119761923D01*
X92522914Y-119761923D02*
X92570533Y-119571447D01*
X92570533Y-119571447D02*
X92570533Y-119190495D01*
X92570533Y-119190495D02*
X92522914Y-119095257D01*
X92522914Y-119095257D02*
X92475295Y-119047638D01*
X92475295Y-119047638D02*
X92380057Y-119000019D01*
X92380057Y-119000019D02*
X92189581Y-119000019D01*
X92189581Y-119000019D02*
X92094343Y-119047638D01*
X92094343Y-119047638D02*
X92046724Y-119095257D01*
X92046724Y-119095257D02*
X91999105Y-119190495D01*
X91999105Y-119190495D02*
X91999105Y-119428590D01*
X91999105Y-119428590D02*
X92046724Y-119523828D01*
X92046724Y-119523828D02*
X92094343Y-119571447D01*
X92094343Y-119571447D02*
X92189581Y-119619066D01*
X92189581Y-119619066D02*
X92380057Y-119619066D01*
X92380057Y-119619066D02*
X92475295Y-119571447D01*
X92475295Y-119571447D02*
X92522914Y-119523828D01*
X92522914Y-119523828D02*
X92570533Y-119428590D01*
X108963867Y-81852400D02*
X109106724Y-81900019D01*
X109106724Y-81900019D02*
X109344819Y-81900019D01*
X109344819Y-81900019D02*
X109440057Y-81852400D01*
X109440057Y-81852400D02*
X109487676Y-81804780D01*
X109487676Y-81804780D02*
X109535295Y-81709542D01*
X109535295Y-81709542D02*
X109535295Y-81614304D01*
X109535295Y-81614304D02*
X109487676Y-81519066D01*
X109487676Y-81519066D02*
X109440057Y-81471447D01*
X109440057Y-81471447D02*
X109344819Y-81423828D01*
X109344819Y-81423828D02*
X109154343Y-81376209D01*
X109154343Y-81376209D02*
X109059105Y-81328590D01*
X109059105Y-81328590D02*
X109011486Y-81280971D01*
X109011486Y-81280971D02*
X108963867Y-81185733D01*
X108963867Y-81185733D02*
X108963867Y-81090495D01*
X108963867Y-81090495D02*
X109011486Y-80995257D01*
X109011486Y-80995257D02*
X109059105Y-80947638D01*
X109059105Y-80947638D02*
X109154343Y-80900019D01*
X109154343Y-80900019D02*
X109392438Y-80900019D01*
X109392438Y-80900019D02*
X109535295Y-80947638D01*
X109868629Y-80900019D02*
X110106724Y-81900019D01*
X110106724Y-81900019D02*
X110297200Y-81185733D01*
X110297200Y-81185733D02*
X110487676Y-81900019D01*
X110487676Y-81900019D02*
X110725772Y-80900019D01*
X111059105Y-80995257D02*
X111106724Y-80947638D01*
X111106724Y-80947638D02*
X111201962Y-80900019D01*
X111201962Y-80900019D02*
X111440057Y-80900019D01*
X111440057Y-80900019D02*
X111535295Y-80947638D01*
X111535295Y-80947638D02*
X111582914Y-80995257D01*
X111582914Y-80995257D02*
X111630533Y-81090495D01*
X111630533Y-81090495D02*
X111630533Y-81185733D01*
X111630533Y-81185733D02*
X111582914Y-81328590D01*
X111582914Y-81328590D02*
X111011486Y-81900019D01*
X111011486Y-81900019D02*
X111630533Y-81900019D01*
X135285314Y-118306219D02*
X135285314Y-117306219D01*
X135285314Y-117306219D02*
X135523409Y-117306219D01*
X135523409Y-117306219D02*
X135666266Y-117353838D01*
X135666266Y-117353838D02*
X135761504Y-117449076D01*
X135761504Y-117449076D02*
X135809123Y-117544314D01*
X135809123Y-117544314D02*
X135856742Y-117734790D01*
X135856742Y-117734790D02*
X135856742Y-117877647D01*
X135856742Y-117877647D02*
X135809123Y-118068123D01*
X135809123Y-118068123D02*
X135761504Y-118163361D01*
X135761504Y-118163361D02*
X135666266Y-118258600D01*
X135666266Y-118258600D02*
X135523409Y-118306219D01*
X135523409Y-118306219D02*
X135285314Y-118306219D01*
X136809123Y-118306219D02*
X136237695Y-118306219D01*
X136523409Y-118306219D02*
X136523409Y-117306219D01*
X136523409Y-117306219D02*
X136428171Y-117449076D01*
X136428171Y-117449076D02*
X136332933Y-117544314D01*
X136332933Y-117544314D02*
X136237695Y-117591933D01*
X137761504Y-118306219D02*
X137190076Y-118306219D01*
X137475790Y-118306219D02*
X137475790Y-117306219D01*
X137475790Y-117306219D02*
X137380552Y-117449076D01*
X137380552Y-117449076D02*
X137285314Y-117544314D01*
X137285314Y-117544314D02*
X137190076Y-117591933D01*
X146587676Y-139002400D02*
X146730533Y-139050019D01*
X146730533Y-139050019D02*
X146968628Y-139050019D01*
X146968628Y-139050019D02*
X147063866Y-139002400D01*
X147063866Y-139002400D02*
X147111485Y-138954780D01*
X147111485Y-138954780D02*
X147159104Y-138859542D01*
X147159104Y-138859542D02*
X147159104Y-138764304D01*
X147159104Y-138764304D02*
X147111485Y-138669066D01*
X147111485Y-138669066D02*
X147063866Y-138621447D01*
X147063866Y-138621447D02*
X146968628Y-138573828D01*
X146968628Y-138573828D02*
X146778152Y-138526209D01*
X146778152Y-138526209D02*
X146682914Y-138478590D01*
X146682914Y-138478590D02*
X146635295Y-138430971D01*
X146635295Y-138430971D02*
X146587676Y-138335733D01*
X146587676Y-138335733D02*
X146587676Y-138240495D01*
X146587676Y-138240495D02*
X146635295Y-138145257D01*
X146635295Y-138145257D02*
X146682914Y-138097638D01*
X146682914Y-138097638D02*
X146778152Y-138050019D01*
X146778152Y-138050019D02*
X147016247Y-138050019D01*
X147016247Y-138050019D02*
X147159104Y-138097638D01*
X147492438Y-138050019D02*
X147730533Y-139050019D01*
X147730533Y-139050019D02*
X147921009Y-138335733D01*
X147921009Y-138335733D02*
X148111485Y-139050019D01*
X148111485Y-139050019D02*
X148349581Y-138050019D01*
X149254342Y-139050019D02*
X148682914Y-139050019D01*
X148968628Y-139050019D02*
X148968628Y-138050019D01*
X148968628Y-138050019D02*
X148873390Y-138192876D01*
X148873390Y-138192876D02*
X148778152Y-138288114D01*
X148778152Y-138288114D02*
X148682914Y-138335733D01*
X150111485Y-138383352D02*
X150111485Y-139050019D01*
X149873390Y-138002400D02*
X149635295Y-138716685D01*
X149635295Y-138716685D02*
X150254342Y-138716685D01*
X110221733Y-54098419D02*
X109888400Y-53622228D01*
X109650305Y-54098419D02*
X109650305Y-53098419D01*
X109650305Y-53098419D02*
X110031257Y-53098419D01*
X110031257Y-53098419D02*
X110126495Y-53146038D01*
X110126495Y-53146038D02*
X110174114Y-53193657D01*
X110174114Y-53193657D02*
X110221733Y-53288895D01*
X110221733Y-53288895D02*
X110221733Y-53431752D01*
X110221733Y-53431752D02*
X110174114Y-53526990D01*
X110174114Y-53526990D02*
X110126495Y-53574609D01*
X110126495Y-53574609D02*
X110031257Y-53622228D01*
X110031257Y-53622228D02*
X109650305Y-53622228D01*
X111126495Y-53098419D02*
X110650305Y-53098419D01*
X110650305Y-53098419D02*
X110602686Y-53574609D01*
X110602686Y-53574609D02*
X110650305Y-53526990D01*
X110650305Y-53526990D02*
X110745543Y-53479371D01*
X110745543Y-53479371D02*
X110983638Y-53479371D01*
X110983638Y-53479371D02*
X111078876Y-53526990D01*
X111078876Y-53526990D02*
X111126495Y-53574609D01*
X111126495Y-53574609D02*
X111174114Y-53669847D01*
X111174114Y-53669847D02*
X111174114Y-53907942D01*
X111174114Y-53907942D02*
X111126495Y-54003180D01*
X111126495Y-54003180D02*
X111078876Y-54050800D01*
X111078876Y-54050800D02*
X110983638Y-54098419D01*
X110983638Y-54098419D02*
X110745543Y-54098419D01*
X110745543Y-54098419D02*
X110650305Y-54050800D01*
X110650305Y-54050800D02*
X110602686Y-54003180D01*
X156678400Y-119227532D02*
X156726019Y-119084675D01*
X156726019Y-119084675D02*
X156726019Y-118846580D01*
X156726019Y-118846580D02*
X156678400Y-118751342D01*
X156678400Y-118751342D02*
X156630780Y-118703723D01*
X156630780Y-118703723D02*
X156535542Y-118656104D01*
X156535542Y-118656104D02*
X156440304Y-118656104D01*
X156440304Y-118656104D02*
X156345066Y-118703723D01*
X156345066Y-118703723D02*
X156297447Y-118751342D01*
X156297447Y-118751342D02*
X156249828Y-118846580D01*
X156249828Y-118846580D02*
X156202209Y-119037056D01*
X156202209Y-119037056D02*
X156154590Y-119132294D01*
X156154590Y-119132294D02*
X156106971Y-119179913D01*
X156106971Y-119179913D02*
X156011733Y-119227532D01*
X156011733Y-119227532D02*
X155916495Y-119227532D01*
X155916495Y-119227532D02*
X155821257Y-119179913D01*
X155821257Y-119179913D02*
X155773638Y-119132294D01*
X155773638Y-119132294D02*
X155726019Y-119037056D01*
X155726019Y-119037056D02*
X155726019Y-118798961D01*
X155726019Y-118798961D02*
X155773638Y-118656104D01*
X155726019Y-118322770D02*
X156726019Y-118084675D01*
X156726019Y-118084675D02*
X156011733Y-117894199D01*
X156011733Y-117894199D02*
X156726019Y-117703723D01*
X156726019Y-117703723D02*
X155726019Y-117465628D01*
X156154590Y-116941818D02*
X156106971Y-117037056D01*
X156106971Y-117037056D02*
X156059352Y-117084675D01*
X156059352Y-117084675D02*
X155964114Y-117132294D01*
X155964114Y-117132294D02*
X155916495Y-117132294D01*
X155916495Y-117132294D02*
X155821257Y-117084675D01*
X155821257Y-117084675D02*
X155773638Y-117037056D01*
X155773638Y-117037056D02*
X155726019Y-116941818D01*
X155726019Y-116941818D02*
X155726019Y-116751342D01*
X155726019Y-116751342D02*
X155773638Y-116656104D01*
X155773638Y-116656104D02*
X155821257Y-116608485D01*
X155821257Y-116608485D02*
X155916495Y-116560866D01*
X155916495Y-116560866D02*
X155964114Y-116560866D01*
X155964114Y-116560866D02*
X156059352Y-116608485D01*
X156059352Y-116608485D02*
X156106971Y-116656104D01*
X156106971Y-116656104D02*
X156154590Y-116751342D01*
X156154590Y-116751342D02*
X156154590Y-116941818D01*
X156154590Y-116941818D02*
X156202209Y-117037056D01*
X156202209Y-117037056D02*
X156249828Y-117084675D01*
X156249828Y-117084675D02*
X156345066Y-117132294D01*
X156345066Y-117132294D02*
X156535542Y-117132294D01*
X156535542Y-117132294D02*
X156630780Y-117084675D01*
X156630780Y-117084675D02*
X156678400Y-117037056D01*
X156678400Y-117037056D02*
X156726019Y-116941818D01*
X156726019Y-116941818D02*
X156726019Y-116751342D01*
X156726019Y-116751342D02*
X156678400Y-116656104D01*
X156678400Y-116656104D02*
X156630780Y-116608485D01*
X156630780Y-116608485D02*
X156535542Y-116560866D01*
X156535542Y-116560866D02*
X156345066Y-116560866D01*
X156345066Y-116560866D02*
X156249828Y-116608485D01*
X156249828Y-116608485D02*
X156202209Y-116656104D01*
X156202209Y-116656104D02*
X156154590Y-116751342D01*
X113130105Y-80434819D02*
X113130105Y-79434819D01*
X113130105Y-79434819D02*
X113368200Y-79434819D01*
X113368200Y-79434819D02*
X113511057Y-79482438D01*
X113511057Y-79482438D02*
X113606295Y-79577676D01*
X113606295Y-79577676D02*
X113653914Y-79672914D01*
X113653914Y-79672914D02*
X113701533Y-79863390D01*
X113701533Y-79863390D02*
X113701533Y-80006247D01*
X113701533Y-80006247D02*
X113653914Y-80196723D01*
X113653914Y-80196723D02*
X113606295Y-80291961D01*
X113606295Y-80291961D02*
X113511057Y-80387200D01*
X113511057Y-80387200D02*
X113368200Y-80434819D01*
X113368200Y-80434819D02*
X113130105Y-80434819D01*
X114082486Y-79530057D02*
X114130105Y-79482438D01*
X114130105Y-79482438D02*
X114225343Y-79434819D01*
X114225343Y-79434819D02*
X114463438Y-79434819D01*
X114463438Y-79434819D02*
X114558676Y-79482438D01*
X114558676Y-79482438D02*
X114606295Y-79530057D01*
X114606295Y-79530057D02*
X114653914Y-79625295D01*
X114653914Y-79625295D02*
X114653914Y-79720533D01*
X114653914Y-79720533D02*
X114606295Y-79863390D01*
X114606295Y-79863390D02*
X114034867Y-80434819D01*
X114034867Y-80434819D02*
X114653914Y-80434819D01*
X128013867Y-100902400D02*
X128156724Y-100950019D01*
X128156724Y-100950019D02*
X128394819Y-100950019D01*
X128394819Y-100950019D02*
X128490057Y-100902400D01*
X128490057Y-100902400D02*
X128537676Y-100854780D01*
X128537676Y-100854780D02*
X128585295Y-100759542D01*
X128585295Y-100759542D02*
X128585295Y-100664304D01*
X128585295Y-100664304D02*
X128537676Y-100569066D01*
X128537676Y-100569066D02*
X128490057Y-100521447D01*
X128490057Y-100521447D02*
X128394819Y-100473828D01*
X128394819Y-100473828D02*
X128204343Y-100426209D01*
X128204343Y-100426209D02*
X128109105Y-100378590D01*
X128109105Y-100378590D02*
X128061486Y-100330971D01*
X128061486Y-100330971D02*
X128013867Y-100235733D01*
X128013867Y-100235733D02*
X128013867Y-100140495D01*
X128013867Y-100140495D02*
X128061486Y-100045257D01*
X128061486Y-100045257D02*
X128109105Y-99997638D01*
X128109105Y-99997638D02*
X128204343Y-99950019D01*
X128204343Y-99950019D02*
X128442438Y-99950019D01*
X128442438Y-99950019D02*
X128585295Y-99997638D01*
X128918629Y-99950019D02*
X129156724Y-100950019D01*
X129156724Y-100950019D02*
X129347200Y-100235733D01*
X129347200Y-100235733D02*
X129537676Y-100950019D01*
X129537676Y-100950019D02*
X129775772Y-99950019D01*
X130061486Y-99950019D02*
X130728152Y-99950019D01*
X130728152Y-99950019D02*
X130299581Y-100950019D01*
X141120905Y-80434819D02*
X141120905Y-79434819D01*
X141120905Y-79434819D02*
X141359000Y-79434819D01*
X141359000Y-79434819D02*
X141501857Y-79482438D01*
X141501857Y-79482438D02*
X141597095Y-79577676D01*
X141597095Y-79577676D02*
X141644714Y-79672914D01*
X141644714Y-79672914D02*
X141692333Y-79863390D01*
X141692333Y-79863390D02*
X141692333Y-80006247D01*
X141692333Y-80006247D02*
X141644714Y-80196723D01*
X141644714Y-80196723D02*
X141597095Y-80291961D01*
X141597095Y-80291961D02*
X141501857Y-80387200D01*
X141501857Y-80387200D02*
X141359000Y-80434819D01*
X141359000Y-80434819D02*
X141120905Y-80434819D01*
X142025667Y-79434819D02*
X142644714Y-79434819D01*
X142644714Y-79434819D02*
X142311381Y-79815771D01*
X142311381Y-79815771D02*
X142454238Y-79815771D01*
X142454238Y-79815771D02*
X142549476Y-79863390D01*
X142549476Y-79863390D02*
X142597095Y-79911009D01*
X142597095Y-79911009D02*
X142644714Y-80006247D01*
X142644714Y-80006247D02*
X142644714Y-80244342D01*
X142644714Y-80244342D02*
X142597095Y-80339580D01*
X142597095Y-80339580D02*
X142549476Y-80387200D01*
X142549476Y-80387200D02*
X142454238Y-80434819D01*
X142454238Y-80434819D02*
X142168524Y-80434819D01*
X142168524Y-80434819D02*
X142073286Y-80387200D01*
X142073286Y-80387200D02*
X142025667Y-80339580D01*
D11*
X92976271Y-39764256D02*
X93595318Y-39764256D01*
X92852461Y-40135684D02*
X93285794Y-38835684D01*
X93285794Y-38835684D02*
X93719128Y-40135684D01*
X94152461Y-40135684D02*
X94152461Y-39269018D01*
X94152461Y-39516637D02*
X94214366Y-39392827D01*
X94214366Y-39392827D02*
X94276271Y-39330922D01*
X94276271Y-39330922D02*
X94400080Y-39269018D01*
X94400080Y-39269018D02*
X94523890Y-39269018D01*
X95514366Y-40135684D02*
X95514366Y-38835684D01*
X95514366Y-40073780D02*
X95390557Y-40135684D01*
X95390557Y-40135684D02*
X95142938Y-40135684D01*
X95142938Y-40135684D02*
X95019128Y-40073780D01*
X95019128Y-40073780D02*
X94957223Y-40011875D01*
X94957223Y-40011875D02*
X94895319Y-39888065D01*
X94895319Y-39888065D02*
X94895319Y-39516637D01*
X94895319Y-39516637D02*
X94957223Y-39392827D01*
X94957223Y-39392827D02*
X95019128Y-39330922D01*
X95019128Y-39330922D02*
X95142938Y-39269018D01*
X95142938Y-39269018D02*
X95390557Y-39269018D01*
X95390557Y-39269018D02*
X95514366Y-39330922D01*
X96690556Y-39269018D02*
X96690556Y-40135684D01*
X96133413Y-39269018D02*
X96133413Y-39949970D01*
X96133413Y-39949970D02*
X96195318Y-40073780D01*
X96195318Y-40073780D02*
X96319128Y-40135684D01*
X96319128Y-40135684D02*
X96504842Y-40135684D01*
X96504842Y-40135684D02*
X96628651Y-40073780D01*
X96628651Y-40073780D02*
X96690556Y-40011875D01*
X97309603Y-40135684D02*
X97309603Y-39269018D01*
X97309603Y-38835684D02*
X97247699Y-38897589D01*
X97247699Y-38897589D02*
X97309603Y-38959494D01*
X97309603Y-38959494D02*
X97371508Y-38897589D01*
X97371508Y-38897589D02*
X97309603Y-38835684D01*
X97309603Y-38835684D02*
X97309603Y-38959494D01*
X97928651Y-39269018D02*
X97928651Y-40135684D01*
X97928651Y-39392827D02*
X97990556Y-39330922D01*
X97990556Y-39330922D02*
X98114366Y-39269018D01*
X98114366Y-39269018D02*
X98300080Y-39269018D01*
X98300080Y-39269018D02*
X98423889Y-39330922D01*
X98423889Y-39330922D02*
X98485794Y-39454732D01*
X98485794Y-39454732D02*
X98485794Y-40135684D01*
X99290556Y-40135684D02*
X99166746Y-40073780D01*
X99166746Y-40073780D02*
X99104841Y-40011875D01*
X99104841Y-40011875D02*
X99042937Y-39888065D01*
X99042937Y-39888065D02*
X99042937Y-39516637D01*
X99042937Y-39516637D02*
X99104841Y-39392827D01*
X99104841Y-39392827D02*
X99166746Y-39330922D01*
X99166746Y-39330922D02*
X99290556Y-39269018D01*
X99290556Y-39269018D02*
X99476270Y-39269018D01*
X99476270Y-39269018D02*
X99600079Y-39330922D01*
X99600079Y-39330922D02*
X99661984Y-39392827D01*
X99661984Y-39392827D02*
X99723889Y-39516637D01*
X99723889Y-39516637D02*
X99723889Y-39888065D01*
X99723889Y-39888065D02*
X99661984Y-40011875D01*
X99661984Y-40011875D02*
X99600079Y-40073780D01*
X99600079Y-40073780D02*
X99476270Y-40135684D01*
X99476270Y-40135684D02*
X99290556Y-40135684D01*
X101271507Y-40135684D02*
X101271507Y-38835684D01*
X101271507Y-38835684D02*
X101766745Y-38835684D01*
X101766745Y-38835684D02*
X101890555Y-38897589D01*
X101890555Y-38897589D02*
X101952460Y-38959494D01*
X101952460Y-38959494D02*
X102014364Y-39083303D01*
X102014364Y-39083303D02*
X102014364Y-39269018D01*
X102014364Y-39269018D02*
X101952460Y-39392827D01*
X101952460Y-39392827D02*
X101890555Y-39454732D01*
X101890555Y-39454732D02*
X101766745Y-39516637D01*
X101766745Y-39516637D02*
X101271507Y-39516637D01*
X102571507Y-40135684D02*
X102571507Y-39269018D01*
X102571507Y-39516637D02*
X102633412Y-39392827D01*
X102633412Y-39392827D02*
X102695317Y-39330922D01*
X102695317Y-39330922D02*
X102819126Y-39269018D01*
X102819126Y-39269018D02*
X102942936Y-39269018D01*
X103561984Y-40135684D02*
X103438174Y-40073780D01*
X103438174Y-40073780D02*
X103376269Y-40011875D01*
X103376269Y-40011875D02*
X103314365Y-39888065D01*
X103314365Y-39888065D02*
X103314365Y-39516637D01*
X103314365Y-39516637D02*
X103376269Y-39392827D01*
X103376269Y-39392827D02*
X103438174Y-39330922D01*
X103438174Y-39330922D02*
X103561984Y-39269018D01*
X103561984Y-39269018D02*
X103747698Y-39269018D01*
X103747698Y-39269018D02*
X103871507Y-39330922D01*
X103871507Y-39330922D02*
X103933412Y-39392827D01*
X103933412Y-39392827D02*
X103995317Y-39516637D01*
X103995317Y-39516637D02*
X103995317Y-39888065D01*
X103995317Y-39888065D02*
X103933412Y-40011875D01*
X103933412Y-40011875D02*
X103871507Y-40073780D01*
X103871507Y-40073780D02*
X103747698Y-40135684D01*
X103747698Y-40135684D02*
X103561984Y-40135684D01*
X105542935Y-40135684D02*
X105542935Y-38835684D01*
X105542935Y-38835684D02*
X105976269Y-39764256D01*
X105976269Y-39764256D02*
X106409602Y-38835684D01*
X106409602Y-38835684D02*
X106409602Y-40135684D01*
X107028649Y-40135684D02*
X107028649Y-39269018D01*
X107028649Y-38835684D02*
X106966745Y-38897589D01*
X106966745Y-38897589D02*
X107028649Y-38959494D01*
X107028649Y-38959494D02*
X107090554Y-38897589D01*
X107090554Y-38897589D02*
X107028649Y-38835684D01*
X107028649Y-38835684D02*
X107028649Y-38959494D01*
X108204840Y-40073780D02*
X108081031Y-40135684D01*
X108081031Y-40135684D02*
X107833412Y-40135684D01*
X107833412Y-40135684D02*
X107709602Y-40073780D01*
X107709602Y-40073780D02*
X107647697Y-40011875D01*
X107647697Y-40011875D02*
X107585793Y-39888065D01*
X107585793Y-39888065D02*
X107585793Y-39516637D01*
X107585793Y-39516637D02*
X107647697Y-39392827D01*
X107647697Y-39392827D02*
X107709602Y-39330922D01*
X107709602Y-39330922D02*
X107833412Y-39269018D01*
X107833412Y-39269018D02*
X108081031Y-39269018D01*
X108081031Y-39269018D02*
X108204840Y-39330922D01*
X108761983Y-40135684D02*
X108761983Y-39269018D01*
X108761983Y-39516637D02*
X108823888Y-39392827D01*
X108823888Y-39392827D02*
X108885793Y-39330922D01*
X108885793Y-39330922D02*
X109009602Y-39269018D01*
X109009602Y-39269018D02*
X109133412Y-39269018D01*
X109752460Y-40135684D02*
X109628650Y-40073780D01*
X109628650Y-40073780D02*
X109566745Y-40011875D01*
X109566745Y-40011875D02*
X109504841Y-39888065D01*
X109504841Y-39888065D02*
X109504841Y-39516637D01*
X109504841Y-39516637D02*
X109566745Y-39392827D01*
X109566745Y-39392827D02*
X109628650Y-39330922D01*
X109628650Y-39330922D02*
X109752460Y-39269018D01*
X109752460Y-39269018D02*
X109938174Y-39269018D01*
X109938174Y-39269018D02*
X110061983Y-39330922D01*
X110061983Y-39330922D02*
X110123888Y-39392827D01*
X110123888Y-39392827D02*
X110185793Y-39516637D01*
X110185793Y-39516637D02*
X110185793Y-39888065D01*
X110185793Y-39888065D02*
X110123888Y-40011875D01*
X110123888Y-40011875D02*
X110061983Y-40073780D01*
X110061983Y-40073780D02*
X109938174Y-40135684D01*
X109938174Y-40135684D02*
X109752460Y-40135684D01*
X111733411Y-39640446D02*
X112723888Y-39640446D01*
X114333411Y-40135684D02*
X114333411Y-38835684D01*
X114333411Y-38835684D02*
X114766745Y-39764256D01*
X114766745Y-39764256D02*
X115200078Y-38835684D01*
X115200078Y-38835684D02*
X115200078Y-40135684D01*
X116376268Y-40135684D02*
X116376268Y-39454732D01*
X116376268Y-39454732D02*
X116314363Y-39330922D01*
X116314363Y-39330922D02*
X116190554Y-39269018D01*
X116190554Y-39269018D02*
X115942935Y-39269018D01*
X115942935Y-39269018D02*
X115819125Y-39330922D01*
X116376268Y-40073780D02*
X116252459Y-40135684D01*
X116252459Y-40135684D02*
X115942935Y-40135684D01*
X115942935Y-40135684D02*
X115819125Y-40073780D01*
X115819125Y-40073780D02*
X115757221Y-39949970D01*
X115757221Y-39949970D02*
X115757221Y-39826160D01*
X115757221Y-39826160D02*
X115819125Y-39702351D01*
X115819125Y-39702351D02*
X115942935Y-39640446D01*
X115942935Y-39640446D02*
X116252459Y-39640446D01*
X116252459Y-39640446D02*
X116376268Y-39578541D01*
X117552458Y-40073780D02*
X117428649Y-40135684D01*
X117428649Y-40135684D02*
X117181030Y-40135684D01*
X117181030Y-40135684D02*
X117057220Y-40073780D01*
X117057220Y-40073780D02*
X116995315Y-40011875D01*
X116995315Y-40011875D02*
X116933411Y-39888065D01*
X116933411Y-39888065D02*
X116933411Y-39516637D01*
X116933411Y-39516637D02*
X116995315Y-39392827D01*
X116995315Y-39392827D02*
X117057220Y-39330922D01*
X117057220Y-39330922D02*
X117181030Y-39269018D01*
X117181030Y-39269018D02*
X117428649Y-39269018D01*
X117428649Y-39269018D02*
X117552458Y-39330922D01*
X118109601Y-40135684D02*
X118109601Y-39269018D01*
X118109601Y-39516637D02*
X118171506Y-39392827D01*
X118171506Y-39392827D02*
X118233411Y-39330922D01*
X118233411Y-39330922D02*
X118357220Y-39269018D01*
X118357220Y-39269018D02*
X118481030Y-39269018D01*
X119100078Y-40135684D02*
X118976268Y-40073780D01*
X118976268Y-40073780D02*
X118914363Y-40011875D01*
X118914363Y-40011875D02*
X118852459Y-39888065D01*
X118852459Y-39888065D02*
X118852459Y-39516637D01*
X118852459Y-39516637D02*
X118914363Y-39392827D01*
X118914363Y-39392827D02*
X118976268Y-39330922D01*
X118976268Y-39330922D02*
X119100078Y-39269018D01*
X119100078Y-39269018D02*
X119285792Y-39269018D01*
X119285792Y-39269018D02*
X119409601Y-39330922D01*
X119409601Y-39330922D02*
X119471506Y-39392827D01*
X119471506Y-39392827D02*
X119533411Y-39516637D01*
X119533411Y-39516637D02*
X119533411Y-39888065D01*
X119533411Y-39888065D02*
X119471506Y-40011875D01*
X119471506Y-40011875D02*
X119409601Y-40073780D01*
X119409601Y-40073780D02*
X119285792Y-40135684D01*
X119285792Y-40135684D02*
X119100078Y-40135684D01*
X121081029Y-40135684D02*
X121081029Y-38835684D01*
X121823886Y-40135684D02*
X121266744Y-39392827D01*
X121823886Y-38835684D02*
X121081029Y-39578541D01*
X122876267Y-40073780D02*
X122752458Y-40135684D01*
X122752458Y-40135684D02*
X122504839Y-40135684D01*
X122504839Y-40135684D02*
X122381029Y-40073780D01*
X122381029Y-40073780D02*
X122319125Y-39949970D01*
X122319125Y-39949970D02*
X122319125Y-39454732D01*
X122319125Y-39454732D02*
X122381029Y-39330922D01*
X122381029Y-39330922D02*
X122504839Y-39269018D01*
X122504839Y-39269018D02*
X122752458Y-39269018D01*
X122752458Y-39269018D02*
X122876267Y-39330922D01*
X122876267Y-39330922D02*
X122938172Y-39454732D01*
X122938172Y-39454732D02*
X122938172Y-39578541D01*
X122938172Y-39578541D02*
X122319125Y-39702351D01*
X123371506Y-39269018D02*
X123681030Y-40135684D01*
X123990553Y-39269018D02*
X123681030Y-40135684D01*
X123681030Y-40135684D02*
X123557220Y-40445208D01*
X123557220Y-40445208D02*
X123495315Y-40507113D01*
X123495315Y-40507113D02*
X123371506Y-40569018D01*
X124485791Y-40135684D02*
X124485791Y-38835684D01*
X124485791Y-39330922D02*
X124609601Y-39269018D01*
X124609601Y-39269018D02*
X124857220Y-39269018D01*
X124857220Y-39269018D02*
X124981029Y-39330922D01*
X124981029Y-39330922D02*
X125042934Y-39392827D01*
X125042934Y-39392827D02*
X125104839Y-39516637D01*
X125104839Y-39516637D02*
X125104839Y-39888065D01*
X125104839Y-39888065D02*
X125042934Y-40011875D01*
X125042934Y-40011875D02*
X124981029Y-40073780D01*
X124981029Y-40073780D02*
X124857220Y-40135684D01*
X124857220Y-40135684D02*
X124609601Y-40135684D01*
X124609601Y-40135684D02*
X124485791Y-40073780D01*
X125847696Y-40135684D02*
X125723886Y-40073780D01*
X125723886Y-40073780D02*
X125661981Y-40011875D01*
X125661981Y-40011875D02*
X125600077Y-39888065D01*
X125600077Y-39888065D02*
X125600077Y-39516637D01*
X125600077Y-39516637D02*
X125661981Y-39392827D01*
X125661981Y-39392827D02*
X125723886Y-39330922D01*
X125723886Y-39330922D02*
X125847696Y-39269018D01*
X125847696Y-39269018D02*
X126033410Y-39269018D01*
X126033410Y-39269018D02*
X126157219Y-39330922D01*
X126157219Y-39330922D02*
X126219124Y-39392827D01*
X126219124Y-39392827D02*
X126281029Y-39516637D01*
X126281029Y-39516637D02*
X126281029Y-39888065D01*
X126281029Y-39888065D02*
X126219124Y-40011875D01*
X126219124Y-40011875D02*
X126157219Y-40073780D01*
X126157219Y-40073780D02*
X126033410Y-40135684D01*
X126033410Y-40135684D02*
X125847696Y-40135684D01*
X127395314Y-40135684D02*
X127395314Y-39454732D01*
X127395314Y-39454732D02*
X127333409Y-39330922D01*
X127333409Y-39330922D02*
X127209600Y-39269018D01*
X127209600Y-39269018D02*
X126961981Y-39269018D01*
X126961981Y-39269018D02*
X126838171Y-39330922D01*
X127395314Y-40073780D02*
X127271505Y-40135684D01*
X127271505Y-40135684D02*
X126961981Y-40135684D01*
X126961981Y-40135684D02*
X126838171Y-40073780D01*
X126838171Y-40073780D02*
X126776267Y-39949970D01*
X126776267Y-39949970D02*
X126776267Y-39826160D01*
X126776267Y-39826160D02*
X126838171Y-39702351D01*
X126838171Y-39702351D02*
X126961981Y-39640446D01*
X126961981Y-39640446D02*
X127271505Y-39640446D01*
X127271505Y-39640446D02*
X127395314Y-39578541D01*
X128014361Y-40135684D02*
X128014361Y-39269018D01*
X128014361Y-39516637D02*
X128076266Y-39392827D01*
X128076266Y-39392827D02*
X128138171Y-39330922D01*
X128138171Y-39330922D02*
X128261980Y-39269018D01*
X128261980Y-39269018D02*
X128385790Y-39269018D01*
X129376266Y-40135684D02*
X129376266Y-38835684D01*
X129376266Y-40073780D02*
X129252457Y-40135684D01*
X129252457Y-40135684D02*
X129004838Y-40135684D01*
X129004838Y-40135684D02*
X128881028Y-40073780D01*
X128881028Y-40073780D02*
X128819123Y-40011875D01*
X128819123Y-40011875D02*
X128757219Y-39888065D01*
X128757219Y-39888065D02*
X128757219Y-39516637D01*
X128757219Y-39516637D02*
X128819123Y-39392827D01*
X128819123Y-39392827D02*
X128881028Y-39330922D01*
X128881028Y-39330922D02*
X129004838Y-39269018D01*
X129004838Y-39269018D02*
X129252457Y-39269018D01*
X129252457Y-39269018D02*
X129376266Y-39330922D01*
D10*
X87141876Y-40454819D02*
X87141876Y-39454819D01*
X87141876Y-39454819D02*
X87475209Y-40169104D01*
X87475209Y-40169104D02*
X87808542Y-39454819D01*
X87808542Y-39454819D02*
X87808542Y-40454819D01*
X88237114Y-39550057D02*
X88284733Y-39502438D01*
X88284733Y-39502438D02*
X88379971Y-39454819D01*
X88379971Y-39454819D02*
X88618066Y-39454819D01*
X88618066Y-39454819D02*
X88713304Y-39502438D01*
X88713304Y-39502438D02*
X88760923Y-39550057D01*
X88760923Y-39550057D02*
X88808542Y-39645295D01*
X88808542Y-39645295D02*
X88808542Y-39740533D01*
X88808542Y-39740533D02*
X88760923Y-39883390D01*
X88760923Y-39883390D02*
X88189495Y-40454819D01*
X88189495Y-40454819D02*
X88808542Y-40454819D01*
X158315819Y-56777033D02*
X157839628Y-57110366D01*
X158315819Y-57348461D02*
X157315819Y-57348461D01*
X157315819Y-57348461D02*
X157315819Y-56967509D01*
X157315819Y-56967509D02*
X157363438Y-56872271D01*
X157363438Y-56872271D02*
X157411057Y-56824652D01*
X157411057Y-56824652D02*
X157506295Y-56777033D01*
X157506295Y-56777033D02*
X157649152Y-56777033D01*
X157649152Y-56777033D02*
X157744390Y-56824652D01*
X157744390Y-56824652D02*
X157792009Y-56872271D01*
X157792009Y-56872271D02*
X157839628Y-56967509D01*
X157839628Y-56967509D02*
X157839628Y-57348461D01*
X157411057Y-56396080D02*
X157363438Y-56348461D01*
X157363438Y-56348461D02*
X157315819Y-56253223D01*
X157315819Y-56253223D02*
X157315819Y-56015128D01*
X157315819Y-56015128D02*
X157363438Y-55919890D01*
X157363438Y-55919890D02*
X157411057Y-55872271D01*
X157411057Y-55872271D02*
X157506295Y-55824652D01*
X157506295Y-55824652D02*
X157601533Y-55824652D01*
X157601533Y-55824652D02*
X157744390Y-55872271D01*
X157744390Y-55872271D02*
X158315819Y-56443699D01*
X158315819Y-56443699D02*
X158315819Y-55824652D01*
X93877676Y-77446400D02*
X94020533Y-77494019D01*
X94020533Y-77494019D02*
X94258628Y-77494019D01*
X94258628Y-77494019D02*
X94353866Y-77446400D01*
X94353866Y-77446400D02*
X94401485Y-77398780D01*
X94401485Y-77398780D02*
X94449104Y-77303542D01*
X94449104Y-77303542D02*
X94449104Y-77208304D01*
X94449104Y-77208304D02*
X94401485Y-77113066D01*
X94401485Y-77113066D02*
X94353866Y-77065447D01*
X94353866Y-77065447D02*
X94258628Y-77017828D01*
X94258628Y-77017828D02*
X94068152Y-76970209D01*
X94068152Y-76970209D02*
X93972914Y-76922590D01*
X93972914Y-76922590D02*
X93925295Y-76874971D01*
X93925295Y-76874971D02*
X93877676Y-76779733D01*
X93877676Y-76779733D02*
X93877676Y-76684495D01*
X93877676Y-76684495D02*
X93925295Y-76589257D01*
X93925295Y-76589257D02*
X93972914Y-76541638D01*
X93972914Y-76541638D02*
X94068152Y-76494019D01*
X94068152Y-76494019D02*
X94306247Y-76494019D01*
X94306247Y-76494019D02*
X94449104Y-76541638D01*
X94782438Y-76494019D02*
X95020533Y-77494019D01*
X95020533Y-77494019D02*
X95211009Y-76779733D01*
X95211009Y-76779733D02*
X95401485Y-77494019D01*
X95401485Y-77494019D02*
X95639581Y-76494019D01*
X96544342Y-77494019D02*
X95972914Y-77494019D01*
X96258628Y-77494019D02*
X96258628Y-76494019D01*
X96258628Y-76494019D02*
X96163390Y-76636876D01*
X96163390Y-76636876D02*
X96068152Y-76732114D01*
X96068152Y-76732114D02*
X95972914Y-76779733D01*
X97401485Y-76494019D02*
X97211009Y-76494019D01*
X97211009Y-76494019D02*
X97115771Y-76541638D01*
X97115771Y-76541638D02*
X97068152Y-76589257D01*
X97068152Y-76589257D02*
X96972914Y-76732114D01*
X96972914Y-76732114D02*
X96925295Y-76922590D01*
X96925295Y-76922590D02*
X96925295Y-77303542D01*
X96925295Y-77303542D02*
X96972914Y-77398780D01*
X96972914Y-77398780D02*
X97020533Y-77446400D01*
X97020533Y-77446400D02*
X97115771Y-77494019D01*
X97115771Y-77494019D02*
X97306247Y-77494019D01*
X97306247Y-77494019D02*
X97401485Y-77446400D01*
X97401485Y-77446400D02*
X97449104Y-77398780D01*
X97449104Y-77398780D02*
X97496723Y-77303542D01*
X97496723Y-77303542D02*
X97496723Y-77065447D01*
X97496723Y-77065447D02*
X97449104Y-76970209D01*
X97449104Y-76970209D02*
X97401485Y-76922590D01*
X97401485Y-76922590D02*
X97306247Y-76874971D01*
X97306247Y-76874971D02*
X97115771Y-76874971D01*
X97115771Y-76874971D02*
X97020533Y-76922590D01*
X97020533Y-76922590D02*
X96972914Y-76970209D01*
X96972914Y-76970209D02*
X96925295Y-77065447D01*
X97648733Y-62152619D02*
X97315400Y-61676428D01*
X97077305Y-62152619D02*
X97077305Y-61152619D01*
X97077305Y-61152619D02*
X97458257Y-61152619D01*
X97458257Y-61152619D02*
X97553495Y-61200238D01*
X97553495Y-61200238D02*
X97601114Y-61247857D01*
X97601114Y-61247857D02*
X97648733Y-61343095D01*
X97648733Y-61343095D02*
X97648733Y-61485952D01*
X97648733Y-61485952D02*
X97601114Y-61581190D01*
X97601114Y-61581190D02*
X97553495Y-61628809D01*
X97553495Y-61628809D02*
X97458257Y-61676428D01*
X97458257Y-61676428D02*
X97077305Y-61676428D01*
X97982067Y-61152619D02*
X98648733Y-61152619D01*
X98648733Y-61152619D02*
X98220162Y-62152619D01*
X98962676Y-154750400D02*
X99105533Y-154798019D01*
X99105533Y-154798019D02*
X99343628Y-154798019D01*
X99343628Y-154798019D02*
X99438866Y-154750400D01*
X99438866Y-154750400D02*
X99486485Y-154702780D01*
X99486485Y-154702780D02*
X99534104Y-154607542D01*
X99534104Y-154607542D02*
X99534104Y-154512304D01*
X99534104Y-154512304D02*
X99486485Y-154417066D01*
X99486485Y-154417066D02*
X99438866Y-154369447D01*
X99438866Y-154369447D02*
X99343628Y-154321828D01*
X99343628Y-154321828D02*
X99153152Y-154274209D01*
X99153152Y-154274209D02*
X99057914Y-154226590D01*
X99057914Y-154226590D02*
X99010295Y-154178971D01*
X99010295Y-154178971D02*
X98962676Y-154083733D01*
X98962676Y-154083733D02*
X98962676Y-153988495D01*
X98962676Y-153988495D02*
X99010295Y-153893257D01*
X99010295Y-153893257D02*
X99057914Y-153845638D01*
X99057914Y-153845638D02*
X99153152Y-153798019D01*
X99153152Y-153798019D02*
X99391247Y-153798019D01*
X99391247Y-153798019D02*
X99534104Y-153845638D01*
X99867438Y-153798019D02*
X100105533Y-154798019D01*
X100105533Y-154798019D02*
X100296009Y-154083733D01*
X100296009Y-154083733D02*
X100486485Y-154798019D01*
X100486485Y-154798019D02*
X100724581Y-153798019D01*
X101629342Y-154798019D02*
X101057914Y-154798019D01*
X101343628Y-154798019D02*
X101343628Y-153798019D01*
X101343628Y-153798019D02*
X101248390Y-153940876D01*
X101248390Y-153940876D02*
X101153152Y-154036114D01*
X101153152Y-154036114D02*
X101057914Y-154083733D01*
X102010295Y-153893257D02*
X102057914Y-153845638D01*
X102057914Y-153845638D02*
X102153152Y-153798019D01*
X102153152Y-153798019D02*
X102391247Y-153798019D01*
X102391247Y-153798019D02*
X102486485Y-153845638D01*
X102486485Y-153845638D02*
X102534104Y-153893257D01*
X102534104Y-153893257D02*
X102581723Y-153988495D01*
X102581723Y-153988495D02*
X102581723Y-154083733D01*
X102581723Y-154083733D02*
X102534104Y-154226590D01*
X102534104Y-154226590D02*
X101962676Y-154798019D01*
X101962676Y-154798019D02*
X102581723Y-154798019D01*
X155046514Y-137356219D02*
X155046514Y-136356219D01*
X155046514Y-136356219D02*
X155284609Y-136356219D01*
X155284609Y-136356219D02*
X155427466Y-136403838D01*
X155427466Y-136403838D02*
X155522704Y-136499076D01*
X155522704Y-136499076D02*
X155570323Y-136594314D01*
X155570323Y-136594314D02*
X155617942Y-136784790D01*
X155617942Y-136784790D02*
X155617942Y-136927647D01*
X155617942Y-136927647D02*
X155570323Y-137118123D01*
X155570323Y-137118123D02*
X155522704Y-137213361D01*
X155522704Y-137213361D02*
X155427466Y-137308600D01*
X155427466Y-137308600D02*
X155284609Y-137356219D01*
X155284609Y-137356219D02*
X155046514Y-137356219D01*
X156570323Y-137356219D02*
X155998895Y-137356219D01*
X156284609Y-137356219D02*
X156284609Y-136356219D01*
X156284609Y-136356219D02*
X156189371Y-136499076D01*
X156189371Y-136499076D02*
X156094133Y-136594314D01*
X156094133Y-136594314D02*
X155998895Y-136641933D01*
X157427466Y-136689552D02*
X157427466Y-137356219D01*
X157189371Y-136308600D02*
X156951276Y-137022885D01*
X156951276Y-137022885D02*
X157570323Y-137022885D01*
X155190476Y-44454819D02*
X155190476Y-43454819D01*
X155190476Y-43454819D02*
X155523809Y-44169104D01*
X155523809Y-44169104D02*
X155857142Y-43454819D01*
X155857142Y-43454819D02*
X155857142Y-44454819D01*
X156285714Y-43550057D02*
X156333333Y-43502438D01*
X156333333Y-43502438D02*
X156428571Y-43454819D01*
X156428571Y-43454819D02*
X156666666Y-43454819D01*
X156666666Y-43454819D02*
X156761904Y-43502438D01*
X156761904Y-43502438D02*
X156809523Y-43550057D01*
X156809523Y-43550057D02*
X156857142Y-43645295D01*
X156857142Y-43645295D02*
X156857142Y-43740533D01*
X156857142Y-43740533D02*
X156809523Y-43883390D01*
X156809523Y-43883390D02*
X156238095Y-44454819D01*
X156238095Y-44454819D02*
X156857142Y-44454819D01*
X98144105Y-99184619D02*
X98144105Y-98184619D01*
X98144105Y-98184619D02*
X98382200Y-98184619D01*
X98382200Y-98184619D02*
X98525057Y-98232238D01*
X98525057Y-98232238D02*
X98620295Y-98327476D01*
X98620295Y-98327476D02*
X98667914Y-98422714D01*
X98667914Y-98422714D02*
X98715533Y-98613190D01*
X98715533Y-98613190D02*
X98715533Y-98756047D01*
X98715533Y-98756047D02*
X98667914Y-98946523D01*
X98667914Y-98946523D02*
X98620295Y-99041761D01*
X98620295Y-99041761D02*
X98525057Y-99137000D01*
X98525057Y-99137000D02*
X98382200Y-99184619D01*
X98382200Y-99184619D02*
X98144105Y-99184619D01*
X99620295Y-98184619D02*
X99144105Y-98184619D01*
X99144105Y-98184619D02*
X99096486Y-98660809D01*
X99096486Y-98660809D02*
X99144105Y-98613190D01*
X99144105Y-98613190D02*
X99239343Y-98565571D01*
X99239343Y-98565571D02*
X99477438Y-98565571D01*
X99477438Y-98565571D02*
X99572676Y-98613190D01*
X99572676Y-98613190D02*
X99620295Y-98660809D01*
X99620295Y-98660809D02*
X99667914Y-98756047D01*
X99667914Y-98756047D02*
X99667914Y-98994142D01*
X99667914Y-98994142D02*
X99620295Y-99089380D01*
X99620295Y-99089380D02*
X99572676Y-99137000D01*
X99572676Y-99137000D02*
X99477438Y-99184619D01*
X99477438Y-99184619D02*
X99239343Y-99184619D01*
X99239343Y-99184619D02*
X99144105Y-99137000D01*
X99144105Y-99137000D02*
X99096486Y-99089380D01*
X104176533Y-53694419D02*
X103843200Y-53218228D01*
X103605105Y-53694419D02*
X103605105Y-52694419D01*
X103605105Y-52694419D02*
X103986057Y-52694419D01*
X103986057Y-52694419D02*
X104081295Y-52742038D01*
X104081295Y-52742038D02*
X104128914Y-52789657D01*
X104128914Y-52789657D02*
X104176533Y-52884895D01*
X104176533Y-52884895D02*
X104176533Y-53027752D01*
X104176533Y-53027752D02*
X104128914Y-53122990D01*
X104128914Y-53122990D02*
X104081295Y-53170609D01*
X104081295Y-53170609D02*
X103986057Y-53218228D01*
X103986057Y-53218228D02*
X103605105Y-53218228D01*
X104652724Y-53694419D02*
X104843200Y-53694419D01*
X104843200Y-53694419D02*
X104938438Y-53646800D01*
X104938438Y-53646800D02*
X104986057Y-53599180D01*
X104986057Y-53599180D02*
X105081295Y-53456323D01*
X105081295Y-53456323D02*
X105128914Y-53265847D01*
X105128914Y-53265847D02*
X105128914Y-52884895D01*
X105128914Y-52884895D02*
X105081295Y-52789657D01*
X105081295Y-52789657D02*
X105033676Y-52742038D01*
X105033676Y-52742038D02*
X104938438Y-52694419D01*
X104938438Y-52694419D02*
X104747962Y-52694419D01*
X104747962Y-52694419D02*
X104652724Y-52742038D01*
X104652724Y-52742038D02*
X104605105Y-52789657D01*
X104605105Y-52789657D02*
X104557486Y-52884895D01*
X104557486Y-52884895D02*
X104557486Y-53122990D01*
X104557486Y-53122990D02*
X104605105Y-53218228D01*
X104605105Y-53218228D02*
X104652724Y-53265847D01*
X104652724Y-53265847D02*
X104747962Y-53313466D01*
X104747962Y-53313466D02*
X104938438Y-53313466D01*
X104938438Y-53313466D02*
X105033676Y-53265847D01*
X105033676Y-53265847D02*
X105081295Y-53218228D01*
X105081295Y-53218228D02*
X105128914Y-53122990D01*
X108487676Y-119952400D02*
X108630533Y-120000019D01*
X108630533Y-120000019D02*
X108868628Y-120000019D01*
X108868628Y-120000019D02*
X108963866Y-119952400D01*
X108963866Y-119952400D02*
X109011485Y-119904780D01*
X109011485Y-119904780D02*
X109059104Y-119809542D01*
X109059104Y-119809542D02*
X109059104Y-119714304D01*
X109059104Y-119714304D02*
X109011485Y-119619066D01*
X109011485Y-119619066D02*
X108963866Y-119571447D01*
X108963866Y-119571447D02*
X108868628Y-119523828D01*
X108868628Y-119523828D02*
X108678152Y-119476209D01*
X108678152Y-119476209D02*
X108582914Y-119428590D01*
X108582914Y-119428590D02*
X108535295Y-119380971D01*
X108535295Y-119380971D02*
X108487676Y-119285733D01*
X108487676Y-119285733D02*
X108487676Y-119190495D01*
X108487676Y-119190495D02*
X108535295Y-119095257D01*
X108535295Y-119095257D02*
X108582914Y-119047638D01*
X108582914Y-119047638D02*
X108678152Y-119000019D01*
X108678152Y-119000019D02*
X108916247Y-119000019D01*
X108916247Y-119000019D02*
X109059104Y-119047638D01*
X109392438Y-119000019D02*
X109630533Y-120000019D01*
X109630533Y-120000019D02*
X109821009Y-119285733D01*
X109821009Y-119285733D02*
X110011485Y-120000019D01*
X110011485Y-120000019D02*
X110249581Y-119000019D01*
X111154342Y-120000019D02*
X110582914Y-120000019D01*
X110868628Y-120000019D02*
X110868628Y-119000019D01*
X110868628Y-119000019D02*
X110773390Y-119142876D01*
X110773390Y-119142876D02*
X110678152Y-119238114D01*
X110678152Y-119238114D02*
X110582914Y-119285733D01*
X111773390Y-119000019D02*
X111868628Y-119000019D01*
X111868628Y-119000019D02*
X111963866Y-119047638D01*
X111963866Y-119047638D02*
X112011485Y-119095257D01*
X112011485Y-119095257D02*
X112059104Y-119190495D01*
X112059104Y-119190495D02*
X112106723Y-119380971D01*
X112106723Y-119380971D02*
X112106723Y-119619066D01*
X112106723Y-119619066D02*
X112059104Y-119809542D01*
X112059104Y-119809542D02*
X112011485Y-119904780D01*
X112011485Y-119904780D02*
X111963866Y-119952400D01*
X111963866Y-119952400D02*
X111868628Y-120000019D01*
X111868628Y-120000019D02*
X111773390Y-120000019D01*
X111773390Y-120000019D02*
X111678152Y-119952400D01*
X111678152Y-119952400D02*
X111630533Y-119904780D01*
X111630533Y-119904780D02*
X111582914Y-119809542D01*
X111582914Y-119809542D02*
X111535295Y-119619066D01*
X111535295Y-119619066D02*
X111535295Y-119380971D01*
X111535295Y-119380971D02*
X111582914Y-119190495D01*
X111582914Y-119190495D02*
X111630533Y-119095257D01*
X111630533Y-119095257D02*
X111678152Y-119047638D01*
X111678152Y-119047638D02*
X111773390Y-119000019D01*
X89903867Y-100902400D02*
X90046724Y-100950019D01*
X90046724Y-100950019D02*
X90284819Y-100950019D01*
X90284819Y-100950019D02*
X90380057Y-100902400D01*
X90380057Y-100902400D02*
X90427676Y-100854780D01*
X90427676Y-100854780D02*
X90475295Y-100759542D01*
X90475295Y-100759542D02*
X90475295Y-100664304D01*
X90475295Y-100664304D02*
X90427676Y-100569066D01*
X90427676Y-100569066D02*
X90380057Y-100521447D01*
X90380057Y-100521447D02*
X90284819Y-100473828D01*
X90284819Y-100473828D02*
X90094343Y-100426209D01*
X90094343Y-100426209D02*
X89999105Y-100378590D01*
X89999105Y-100378590D02*
X89951486Y-100330971D01*
X89951486Y-100330971D02*
X89903867Y-100235733D01*
X89903867Y-100235733D02*
X89903867Y-100140495D01*
X89903867Y-100140495D02*
X89951486Y-100045257D01*
X89951486Y-100045257D02*
X89999105Y-99997638D01*
X89999105Y-99997638D02*
X90094343Y-99950019D01*
X90094343Y-99950019D02*
X90332438Y-99950019D01*
X90332438Y-99950019D02*
X90475295Y-99997638D01*
X90808629Y-99950019D02*
X91046724Y-100950019D01*
X91046724Y-100950019D02*
X91237200Y-100235733D01*
X91237200Y-100235733D02*
X91427676Y-100950019D01*
X91427676Y-100950019D02*
X91665772Y-99950019D01*
X92522914Y-99950019D02*
X92046724Y-99950019D01*
X92046724Y-99950019D02*
X91999105Y-100426209D01*
X91999105Y-100426209D02*
X92046724Y-100378590D01*
X92046724Y-100378590D02*
X92141962Y-100330971D01*
X92141962Y-100330971D02*
X92380057Y-100330971D01*
X92380057Y-100330971D02*
X92475295Y-100378590D01*
X92475295Y-100378590D02*
X92522914Y-100426209D01*
X92522914Y-100426209D02*
X92570533Y-100521447D01*
X92570533Y-100521447D02*
X92570533Y-100759542D01*
X92570533Y-100759542D02*
X92522914Y-100854780D01*
X92522914Y-100854780D02*
X92475295Y-100902400D01*
X92475295Y-100902400D02*
X92380057Y-100950019D01*
X92380057Y-100950019D02*
X92141962Y-100950019D01*
X92141962Y-100950019D02*
X92046724Y-100902400D01*
X92046724Y-100902400D02*
X91999105Y-100854780D01*
X128013867Y-81852400D02*
X128156724Y-81900019D01*
X128156724Y-81900019D02*
X128394819Y-81900019D01*
X128394819Y-81900019D02*
X128490057Y-81852400D01*
X128490057Y-81852400D02*
X128537676Y-81804780D01*
X128537676Y-81804780D02*
X128585295Y-81709542D01*
X128585295Y-81709542D02*
X128585295Y-81614304D01*
X128585295Y-81614304D02*
X128537676Y-81519066D01*
X128537676Y-81519066D02*
X128490057Y-81471447D01*
X128490057Y-81471447D02*
X128394819Y-81423828D01*
X128394819Y-81423828D02*
X128204343Y-81376209D01*
X128204343Y-81376209D02*
X128109105Y-81328590D01*
X128109105Y-81328590D02*
X128061486Y-81280971D01*
X128061486Y-81280971D02*
X128013867Y-81185733D01*
X128013867Y-81185733D02*
X128013867Y-81090495D01*
X128013867Y-81090495D02*
X128061486Y-80995257D01*
X128061486Y-80995257D02*
X128109105Y-80947638D01*
X128109105Y-80947638D02*
X128204343Y-80900019D01*
X128204343Y-80900019D02*
X128442438Y-80900019D01*
X128442438Y-80900019D02*
X128585295Y-80947638D01*
X128918629Y-80900019D02*
X129156724Y-81900019D01*
X129156724Y-81900019D02*
X129347200Y-81185733D01*
X129347200Y-81185733D02*
X129537676Y-81900019D01*
X129537676Y-81900019D02*
X129775772Y-80900019D01*
X130061486Y-80900019D02*
X130680533Y-80900019D01*
X130680533Y-80900019D02*
X130347200Y-81280971D01*
X130347200Y-81280971D02*
X130490057Y-81280971D01*
X130490057Y-81280971D02*
X130585295Y-81328590D01*
X130585295Y-81328590D02*
X130632914Y-81376209D01*
X130632914Y-81376209D02*
X130680533Y-81471447D01*
X130680533Y-81471447D02*
X130680533Y-81709542D01*
X130680533Y-81709542D02*
X130632914Y-81804780D01*
X130632914Y-81804780D02*
X130585295Y-81852400D01*
X130585295Y-81852400D02*
X130490057Y-81900019D01*
X130490057Y-81900019D02*
X130204343Y-81900019D01*
X130204343Y-81900019D02*
X130109105Y-81852400D01*
X130109105Y-81852400D02*
X130061486Y-81804780D01*
X136066305Y-99357819D02*
X136066305Y-98357819D01*
X136066305Y-98357819D02*
X136304400Y-98357819D01*
X136304400Y-98357819D02*
X136447257Y-98405438D01*
X136447257Y-98405438D02*
X136542495Y-98500676D01*
X136542495Y-98500676D02*
X136590114Y-98595914D01*
X136590114Y-98595914D02*
X136637733Y-98786390D01*
X136637733Y-98786390D02*
X136637733Y-98929247D01*
X136637733Y-98929247D02*
X136590114Y-99119723D01*
X136590114Y-99119723D02*
X136542495Y-99214961D01*
X136542495Y-99214961D02*
X136447257Y-99310200D01*
X136447257Y-99310200D02*
X136304400Y-99357819D01*
X136304400Y-99357819D02*
X136066305Y-99357819D01*
X136971067Y-98357819D02*
X137637733Y-98357819D01*
X137637733Y-98357819D02*
X137209162Y-99357819D01*
X89903867Y-81852400D02*
X90046724Y-81900019D01*
X90046724Y-81900019D02*
X90284819Y-81900019D01*
X90284819Y-81900019D02*
X90380057Y-81852400D01*
X90380057Y-81852400D02*
X90427676Y-81804780D01*
X90427676Y-81804780D02*
X90475295Y-81709542D01*
X90475295Y-81709542D02*
X90475295Y-81614304D01*
X90475295Y-81614304D02*
X90427676Y-81519066D01*
X90427676Y-81519066D02*
X90380057Y-81471447D01*
X90380057Y-81471447D02*
X90284819Y-81423828D01*
X90284819Y-81423828D02*
X90094343Y-81376209D01*
X90094343Y-81376209D02*
X89999105Y-81328590D01*
X89999105Y-81328590D02*
X89951486Y-81280971D01*
X89951486Y-81280971D02*
X89903867Y-81185733D01*
X89903867Y-81185733D02*
X89903867Y-81090495D01*
X89903867Y-81090495D02*
X89951486Y-80995257D01*
X89951486Y-80995257D02*
X89999105Y-80947638D01*
X89999105Y-80947638D02*
X90094343Y-80900019D01*
X90094343Y-80900019D02*
X90332438Y-80900019D01*
X90332438Y-80900019D02*
X90475295Y-80947638D01*
X90808629Y-80900019D02*
X91046724Y-81900019D01*
X91046724Y-81900019D02*
X91237200Y-81185733D01*
X91237200Y-81185733D02*
X91427676Y-81900019D01*
X91427676Y-81900019D02*
X91665772Y-80900019D01*
X92570533Y-81900019D02*
X91999105Y-81900019D01*
X92284819Y-81900019D02*
X92284819Y-80900019D01*
X92284819Y-80900019D02*
X92189581Y-81042876D01*
X92189581Y-81042876D02*
X92094343Y-81138114D01*
X92094343Y-81138114D02*
X91999105Y-81185733D01*
D12*
%TO.C,U3*%
X124008800Y-74305400D02*
X127908800Y-74305400D01*
X124008800Y-64175400D02*
X127908800Y-64175400D01*
D13*
X121913800Y-64295400D02*
G75*
G02*
X121713800Y-64295400I-100000J0D01*
G01*
X121713800Y-64295400D02*
G75*
G02*
X121913800Y-64295400I100000J0D01*
G01*
%TO.C,S1*%
D14*
X86337200Y-46475400D02*
X95937200Y-46475400D01*
X95937200Y-56475400D01*
X86337200Y-56475400D01*
X86337200Y-46475400D01*
D15*
%TO.C,D1*%
X98385400Y-80680000D02*
X100345400Y-80680000D01*
X98385400Y-81880000D02*
X100345400Y-81880000D01*
X100345400Y-81880000D02*
X100345400Y-80680000D01*
%TO.C,R4*%
X154868200Y-66938536D02*
X154868200Y-68392664D01*
X156688200Y-66938536D02*
X156688200Y-68392664D01*
%TO.C,D10*%
X116646800Y-118576800D02*
X116646800Y-119776800D01*
X118606800Y-118576800D02*
X116646800Y-118576800D01*
X118606800Y-119776800D02*
X116646800Y-119776800D01*
%TO.C,R10*%
X105070264Y-45927600D02*
X103616136Y-45927600D01*
X105070264Y-47747600D02*
X103616136Y-47747600D01*
%TO.C,D13*%
X135315800Y-137601400D02*
X135315800Y-138801400D01*
X137275800Y-137601400D02*
X135315800Y-137601400D01*
X137275800Y-138801400D02*
X135315800Y-138801400D01*
%TO.C,SW13*%
X122362200Y-139484200D02*
X136332200Y-139484200D01*
X122362200Y-153454200D02*
X122362200Y-139484200D01*
X136332200Y-139484200D02*
X136332200Y-153454200D01*
X136332200Y-153454200D02*
X122362200Y-153454200D01*
%TO.C,SW_RST1*%
X110217000Y-46987200D02*
X110217000Y-48487200D01*
X111467000Y-50987200D02*
X115967000Y-50987200D01*
X115967000Y-44487200D02*
X111467000Y-44487200D01*
X117217000Y-48487200D02*
X117217000Y-46987200D01*
%TO.C,R1*%
X154868200Y-50453936D02*
X154868200Y-51908064D01*
X156688200Y-50453936D02*
X156688200Y-51908064D01*
%TO.C,D12*%
X117740200Y-137677600D02*
X119700200Y-137677600D01*
X117740200Y-138877600D02*
X119700200Y-138877600D01*
X119700200Y-138877600D02*
X119700200Y-137677600D01*
%TO.C,U1*%
X134112000Y-37719000D02*
X134109000Y-70739000D01*
X134112000Y-70739000D02*
X149479000Y-70739000D01*
X136779000Y-40259000D02*
X134109000Y-40259000D01*
X136779000Y-42799000D02*
X134109000Y-42799000D01*
X136779000Y-70739000D02*
X134109000Y-70739000D01*
X136779000Y-70739000D02*
X136779000Y-40259000D01*
X139192000Y-35179000D02*
X139192000Y-37719000D01*
X139192000Y-37719000D02*
X134112000Y-37719000D01*
X147066000Y-35179000D02*
X139192000Y-35179000D01*
X147066000Y-35179000D02*
X147066000Y-37719000D01*
X149479000Y-40259000D02*
X152149000Y-40259000D01*
X149479000Y-68199000D02*
X149479000Y-40259000D01*
X149479000Y-68199000D02*
X149479000Y-70739000D01*
X149479000Y-70739000D02*
X152146000Y-70739000D01*
X152146000Y-37719000D02*
X147066000Y-37719000D01*
X152146000Y-70739000D02*
X152146000Y-37719000D01*
%TO.C,D9*%
X98171000Y-118576800D02*
X100131000Y-118576800D01*
X98171000Y-119776800D02*
X100131000Y-119776800D01*
X100131000Y-119776800D02*
X100131000Y-118576800D01*
%TO.C,SW11*%
X122362200Y-120434200D02*
X136332200Y-120434200D01*
X122362200Y-134404200D02*
X122362200Y-120434200D01*
X136332200Y-120434200D02*
X136332200Y-134404200D01*
X136332200Y-134404200D02*
X122362200Y-134404200D01*
%TO.C,SW4*%
X141412200Y-82334200D02*
X155382200Y-82334200D01*
X141412200Y-96304200D02*
X141412200Y-82334200D01*
X155382200Y-82334200D02*
X155382200Y-96304200D01*
X155382200Y-96304200D02*
X141412200Y-96304200D01*
%TO.C,R6*%
X105070264Y-58957800D02*
X103616136Y-58957800D01*
X105070264Y-60777800D02*
X103616136Y-60777800D01*
%TO.C,D4*%
X154061000Y-80680000D02*
X154061000Y-81880000D01*
X156021000Y-80680000D02*
X154061000Y-80680000D01*
X156021000Y-81880000D02*
X154061000Y-81880000D01*
%TO.C,D8*%
X151368600Y-99679200D02*
X151368600Y-100879200D01*
X153328600Y-99679200D02*
X151368600Y-99679200D01*
X153328600Y-100879200D02*
X151368600Y-100879200D01*
%TO.C,R8*%
X105070264Y-54614400D02*
X103616136Y-54614400D01*
X105070264Y-56434400D02*
X103616136Y-56434400D01*
%TO.C,R3*%
X154868200Y-61443669D02*
X154868200Y-62897797D01*
X156688200Y-61443669D02*
X156688200Y-62897797D01*
%TO.C,SW15*%
X103947200Y-63939200D02*
X108047200Y-63939200D01*
X103947200Y-66339200D02*
X103947200Y-63939200D01*
X103947200Y-71139200D02*
X103947200Y-68539200D01*
X103947200Y-75739200D02*
X103947200Y-73339200D01*
X108047200Y-75739200D02*
X103947200Y-75739200D01*
X110047200Y-70339200D02*
X110047200Y-69339200D01*
X110547200Y-69839200D02*
X109547200Y-69839200D01*
X112047200Y-63939200D02*
X116147200Y-63939200D01*
X112047200Y-75739200D02*
X116147200Y-75739200D01*
X116147200Y-75739200D02*
X116147200Y-63939200D01*
X117247200Y-73939200D02*
X117547200Y-73639200D01*
X117547200Y-73639200D02*
X117847200Y-73939200D01*
X117847200Y-73939200D02*
X117247200Y-73939200D01*
X113047200Y-69839200D02*
G75*
G02*
X107047200Y-69839200I-3000000J0D01*
G01*
X107047200Y-69839200D02*
G75*
G02*
X113047200Y-69839200I3000000J0D01*
G01*
%TO.C,D6*%
X116291200Y-99552200D02*
X116291200Y-100752200D01*
X118251200Y-99552200D02*
X116291200Y-99552200D01*
X118251200Y-100752200D02*
X116291200Y-100752200D01*
%TO.C,J1*%
X119520200Y-44113000D02*
X119520200Y-45363000D01*
X119810200Y-44403000D02*
X119810200Y-50373000D01*
X119810200Y-50373000D02*
X132430200Y-50373000D01*
X119820200Y-44413000D02*
X119820200Y-45163000D01*
X119820200Y-45163000D02*
X121620200Y-45163000D01*
X119820200Y-46663000D02*
X120570200Y-46663000D01*
X120570200Y-46663000D02*
X120570200Y-48003000D01*
X120770200Y-44113000D02*
X119520200Y-44113000D01*
X121620200Y-44413000D02*
X119820200Y-44413000D01*
X121620200Y-45163000D02*
X121620200Y-44413000D01*
X123120200Y-44413000D02*
X123120200Y-45163000D01*
X123120200Y-45163000D02*
X129120200Y-45163000D01*
X126120200Y-49613000D02*
X121630200Y-49613000D01*
X129120200Y-44413000D02*
X123120200Y-44413000D01*
X129120200Y-45163000D02*
X129120200Y-44413000D01*
X130620200Y-44413000D02*
X130620200Y-45163000D01*
X130620200Y-45163000D02*
X132420200Y-45163000D01*
X131670200Y-46663000D02*
X131670200Y-49613000D01*
X131670200Y-49613000D02*
X126120200Y-49613000D01*
X132420200Y-44413000D02*
X130620200Y-44413000D01*
X132420200Y-45163000D02*
X132420200Y-44413000D01*
X132420200Y-46663000D02*
X131670200Y-46663000D01*
X132430200Y-44403000D02*
X119810200Y-44403000D01*
X132430200Y-50373000D02*
X132430200Y-44403000D01*
%TO.C,SW6*%
X103312200Y-101384200D02*
X117282200Y-101384200D01*
X103312200Y-115354200D02*
X103312200Y-101384200D01*
X117282200Y-101384200D02*
X117282200Y-115354200D01*
X117282200Y-115354200D02*
X103312200Y-115354200D01*
%TO.C,SW9*%
X84252200Y-120434200D02*
X98222200Y-120434200D01*
X84252200Y-134404200D02*
X84252200Y-120434200D01*
X98222200Y-120434200D02*
X98222200Y-134404200D01*
X98222200Y-134404200D02*
X84252200Y-134404200D01*
%TO.C,SW2*%
X103312200Y-82334200D02*
X117282200Y-82334200D01*
X103312200Y-96304200D02*
X103312200Y-82334200D01*
X117282200Y-82334200D02*
X117282200Y-96304200D01*
X117282200Y-96304200D02*
X103312200Y-96304200D01*
%TO.C,D11*%
X135239600Y-118551400D02*
X135239600Y-119751400D01*
X137199600Y-118551400D02*
X135239600Y-118551400D01*
X137199600Y-119751400D02*
X135239600Y-119751400D01*
%TO.C,SW14*%
X141412200Y-139484200D02*
X155382200Y-139484200D01*
X141412200Y-153454200D02*
X141412200Y-139484200D01*
X155382200Y-139484200D02*
X155382200Y-153454200D01*
X155382200Y-153454200D02*
X141412200Y-153454200D01*
%TO.C,R5*%
X109661336Y-54563600D02*
X111115464Y-54563600D01*
X109661336Y-56383600D02*
X111115464Y-56383600D01*
%TO.C,SW8*%
X141412200Y-110909200D02*
X155382200Y-110909200D01*
X141412200Y-124879200D02*
X141412200Y-110909200D01*
X155382200Y-110909200D02*
X155382200Y-124879200D01*
X155382200Y-124879200D02*
X141412200Y-124879200D01*
%TO.C,D2*%
X112608200Y-80680000D02*
X112608200Y-81880000D01*
X114568200Y-80680000D02*
X112608200Y-80680000D01*
X114568200Y-81880000D02*
X112608200Y-81880000D01*
%TO.C,SW7*%
X122362200Y-101384200D02*
X136332200Y-101384200D01*
X122362200Y-115354200D02*
X122362200Y-101384200D01*
X136332200Y-101384200D02*
X136332200Y-115354200D01*
X136332200Y-115354200D02*
X122362200Y-115354200D01*
%TO.C,D3*%
X140599000Y-80680000D02*
X140599000Y-81880000D01*
X142559000Y-80680000D02*
X140599000Y-80680000D01*
X142559000Y-81880000D02*
X140599000Y-81880000D01*
D16*
%TO.C,Arduino Pro Micro - Macro Keyboard*%
G36*
X91617634Y-38335460D02*
G01*
X91704326Y-38347850D01*
X91790020Y-38370522D01*
X91792168Y-38371233D01*
X91861632Y-38398234D01*
X91930474Y-38432268D01*
X91996596Y-38471833D01*
X92057905Y-38515427D01*
X92112303Y-38561548D01*
X92157695Y-38608693D01*
X92191984Y-38655360D01*
X92194545Y-38659640D01*
X92216237Y-38708494D01*
X92228638Y-38762925D01*
X92231598Y-38819343D01*
X92224971Y-38874160D01*
X92208610Y-38923785D01*
X92205643Y-38929900D01*
X92183569Y-38963997D01*
X92154195Y-38996347D01*
X92121790Y-39022659D01*
X92102015Y-39034075D01*
X92060908Y-39050062D01*
X92007561Y-39065112D01*
X91943281Y-39078897D01*
X91883706Y-39088968D01*
X91799312Y-39102507D01*
X91727410Y-39115698D01*
X91666946Y-39128798D01*
X91616864Y-39142062D01*
X91576111Y-39155746D01*
X91543630Y-39170105D01*
X91538986Y-39172561D01*
X91516703Y-39187388D01*
X91491945Y-39207922D01*
X91473576Y-39226042D01*
X91455342Y-39247390D01*
X91444847Y-39264393D01*
X91439675Y-39281694D01*
X91438123Y-39294136D01*
X91437465Y-39310439D01*
X91437276Y-39337521D01*
X91437503Y-39373561D01*
X91438096Y-39416737D01*
X91439004Y-39465230D01*
X91440176Y-39517219D01*
X91441561Y-39570883D01*
X91443109Y-39624400D01*
X91444768Y-39675952D01*
X91446488Y-39723716D01*
X91448218Y-39765872D01*
X91449907Y-39800600D01*
X91451504Y-39826078D01*
X91452958Y-39840486D01*
X91453446Y-39842638D01*
X91460466Y-39852168D01*
X91474867Y-39858210D01*
X91493968Y-39861607D01*
X91568505Y-39877679D01*
X91639972Y-39905019D01*
X91706650Y-39942357D01*
X91766821Y-39988422D01*
X91818765Y-40041946D01*
X91860762Y-40101658D01*
X91884972Y-40150402D01*
X91897428Y-40187549D01*
X91900373Y-40217215D01*
X91893661Y-40241725D01*
X91878003Y-40262559D01*
X91854020Y-40281473D01*
X91830275Y-40291274D01*
X91809973Y-40290661D01*
X91809407Y-40290452D01*
X91802184Y-40283613D01*
X91789372Y-40267559D01*
X91772645Y-40244527D01*
X91753677Y-40216754D01*
X91749251Y-40210049D01*
X91723269Y-40171310D01*
X91702010Y-40142208D01*
X91683416Y-40120637D01*
X91665429Y-40104490D01*
X91645989Y-40091662D01*
X91623038Y-40080046D01*
X91621482Y-40079332D01*
X91600252Y-40071120D01*
X91575919Y-40063918D01*
X91551830Y-40058404D01*
X91531332Y-40055255D01*
X91517772Y-40055149D01*
X91514165Y-40057591D01*
X91519443Y-40062895D01*
X91533467Y-40073441D01*
X91553522Y-40087222D01*
X91559934Y-40091443D01*
X91606072Y-40126516D01*
X91650793Y-40169552D01*
X91689911Y-40216188D01*
X91713116Y-40251014D01*
X91731047Y-40285953D01*
X91744982Y-40321416D01*
X91753904Y-40354054D01*
X91756795Y-40380520D01*
X91755591Y-40390675D01*
X91747011Y-40404670D01*
X91730168Y-40420592D01*
X91709379Y-40435306D01*
X91688964Y-40445678D01*
X91675565Y-40448747D01*
X91665758Y-40442713D01*
X91649935Y-40424692D01*
X91628192Y-40394799D01*
X91612446Y-40371370D01*
X91584206Y-40330949D01*
X91556187Y-40295470D01*
X91529814Y-40266428D01*
X91506510Y-40245318D01*
X91487698Y-40233636D01*
X91479529Y-40231769D01*
X91475959Y-40231602D01*
X91473024Y-40231884D01*
X91470715Y-40233789D01*
X91469019Y-40238491D01*
X91467925Y-40247164D01*
X91467424Y-40260980D01*
X91467503Y-40281115D01*
X91468152Y-40308742D01*
X91469359Y-40345035D01*
X91471114Y-40391168D01*
X91473406Y-40448314D01*
X91476223Y-40517647D01*
X91476728Y-40530113D01*
X91479204Y-40592715D01*
X91481991Y-40665748D01*
X91484976Y-40746089D01*
X91488045Y-40830615D01*
X91491087Y-40916202D01*
X91493987Y-40999727D01*
X91496633Y-41078066D01*
X91497235Y-41096291D01*
X91500955Y-41207118D01*
X91504761Y-41316242D01*
X91508603Y-41422436D01*
X91512434Y-41524475D01*
X91516203Y-41621134D01*
X91519860Y-41711187D01*
X91523357Y-41793410D01*
X91526644Y-41866576D01*
X91529671Y-41929460D01*
X91532390Y-41980838D01*
X91534018Y-42008277D01*
X91536612Y-42052048D01*
X91539409Y-42103677D01*
X91542115Y-42157469D01*
X91544436Y-42207728D01*
X91544968Y-42220186D01*
X91549716Y-42333778D01*
X91520074Y-42346834D01*
X91478955Y-42361105D01*
X91428039Y-42371817D01*
X91366382Y-42379096D01*
X91293037Y-42383069D01*
X91242943Y-42383918D01*
X91185487Y-42383634D01*
X91140241Y-42381958D01*
X91105906Y-42378695D01*
X91081184Y-42373648D01*
X91064774Y-42366624D01*
X91055379Y-42357426D01*
X91054346Y-42355551D01*
X91050456Y-42345205D01*
X91043560Y-42324431D01*
X91034482Y-42295808D01*
X91024048Y-42261915D01*
X91018633Y-42243970D01*
X90988671Y-42144025D01*
X90761086Y-42143957D01*
X90533500Y-42143888D01*
X90508052Y-42226950D01*
X90497060Y-42261567D01*
X90486006Y-42294223D01*
X90476182Y-42321219D01*
X90468950Y-42338716D01*
X90462716Y-42350605D01*
X90455528Y-42360050D01*
X90445753Y-42367457D01*
X90431760Y-42373231D01*
X90411917Y-42377777D01*
X90384592Y-42381501D01*
X90348153Y-42384808D01*
X90300968Y-42388103D01*
X90259761Y-42390675D01*
X90238113Y-42391096D01*
X90207171Y-42390535D01*
X90171156Y-42389116D01*
X90136222Y-42387092D01*
X90098563Y-42383754D01*
X90062649Y-42379188D01*
X90032577Y-42373988D01*
X90014172Y-42369354D01*
X89978367Y-42357476D01*
X89970868Y-42261154D01*
X89966979Y-42217294D01*
X89962620Y-42184673D01*
X89957024Y-42160971D01*
X89949419Y-42143868D01*
X89939036Y-42131046D01*
X89925105Y-42120184D01*
X89923786Y-42119312D01*
X89917382Y-42115940D01*
X89908699Y-42113399D01*
X89896090Y-42111628D01*
X89877914Y-42110568D01*
X89852525Y-42110158D01*
X89818280Y-42110338D01*
X89773534Y-42111046D01*
X89725549Y-42112029D01*
X89663601Y-42113547D01*
X89593144Y-42115568D01*
X89519211Y-42117927D01*
X89446839Y-42120462D01*
X89381061Y-42123009D01*
X89361336Y-42123838D01*
X89257785Y-42127437D01*
X89161572Y-42129043D01*
X89073687Y-42128689D01*
X88995117Y-42126404D01*
X88926851Y-42122221D01*
X88869877Y-42116171D01*
X88825185Y-42108283D01*
X88818750Y-42106730D01*
X88730943Y-42079278D01*
X88652005Y-42043177D01*
X88579291Y-41996937D01*
X88510154Y-41939072D01*
X88495389Y-41924857D01*
X88454995Y-41882557D01*
X88416366Y-41837346D01*
X88380277Y-41790584D01*
X88347503Y-41743631D01*
X88318817Y-41697844D01*
X88294995Y-41654585D01*
X88276810Y-41615210D01*
X88265038Y-41581081D01*
X88260453Y-41553555D01*
X88263829Y-41533992D01*
X88268933Y-41527464D01*
X88276215Y-41523458D01*
X88285668Y-41522982D01*
X88298713Y-41526743D01*
X88316773Y-41535447D01*
X88341268Y-41549800D01*
X88373620Y-41570509D01*
X88415251Y-41598278D01*
X88425617Y-41605284D01*
X88485430Y-41644792D01*
X88537017Y-41676475D01*
X88582472Y-41701306D01*
X88623889Y-41720258D01*
X88663363Y-41734305D01*
X88702987Y-41744418D01*
X88738519Y-41750674D01*
X88770789Y-41754508D01*
X88797761Y-41755020D01*
X88826269Y-41752042D01*
X88850062Y-41747929D01*
X88893297Y-41736649D01*
X88941308Y-41718903D01*
X88990787Y-41696390D01*
X89038430Y-41670810D01*
X89080929Y-41643862D01*
X89114981Y-41617247D01*
X89126843Y-41605641D01*
X89143232Y-41587987D01*
X89127950Y-41518433D01*
X89119215Y-41480242D01*
X89108590Y-41436072D01*
X89097798Y-41393012D01*
X89092925Y-41374294D01*
X89082172Y-41331283D01*
X89075491Y-41299043D01*
X89072989Y-41278217D01*
X89074770Y-41269446D01*
X89075640Y-41269195D01*
X89082611Y-41271091D01*
X89100380Y-41276345D01*
X89126790Y-41284308D01*
X89159685Y-41294330D01*
X89189215Y-41303393D01*
X89246917Y-41321189D01*
X89293073Y-41335353D01*
X89329135Y-41346116D01*
X89356557Y-41353708D01*
X89376792Y-41358360D01*
X89391294Y-41360301D01*
X89401515Y-41359761D01*
X89408909Y-41356972D01*
X89414928Y-41352163D01*
X89421027Y-41345564D01*
X89425361Y-41340806D01*
X89432158Y-41332956D01*
X89436223Y-41324972D01*
X89437820Y-41313861D01*
X89437210Y-41296628D01*
X89434656Y-41270280D01*
X89432922Y-41254470D01*
X89427559Y-41205262D01*
X89422127Y-41154022D01*
X89416824Y-41102756D01*
X89411848Y-41053469D01*
X89407398Y-41008169D01*
X89403670Y-40968860D01*
X89400862Y-40937548D01*
X89399173Y-40916240D01*
X89398760Y-40908130D01*
X89398727Y-40900833D01*
X89399493Y-40895099D01*
X89402189Y-40891197D01*
X89407947Y-40889398D01*
X89417896Y-40889972D01*
X89433167Y-40893188D01*
X89454892Y-40899317D01*
X89484200Y-40908629D01*
X89522223Y-40921393D01*
X89570091Y-40937881D01*
X89628935Y-40958361D01*
X89671983Y-40973376D01*
X89708314Y-40985600D01*
X89740679Y-40995653D01*
X89766716Y-41002865D01*
X89784064Y-41006571D01*
X89789829Y-41006699D01*
X89796042Y-40997400D01*
X89797552Y-40975980D01*
X89794345Y-40942297D01*
X89786405Y-40896213D01*
X89773720Y-40837585D01*
X89772087Y-40830590D01*
X89764179Y-40795747D01*
X89757378Y-40763585D01*
X89752369Y-40737500D01*
X89749837Y-40720885D01*
X89749754Y-40719969D01*
X89747828Y-40696237D01*
X89798682Y-40698421D01*
X89825813Y-40700047D01*
X89861668Y-40702840D01*
X89901500Y-40706404D01*
X89939094Y-40710183D01*
X89973028Y-40713484D01*
X90002445Y-40715729D01*
X90024541Y-40716749D01*
X90036510Y-40716375D01*
X90037412Y-40716131D01*
X90046037Y-40708965D01*
X90059066Y-40694307D01*
X90069309Y-40681157D01*
X90092446Y-40649816D01*
X90060712Y-40527244D01*
X90048412Y-40479901D01*
X90035136Y-40429082D01*
X90022099Y-40379415D01*
X90010512Y-40335525D01*
X90004849Y-40314219D01*
X89996349Y-40281150D01*
X89989709Y-40252952D01*
X89985465Y-40232103D01*
X89984157Y-40221086D01*
X89984423Y-40220062D01*
X89990432Y-40219814D01*
X90004276Y-40224048D01*
X90026791Y-40233123D01*
X90058815Y-40247397D01*
X90101184Y-40267228D01*
X90154734Y-40292974D01*
X90155001Y-40293103D01*
X90201114Y-40315110D01*
X90236241Y-40330982D01*
X90261317Y-40341051D01*
X90277275Y-40345651D01*
X90285050Y-40345112D01*
X90285575Y-40339769D01*
X90285504Y-40339577D01*
X90282057Y-40329174D01*
X90275837Y-40309228D01*
X90267916Y-40283201D01*
X90263674Y-40269062D01*
X90256392Y-40245521D01*
X90245584Y-40211710D01*
X90232091Y-40170199D01*
X90216751Y-40123558D01*
X90200404Y-40074356D01*
X90188192Y-40037929D01*
X90172864Y-39991982D01*
X90159085Y-39949885D01*
X90147428Y-39913458D01*
X90138469Y-39884518D01*
X90132781Y-39864886D01*
X90130930Y-39856549D01*
X90136315Y-39847470D01*
X90149576Y-39844957D01*
X90203818Y-39843829D01*
X90259986Y-39842301D01*
X90316320Y-39840454D01*
X90371056Y-39838370D01*
X90422432Y-39836129D01*
X90468684Y-39833813D01*
X90508051Y-39831503D01*
X90538770Y-39829279D01*
X90559078Y-39827223D01*
X90566581Y-39825779D01*
X90580226Y-39816086D01*
X90584861Y-39800343D01*
X90580450Y-39777284D01*
X90566959Y-39745642D01*
X90564202Y-39740177D01*
X90551961Y-39715531D01*
X90536727Y-39683759D01*
X90521009Y-39650127D01*
X90514123Y-39635079D01*
X90499382Y-39602594D01*
X90481402Y-39562984D01*
X90462553Y-39521470D01*
X90446640Y-39486431D01*
X90432844Y-39455027D01*
X90421724Y-39427721D01*
X90414236Y-39407017D01*
X90411334Y-39395418D01*
X90411450Y-39394200D01*
X90419326Y-39390263D01*
X90439322Y-39385649D01*
X90470028Y-39380617D01*
X90510034Y-39375427D01*
X90518520Y-39374450D01*
X90587880Y-39366333D01*
X90645936Y-39358946D01*
X90692231Y-39352357D01*
X90726311Y-39346635D01*
X90747720Y-39341850D01*
X90755669Y-39338519D01*
X90755394Y-39329937D01*
X90749426Y-39310367D01*
X90738205Y-39280916D01*
X90722174Y-39242689D01*
X90701775Y-39196794D01*
X90681256Y-39152417D01*
X90669768Y-39127231D01*
X90657937Y-39100104D01*
X90647068Y-39074191D01*
X90638471Y-39052645D01*
X90633453Y-39038621D01*
X90632692Y-39035307D01*
X90638879Y-39032101D01*
X90656201Y-39025631D01*
X90682797Y-39016511D01*
X90716808Y-39005355D01*
X90756373Y-38992777D01*
X90799631Y-38979391D01*
X90829328Y-38970403D01*
X90859579Y-38960639D01*
X90885753Y-38950914D01*
X90904592Y-38942514D01*
X90912026Y-38937783D01*
X90918984Y-38927433D01*
X90929662Y-38907330D01*
X90942661Y-38880276D01*
X90956578Y-38849076D01*
X90957943Y-38845890D01*
X90980551Y-38795588D01*
X91006469Y-38742328D01*
X91034041Y-38689196D01*
X91061614Y-38639280D01*
X91087534Y-38595667D01*
X91110146Y-38561444D01*
X91110926Y-38560359D01*
X91166250Y-38493484D01*
X91227286Y-38438635D01*
X91294861Y-38395188D01*
X91369801Y-38362519D01*
X91375446Y-38360585D01*
X91450807Y-38341766D01*
X91532332Y-38333411D01*
X91617634Y-38335460D01*
G37*
D15*
%TO.C,R2*%
X154868200Y-55948803D02*
X154868200Y-57402931D01*
X156688200Y-55948803D02*
X156688200Y-57402931D01*
%TO.C,SW16*%
X84887200Y-63939200D02*
X88987200Y-63939200D01*
X84887200Y-66339200D02*
X84887200Y-63939200D01*
X84887200Y-71139200D02*
X84887200Y-68539200D01*
X84887200Y-75739200D02*
X84887200Y-73339200D01*
X88987200Y-75739200D02*
X84887200Y-75739200D01*
X90987200Y-70339200D02*
X90987200Y-69339200D01*
X91487200Y-69839200D02*
X90487200Y-69839200D01*
X92987200Y-63939200D02*
X97087200Y-63939200D01*
X92987200Y-75739200D02*
X97087200Y-75739200D01*
X97087200Y-75739200D02*
X97087200Y-63939200D01*
X98187200Y-73939200D02*
X98487200Y-73639200D01*
X98487200Y-73639200D02*
X98787200Y-73939200D01*
X98787200Y-73939200D02*
X98187200Y-73939200D01*
X93987200Y-69839200D02*
G75*
G02*
X87987200Y-69839200I-3000000J0D01*
G01*
X87987200Y-69839200D02*
G75*
G02*
X93987200Y-69839200I3000000J0D01*
G01*
%TO.C,R7*%
X98542464Y-58957800D02*
X97088336Y-58957800D01*
X98542464Y-60777800D02*
X97088336Y-60777800D01*
%TO.C,SW12*%
X93787200Y-139484200D02*
X107757200Y-139484200D01*
X93787200Y-153454200D02*
X93787200Y-139484200D01*
X107757200Y-139484200D02*
X107757200Y-153454200D01*
X107757200Y-153454200D02*
X93787200Y-153454200D01*
%TO.C,D14*%
X155000800Y-137601400D02*
X155000800Y-138801400D01*
X156960800Y-137601400D02*
X155000800Y-137601400D01*
X156960800Y-138801400D02*
X155000800Y-138801400D01*
%TO.C,D5*%
X97928200Y-99577600D02*
X99888200Y-99577600D01*
X97928200Y-100777600D02*
X99888200Y-100777600D01*
X99888200Y-100777600D02*
X99888200Y-99577600D01*
%TO.C,R9*%
X105070264Y-50499600D02*
X103616136Y-50499600D01*
X105070264Y-52319600D02*
X103616136Y-52319600D01*
%TO.C,SW10*%
X103312200Y-120434200D02*
X117282200Y-120434200D01*
X103312200Y-134404200D02*
X103312200Y-120434200D01*
X117282200Y-120434200D02*
X117282200Y-134404200D01*
X117282200Y-134404200D02*
X103312200Y-134404200D01*
%TO.C,SW5*%
X84252200Y-101384200D02*
X98222200Y-101384200D01*
X84252200Y-115354200D02*
X84252200Y-101384200D01*
X98222200Y-101384200D02*
X98222200Y-115354200D01*
X98222200Y-115354200D02*
X84252200Y-115354200D01*
%TO.C,SW3*%
X122362200Y-82334200D02*
X136332200Y-82334200D01*
X122362200Y-96304200D02*
X122362200Y-82334200D01*
X136332200Y-82334200D02*
X136332200Y-96304200D01*
X136332200Y-96304200D02*
X122362200Y-96304200D01*
%TO.C,D7*%
X135544400Y-99603000D02*
X135544400Y-100803000D01*
X137504400Y-99603000D02*
X135544400Y-99603000D01*
X137504400Y-100803000D02*
X135544400Y-100803000D01*
%TO.C,SW1*%
X84252200Y-82334200D02*
X98222200Y-82334200D01*
X84252200Y-96304200D02*
X84252200Y-82334200D01*
X98222200Y-82334200D02*
X98222200Y-96304200D01*
X98222200Y-96304200D02*
X84252200Y-96304200D01*
%TD*%
M02*
