%TF.GenerationSoftware,KiCad,Pcbnew,9.0.4*%
%TF.CreationDate,2025-08-26T19:34:46+02:00*%
%TF.ProjectId,shaghayeghs-keyboard,73686167-6861-4796-9567-68732d6b6579,rev?*%
%TF.SameCoordinates,Original*%
%TF.FileFunction,Soldermask,Top*%
%TF.FilePolarity,Negative*%
%FSLAX46Y46*%
G04 Gerber Fmt 4.6, Leading zero omitted, Abs format (unit mm)*
G04 Created by KiCad (PCBNEW 9.0.4) date 2025-08-26 19:34:46*
%MOMM*%
%LPD*%
G01*
G04 APERTURE LIST*
G04 Aperture macros list*
%AMRoundRect*
0 Rectangle with rounded corners*
0 $1 Rounding radius*
0 $2 $3 $4 $5 $6 $7 $8 $9 X,Y pos of 4 corners*
0 Add a 4 corners polygon primitive as box body*
4,1,4,$2,$3,$4,$5,$6,$7,$8,$9,$2,$3,0*
0 Add four circle primitives for the rounded corners*
1,1,$1+$1,$2,$3*
1,1,$1+$1,$4,$5*
1,1,$1+$1,$6,$7*
1,1,$1+$1,$8,$9*
0 Add four rect primitives between the rounded corners*
20,1,$1+$1,$2,$3,$4,$5,0*
20,1,$1+$1,$4,$5,$6,$7,0*
20,1,$1+$1,$6,$7,$8,$9,0*
20,1,$1+$1,$8,$9,$2,$3,0*%
G04 Aperture macros list end*
%ADD10RoundRect,0.100500X-0.986500X-0.301500X0.986500X-0.301500X0.986500X0.301500X-0.986500X0.301500X0*%
%ADD11RoundRect,0.190500X-0.444500X-0.444500X0.444500X-0.444500X0.444500X0.444500X-0.444500X0.444500X0*%
%ADD12C,2.200000*%
%ADD13RoundRect,0.150000X-0.150000X-0.200000X0.150000X-0.200000X0.150000X0.200000X-0.150000X0.200000X0*%
%ADD14RoundRect,0.250000X-0.625000X0.312500X-0.625000X-0.312500X0.625000X-0.312500X0.625000X0.312500X0*%
%ADD15RoundRect,0.150000X0.150000X0.200000X-0.150000X0.200000X-0.150000X-0.200000X0.150000X-0.200000X0*%
%ADD16RoundRect,0.250000X0.312500X0.625000X-0.312500X0.625000X-0.312500X-0.625000X0.312500X-0.625000X0*%
%ADD17C,1.700000*%
%ADD18C,4.000000*%
%ADD19C,2.000000*%
%ADD20R,1.600000X1.600000*%
%ADD21O,1.600000X1.600000*%
%ADD22R,2.000000X2.000000*%
%ADD23R,3.200000X2.000000*%
%ADD24C,1.200000*%
%ADD25RoundRect,0.250000X-0.600000X-0.725000X0.600000X-0.725000X0.600000X0.725000X-0.600000X0.725000X0*%
%ADD26O,1.700000X1.950000*%
%ADD27RoundRect,0.250000X-0.312500X-0.625000X0.312500X-0.625000X0.312500X0.625000X-0.312500X0.625000X0*%
%ADD28C,3.050000*%
G04 APERTURE END LIST*
D10*
%TO.C,U3*%
X128433800Y-64795400D03*
X128433800Y-66065400D03*
X128433800Y-67335400D03*
X128433800Y-68605400D03*
X128433800Y-69875400D03*
X128433800Y-71145400D03*
X128433800Y-72415400D03*
X128433800Y-73685400D03*
X123483800Y-73685400D03*
X123483800Y-72415400D03*
X123483800Y-71145400D03*
X123483800Y-69875400D03*
X123483800Y-68605400D03*
X123483800Y-67335400D03*
X123483800Y-66065400D03*
X123483800Y-64795400D03*
%TD*%
D11*
%TO.C,S1*%
X85437200Y-48275400D03*
X85437200Y-51075400D03*
X85437200Y-54775400D03*
X96837200Y-48275400D03*
X96837200Y-51075400D03*
X96837200Y-54775400D03*
%TD*%
D12*
%TO.C,M2*%
X158000000Y-154000000D03*
%TD*%
%TO.C,M2*%
X84000000Y-154000000D03*
%TD*%
D13*
%TO.C,D1*%
X99785400Y-81280000D03*
X98385400Y-81280000D03*
%TD*%
D14*
%TO.C,R4*%
X155778200Y-66203100D03*
X155778200Y-69128100D03*
%TD*%
D15*
%TO.C,D10*%
X117206800Y-119176800D03*
X118606800Y-119176800D03*
%TD*%
D16*
%TO.C,R10*%
X105805700Y-46837600D03*
X102880700Y-46837600D03*
%TD*%
D15*
%TO.C,D13*%
X135875800Y-138201400D03*
X137275800Y-138201400D03*
%TD*%
D17*
%TO.C,SW13*%
X124267200Y-146469200D03*
D18*
X129347200Y-146469200D03*
D17*
X134427200Y-146469200D03*
D12*
X131887200Y-141389200D03*
X125537200Y-143929200D03*
%TD*%
D19*
%TO.C,SW_RST1*%
X110467000Y-45487200D03*
X116967000Y-45487200D03*
X110467000Y-49987200D03*
X116967000Y-49987200D03*
%TD*%
D14*
%TO.C,R1*%
X155778200Y-49718500D03*
X155778200Y-52643500D03*
%TD*%
D13*
%TO.C,D12*%
X119140200Y-138277600D03*
X117740200Y-138277600D03*
%TD*%
D20*
%TO.C,U1*%
X135509000Y-41529000D03*
D21*
X135509000Y-44069000D03*
X135509000Y-46609000D03*
X135509000Y-49149000D03*
X135509000Y-51689000D03*
X135509000Y-54229000D03*
X135509000Y-56769000D03*
X135509000Y-59309000D03*
X135509000Y-61849000D03*
X135509000Y-64389000D03*
X135509000Y-66929000D03*
X135509000Y-69469000D03*
X150749000Y-69469000D03*
X150749000Y-66929000D03*
X150749000Y-64389000D03*
X150749000Y-61849000D03*
X150749000Y-59309000D03*
X150749000Y-56769000D03*
X150749000Y-54229000D03*
X150749000Y-51689000D03*
X150749000Y-49149000D03*
X150749000Y-46609000D03*
X150749000Y-44069000D03*
X150749000Y-41529000D03*
%TD*%
D13*
%TO.C,D9*%
X99571000Y-119176800D03*
X98171000Y-119176800D03*
%TD*%
D17*
%TO.C,SW11*%
X124267200Y-127419200D03*
D18*
X129347200Y-127419200D03*
D17*
X134427200Y-127419200D03*
D12*
X131887200Y-122339200D03*
X125537200Y-124879200D03*
%TD*%
D17*
%TO.C,SW4*%
X143317200Y-89319200D03*
D18*
X148397200Y-89319200D03*
D17*
X153477200Y-89319200D03*
D12*
X150937200Y-84239200D03*
X144587200Y-86779200D03*
%TD*%
D16*
%TO.C,R6*%
X105805700Y-59867800D03*
X102880700Y-59867800D03*
%TD*%
D15*
%TO.C,D4*%
X154621000Y-81280000D03*
X156021000Y-81280000D03*
%TD*%
%TO.C,D8*%
X151928600Y-100279200D03*
X153328600Y-100279200D03*
%TD*%
D16*
%TO.C,R8*%
X105805700Y-55524400D03*
X102880700Y-55524400D03*
%TD*%
D14*
%TO.C,R3*%
X155778200Y-60708233D03*
X155778200Y-63633233D03*
%TD*%
D22*
%TO.C,SW15*%
X117547200Y-72339200D03*
D19*
X117547200Y-67339200D03*
X117547200Y-69839200D03*
D23*
X110047200Y-75439200D03*
X110047200Y-64239200D03*
D19*
X103047200Y-67339200D03*
X103047200Y-72339200D03*
%TD*%
D15*
%TO.C,D6*%
X116851200Y-100152200D03*
X118251200Y-100152200D03*
%TD*%
D24*
%TO.C,J1*%
X120770200Y-48863000D03*
D25*
X122370200Y-46863000D03*
D26*
X124870200Y-46863000D03*
X127370200Y-46863000D03*
X129870200Y-46863000D03*
%TD*%
D17*
%TO.C,SW6*%
X105217200Y-108369200D03*
D18*
X110297200Y-108369200D03*
D17*
X115377200Y-108369200D03*
D12*
X112837200Y-103289200D03*
X106487200Y-105829200D03*
%TD*%
D17*
%TO.C,SW9*%
X86157200Y-127419200D03*
D18*
X91237200Y-127419200D03*
D17*
X96317200Y-127419200D03*
D12*
X93777200Y-122339200D03*
X87427200Y-124879200D03*
%TD*%
D17*
%TO.C,SW2*%
X105217200Y-89319200D03*
D18*
X110297200Y-89319200D03*
D17*
X115377200Y-89319200D03*
D12*
X112837200Y-84239200D03*
X106487200Y-86779200D03*
%TD*%
D15*
%TO.C,D11*%
X135799600Y-119151400D03*
X137199600Y-119151400D03*
%TD*%
D17*
%TO.C,SW14*%
X143317200Y-146469200D03*
D18*
X148397200Y-146469200D03*
D17*
X153477200Y-146469200D03*
D12*
X150937200Y-141389200D03*
X144587200Y-143929200D03*
%TD*%
D27*
%TO.C,R5*%
X108925900Y-55473600D03*
X111850900Y-55473600D03*
%TD*%
D28*
%TO.C,SW8*%
X155397200Y-105994200D03*
D18*
X140157200Y-105994200D03*
D17*
X148397200Y-112814200D03*
D18*
X148397200Y-117894200D03*
D17*
X148397200Y-122974200D03*
D28*
X155397200Y-129794200D03*
D18*
X140157200Y-129794200D03*
D12*
X153477200Y-120434200D03*
X150937200Y-114084200D03*
%TD*%
D15*
%TO.C,D2*%
X113168200Y-81280000D03*
X114568200Y-81280000D03*
%TD*%
D17*
%TO.C,SW7*%
X124267200Y-108369200D03*
D18*
X129347200Y-108369200D03*
D17*
X134427200Y-108369200D03*
D12*
X131887200Y-103289200D03*
X125537200Y-105829200D03*
%TD*%
D15*
%TO.C,D3*%
X141159000Y-81280000D03*
X142559000Y-81280000D03*
%TD*%
D12*
%TO.C,M2*%
X84000000Y-41000000D03*
%TD*%
D14*
%TO.C,R2*%
X155778200Y-55213367D03*
X155778200Y-58138367D03*
%TD*%
D22*
%TO.C,SW16*%
X98487200Y-72339200D03*
D19*
X98487200Y-67339200D03*
X98487200Y-69839200D03*
D23*
X90987200Y-75439200D03*
X90987200Y-64239200D03*
D19*
X83987200Y-67339200D03*
X83987200Y-72339200D03*
%TD*%
D16*
%TO.C,R7*%
X99277900Y-59867800D03*
X96352900Y-59867800D03*
%TD*%
D28*
%TO.C,SW12*%
X112672200Y-153469200D03*
D18*
X112672200Y-138229200D03*
D17*
X105852200Y-146469200D03*
D18*
X100772200Y-146469200D03*
D17*
X95692200Y-146469200D03*
D28*
X88872200Y-153469200D03*
D18*
X88872200Y-138229200D03*
D12*
X98232200Y-151549200D03*
X104582200Y-149009200D03*
%TD*%
D15*
%TO.C,D14*%
X155560800Y-138201400D03*
X156960800Y-138201400D03*
%TD*%
D12*
%TO.C,M2*%
X158000000Y-41000000D03*
%TD*%
D13*
%TO.C,D5*%
X99328200Y-100177600D03*
X97928200Y-100177600D03*
%TD*%
D16*
%TO.C,R9*%
X105805700Y-51409600D03*
X102880700Y-51409600D03*
%TD*%
D17*
%TO.C,SW10*%
X105217200Y-127419200D03*
D18*
X110297200Y-127419200D03*
D17*
X115377200Y-127419200D03*
D12*
X112837200Y-122339200D03*
X106487200Y-124879200D03*
%TD*%
D17*
%TO.C,SW5*%
X86157200Y-108369200D03*
D18*
X91237200Y-108369200D03*
D17*
X96317200Y-108369200D03*
D12*
X93777200Y-103289200D03*
X87427200Y-105829200D03*
%TD*%
D17*
%TO.C,SW3*%
X124267200Y-89319200D03*
D18*
X129347200Y-89319200D03*
D17*
X134427200Y-89319200D03*
D12*
X131887200Y-84239200D03*
X125537200Y-86779200D03*
%TD*%
D15*
%TO.C,D7*%
X136104400Y-100203000D03*
X137504400Y-100203000D03*
%TD*%
D17*
%TO.C,SW1*%
X86157200Y-89319200D03*
D18*
X91237200Y-89319200D03*
D17*
X96317200Y-89319200D03*
D12*
X93777200Y-84239200D03*
X87427200Y-86779200D03*
%TD*%
M02*
