%TF.GenerationSoftware,KiCad,Pcbnew,9.0.4*%
%TF.CreationDate,2025-10-19T21:50:16+02:00*%
%TF.ProjectId,shaghayeghs-keyboard,73686167-6861-4796-9567-68732d6b6579,rev?*%
%TF.SameCoordinates,Original*%
%TF.FileFunction,Soldermask,Top*%
%TF.FilePolarity,Negative*%
%FSLAX46Y46*%
G04 Gerber Fmt 4.6, Leading zero omitted, Abs format (unit mm)*
G04 Created by KiCad (PCBNEW 9.0.4) date 2025-10-19 21:50:16*
%MOMM*%
%LPD*%
G01*
G04 APERTURE LIST*
G04 Aperture macros list*
%AMRoundRect*
0 Rectangle with rounded corners*
0 $1 Rounding radius*
0 $2 $3 $4 $5 $6 $7 $8 $9 X,Y pos of 4 corners*
0 Add a 4 corners polygon primitive as box body*
4,1,4,$2,$3,$4,$5,$6,$7,$8,$9,$2,$3,0*
0 Add four circle primitives for the rounded corners*
1,1,$1+$1,$2,$3*
1,1,$1+$1,$4,$5*
1,1,$1+$1,$6,$7*
1,1,$1+$1,$8,$9*
0 Add four rect primitives between the rounded corners*
20,1,$1+$1,$2,$3,$4,$5,0*
20,1,$1+$1,$4,$5,$6,$7,0*
20,1,$1+$1,$6,$7,$8,$9,0*
20,1,$1+$1,$8,$9,$2,$3,0*%
G04 Aperture macros list end*
%ADD10RoundRect,0.225000X0.225000X0.375000X-0.225000X0.375000X-0.225000X-0.375000X0.225000X-0.375000X0*%
%ADD11RoundRect,0.250000X-0.625000X0.312500X-0.625000X-0.312500X0.625000X-0.312500X0.625000X0.312500X0*%
%ADD12RoundRect,0.225000X-0.375000X0.225000X-0.375000X-0.225000X0.375000X-0.225000X0.375000X0.225000X0*%
%ADD13RoundRect,0.250000X0.312500X0.625000X-0.312500X0.625000X-0.312500X-0.625000X0.312500X-0.625000X0*%
%ADD14C,1.700000*%
%ADD15C,4.000000*%
%ADD16C,2.200000*%
%ADD17R,1.600000X1.600000*%
%ADD18O,1.600000X1.600000*%
%ADD19RoundRect,0.225000X-0.775000X-0.525000X0.775000X-0.525000X0.775000X0.525000X-0.775000X0.525000X0*%
%ADD20RoundRect,0.225000X-0.225000X-0.375000X0.225000X-0.375000X0.225000X0.375000X-0.225000X0.375000X0*%
%ADD21R,2.000000X2.000000*%
%ADD22C,2.000000*%
%ADD23R,3.200000X2.000000*%
%ADD24C,1.200000*%
%ADD25RoundRect,0.250000X0.600000X0.725000X-0.600000X0.725000X-0.600000X-0.725000X0.600000X-0.725000X0*%
%ADD26O,1.700000X1.950000*%
%ADD27RoundRect,0.250000X-0.312500X-0.625000X0.312500X-0.625000X0.312500X0.625000X-0.312500X0.625000X0*%
%ADD28C,3.050000*%
G04 APERTURE END LIST*
D10*
%TO.C,D1*%
X101827600Y-80721200D03*
X98527600Y-80721200D03*
%TD*%
D11*
%TO.C,R4*%
X155778200Y-66203100D03*
X155778200Y-69128100D03*
%TD*%
D12*
%TO.C,D10*%
X119837200Y-116841000D03*
X119837200Y-120141000D03*
%TD*%
D13*
%TO.C,R10*%
X105805700Y-46837600D03*
X102880700Y-46837600D03*
%TD*%
D12*
%TO.C,D13*%
X138760200Y-136043400D03*
X138760200Y-139343400D03*
%TD*%
D11*
%TO.C,R12*%
X124460000Y-63510700D03*
X124460000Y-66435700D03*
%TD*%
D14*
%TO.C,SW13*%
X124267200Y-146469200D03*
D15*
X129347200Y-146469200D03*
D14*
X134427200Y-146469200D03*
D16*
X131887200Y-141389200D03*
X125537200Y-143929200D03*
%TD*%
D11*
%TO.C,R1*%
X155778200Y-49718500D03*
X155778200Y-52643500D03*
%TD*%
D10*
%TO.C,D12*%
X119937800Y-137922000D03*
X116637800Y-137922000D03*
%TD*%
D17*
%TO.C,U1*%
X135509000Y-41529000D03*
D18*
X135509000Y-44069000D03*
X135509000Y-46609000D03*
X135509000Y-49149000D03*
X135509000Y-51689000D03*
X135509000Y-54229000D03*
X135509000Y-56769000D03*
X135509000Y-59309000D03*
X135509000Y-61849000D03*
X135509000Y-64389000D03*
X135509000Y-66929000D03*
X135509000Y-69469000D03*
X150749000Y-69469000D03*
X150749000Y-66929000D03*
X150749000Y-64389000D03*
X150749000Y-61849000D03*
X150749000Y-59309000D03*
X150749000Y-56769000D03*
X150749000Y-54229000D03*
X150749000Y-51689000D03*
X150749000Y-49149000D03*
X150749000Y-46609000D03*
X150749000Y-44069000D03*
X150749000Y-41529000D03*
%TD*%
D19*
%TO.C,S1*%
X85237200Y-48275400D03*
X85237200Y-51075400D03*
X85237200Y-54775400D03*
X97037200Y-48275400D03*
X97037200Y-51075400D03*
X97037200Y-54775400D03*
%TD*%
D10*
%TO.C,D9*%
X100521000Y-118770400D03*
X97221000Y-118770400D03*
%TD*%
D14*
%TO.C,SW11*%
X124267200Y-127419200D03*
D15*
X129347200Y-127419200D03*
D14*
X134427200Y-127419200D03*
D16*
X131887200Y-122339200D03*
X125537200Y-124879200D03*
%TD*%
D14*
%TO.C,SW4*%
X143317200Y-89319200D03*
D15*
X148397200Y-89319200D03*
D14*
X153477200Y-89319200D03*
D16*
X150937200Y-84239200D03*
X144587200Y-86779200D03*
%TD*%
D13*
%TO.C,R6*%
X105805700Y-59867800D03*
X102880700Y-59867800D03*
%TD*%
D20*
%TO.C,D4*%
X152705800Y-80721200D03*
X156005800Y-80721200D03*
%TD*%
%TO.C,D8*%
X150978600Y-99872800D03*
X154278600Y-99872800D03*
%TD*%
D13*
%TO.C,R8*%
X105805700Y-55524400D03*
X102880700Y-55524400D03*
%TD*%
D11*
%TO.C,R3*%
X155778200Y-60708233D03*
X155778200Y-63633233D03*
%TD*%
D21*
%TO.C,SW15*%
X117547200Y-72339200D03*
D22*
X117547200Y-67339200D03*
X117547200Y-69839200D03*
D23*
X110047200Y-75439200D03*
X110047200Y-64239200D03*
D22*
X103047200Y-67339200D03*
X103047200Y-72339200D03*
%TD*%
D12*
%TO.C,D6*%
X119837200Y-97714800D03*
X119837200Y-101014800D03*
%TD*%
D24*
%TO.C,J1*%
X131292400Y-45904400D03*
D25*
X129692400Y-47904400D03*
D26*
X127192400Y-47904400D03*
X124692400Y-47904400D03*
X122192400Y-47904400D03*
%TD*%
D14*
%TO.C,SW6*%
X105217200Y-108369200D03*
D15*
X110297200Y-108369200D03*
D14*
X115377200Y-108369200D03*
D16*
X112837200Y-103289200D03*
X106487200Y-105829200D03*
%TD*%
D14*
%TO.C,SW9*%
X86157200Y-127419200D03*
D15*
X91237200Y-127419200D03*
D14*
X96317200Y-127419200D03*
D16*
X93777200Y-122339200D03*
X87427200Y-124879200D03*
%TD*%
D14*
%TO.C,SW2*%
X105217200Y-89319200D03*
D15*
X110297200Y-89319200D03*
D14*
X115377200Y-89319200D03*
D16*
X112837200Y-84239200D03*
X106487200Y-86779200D03*
%TD*%
D12*
%TO.C,D11*%
X138760200Y-116587000D03*
X138760200Y-119887000D03*
%TD*%
D14*
%TO.C,SW14*%
X143317200Y-146469200D03*
D15*
X148397200Y-146469200D03*
D14*
X153477200Y-146469200D03*
D16*
X150937200Y-141389200D03*
X144587200Y-143929200D03*
%TD*%
D27*
%TO.C,R5*%
X108925900Y-55473600D03*
X111850900Y-55473600D03*
%TD*%
D28*
%TO.C,SW8*%
X155397200Y-105994200D03*
D15*
X140157200Y-105994200D03*
D14*
X148397200Y-112814200D03*
D15*
X148397200Y-117894200D03*
D14*
X148397200Y-122974200D03*
D28*
X155397200Y-129794200D03*
D15*
X140157200Y-129794200D03*
D16*
X153477200Y-120434200D03*
X150937200Y-114084200D03*
%TD*%
D12*
%TO.C,D2*%
X119837200Y-79147400D03*
X119837200Y-82447400D03*
%TD*%
D14*
%TO.C,SW7*%
X124267200Y-108369200D03*
D15*
X129347200Y-108369200D03*
D14*
X134427200Y-108369200D03*
D16*
X131887200Y-103289200D03*
X125537200Y-105829200D03*
%TD*%
D12*
%TO.C,D3*%
X138760200Y-80744600D03*
X138760200Y-84044600D03*
%TD*%
D11*
%TO.C,R2*%
X155778200Y-55213367D03*
X155778200Y-58138367D03*
%TD*%
D21*
%TO.C,SW16*%
X98487200Y-72339200D03*
D22*
X98487200Y-67339200D03*
X98487200Y-69839200D03*
D23*
X90987200Y-75439200D03*
X90987200Y-64239200D03*
D22*
X83987200Y-67339200D03*
X83987200Y-72339200D03*
%TD*%
D13*
%TO.C,R7*%
X99277900Y-59867800D03*
X96352900Y-59867800D03*
%TD*%
D28*
%TO.C,SW12*%
X112672200Y-153469200D03*
D15*
X112672200Y-138229200D03*
D14*
X105852200Y-146469200D03*
D15*
X100772200Y-146469200D03*
D14*
X95692200Y-146469200D03*
D28*
X88872200Y-153469200D03*
D15*
X88872200Y-138229200D03*
D16*
X98232200Y-151549200D03*
X104582200Y-149009200D03*
%TD*%
D20*
%TO.C,D14*%
X154458400Y-137922000D03*
X157758400Y-137922000D03*
%TD*%
D10*
%TO.C,D5*%
X100278200Y-99872800D03*
X96978200Y-99872800D03*
%TD*%
D13*
%TO.C,R9*%
X105805700Y-51409600D03*
X102880700Y-51409600D03*
%TD*%
D14*
%TO.C,SW10*%
X105217200Y-127419200D03*
D15*
X110297200Y-127419200D03*
D14*
X115377200Y-127419200D03*
D16*
X112837200Y-122339200D03*
X106487200Y-124879200D03*
%TD*%
D13*
%TO.C,R13*%
X129961100Y-70205600D03*
X127036100Y-70205600D03*
%TD*%
D14*
%TO.C,SW5*%
X86157200Y-108369200D03*
D15*
X91237200Y-108369200D03*
D14*
X96317200Y-108369200D03*
D16*
X93777200Y-103289200D03*
X87427200Y-105829200D03*
%TD*%
D13*
%TO.C,R11*%
X124500100Y-70180200D03*
X121575100Y-70180200D03*
%TD*%
D14*
%TO.C,SW3*%
X124267200Y-89319200D03*
D15*
X129347200Y-89319200D03*
D14*
X134427200Y-89319200D03*
D16*
X131887200Y-84239200D03*
X125537200Y-86779200D03*
%TD*%
D12*
%TO.C,D7*%
X138760200Y-97333800D03*
X138760200Y-100633800D03*
%TD*%
D14*
%TO.C,SW1*%
X86157200Y-89319200D03*
D15*
X91237200Y-89319200D03*
D14*
X96317200Y-89319200D03*
D16*
X93777200Y-84239200D03*
X87427200Y-86779200D03*
%TD*%
M02*
