%TF.GenerationSoftware,KiCad,Pcbnew,9.0.4*%
%TF.CreationDate,2025-10-19T21:50:16+02:00*%
%TF.ProjectId,shaghayeghs-keyboard,73686167-6861-4796-9567-68732d6b6579,rev?*%
%TF.SameCoordinates,Original*%
%TF.FileFunction,Paste,Top*%
%TF.FilePolarity,Positive*%
%FSLAX46Y46*%
G04 Gerber Fmt 4.6, Leading zero omitted, Abs format (unit mm)*
G04 Created by KiCad (PCBNEW 9.0.4) date 2025-10-19 21:50:16*
%MOMM*%
%LPD*%
G01*
G04 APERTURE LIST*
G04 Aperture macros list*
%AMRoundRect*
0 Rectangle with rounded corners*
0 $1 Rounding radius*
0 $2 $3 $4 $5 $6 $7 $8 $9 X,Y pos of 4 corners*
0 Add a 4 corners polygon primitive as box body*
4,1,4,$2,$3,$4,$5,$6,$7,$8,$9,$2,$3,0*
0 Add four circle primitives for the rounded corners*
1,1,$1+$1,$2,$3*
1,1,$1+$1,$4,$5*
1,1,$1+$1,$6,$7*
1,1,$1+$1,$8,$9*
0 Add four rect primitives between the rounded corners*
20,1,$1+$1,$2,$3,$4,$5,0*
20,1,$1+$1,$4,$5,$6,$7,0*
20,1,$1+$1,$6,$7,$8,$9,0*
20,1,$1+$1,$8,$9,$2,$3,0*%
G04 Aperture macros list end*
%ADD10RoundRect,0.225000X0.225000X0.375000X-0.225000X0.375000X-0.225000X-0.375000X0.225000X-0.375000X0*%
%ADD11RoundRect,0.250000X-0.625000X0.312500X-0.625000X-0.312500X0.625000X-0.312500X0.625000X0.312500X0*%
%ADD12RoundRect,0.225000X-0.375000X0.225000X-0.375000X-0.225000X0.375000X-0.225000X0.375000X0.225000X0*%
%ADD13RoundRect,0.250000X0.312500X0.625000X-0.312500X0.625000X-0.312500X-0.625000X0.312500X-0.625000X0*%
%ADD14RoundRect,0.225000X-0.225000X-0.375000X0.225000X-0.375000X0.225000X0.375000X-0.225000X0.375000X0*%
%ADD15RoundRect,0.250000X-0.312500X-0.625000X0.312500X-0.625000X0.312500X0.625000X-0.312500X0.625000X0*%
G04 APERTURE END LIST*
D10*
%TO.C,D1*%
X101827600Y-80721200D03*
X98527600Y-80721200D03*
%TD*%
D11*
%TO.C,R4*%
X155778200Y-66203100D03*
X155778200Y-69128100D03*
%TD*%
D12*
%TO.C,D10*%
X119837200Y-116841000D03*
X119837200Y-120141000D03*
%TD*%
D13*
%TO.C,R10*%
X105805700Y-46837600D03*
X102880700Y-46837600D03*
%TD*%
D12*
%TO.C,D13*%
X138760200Y-136043400D03*
X138760200Y-139343400D03*
%TD*%
D11*
%TO.C,R12*%
X124460000Y-63510700D03*
X124460000Y-66435700D03*
%TD*%
%TO.C,R1*%
X155778200Y-49718500D03*
X155778200Y-52643500D03*
%TD*%
D10*
%TO.C,D12*%
X119937800Y-137922000D03*
X116637800Y-137922000D03*
%TD*%
%TO.C,D9*%
X100521000Y-118770400D03*
X97221000Y-118770400D03*
%TD*%
D13*
%TO.C,R6*%
X105805700Y-59867800D03*
X102880700Y-59867800D03*
%TD*%
D14*
%TO.C,D4*%
X152705800Y-80721200D03*
X156005800Y-80721200D03*
%TD*%
%TO.C,D8*%
X150978600Y-99872800D03*
X154278600Y-99872800D03*
%TD*%
D13*
%TO.C,R8*%
X105805700Y-55524400D03*
X102880700Y-55524400D03*
%TD*%
D11*
%TO.C,R3*%
X155778200Y-60708233D03*
X155778200Y-63633233D03*
%TD*%
D12*
%TO.C,D6*%
X119837200Y-97714800D03*
X119837200Y-101014800D03*
%TD*%
%TO.C,D11*%
X138760200Y-116587000D03*
X138760200Y-119887000D03*
%TD*%
D15*
%TO.C,R5*%
X108925900Y-55473600D03*
X111850900Y-55473600D03*
%TD*%
D12*
%TO.C,D2*%
X119837200Y-79147400D03*
X119837200Y-82447400D03*
%TD*%
%TO.C,D3*%
X138760200Y-80744600D03*
X138760200Y-84044600D03*
%TD*%
D11*
%TO.C,R2*%
X155778200Y-55213367D03*
X155778200Y-58138367D03*
%TD*%
D13*
%TO.C,R7*%
X99277900Y-59867800D03*
X96352900Y-59867800D03*
%TD*%
D14*
%TO.C,D14*%
X154458400Y-137922000D03*
X157758400Y-137922000D03*
%TD*%
D10*
%TO.C,D5*%
X100278200Y-99872800D03*
X96978200Y-99872800D03*
%TD*%
D13*
%TO.C,R9*%
X105805700Y-51409600D03*
X102880700Y-51409600D03*
%TD*%
%TO.C,R13*%
X129961100Y-70205600D03*
X127036100Y-70205600D03*
%TD*%
%TO.C,R11*%
X124500100Y-70180200D03*
X121575100Y-70180200D03*
%TD*%
D12*
%TO.C,D7*%
X138760200Y-97333800D03*
X138760200Y-100633800D03*
%TD*%
M02*
